<?xml version="1.0" encoding="UTF-8"?>
<svg version="1.1" xmlns="http://www.w3.org/2000/svg" width="512" height="512">
<path d="M0 0 C0.95349889 -0.00630794 1.90699779 -0.01261588 2.88939059 -0.01911497 C4.47164638 -0.02190797 4.47164638 -0.02190797 6.08586693 -0.02475739 C7.2008246 -0.03055077 8.31578227 -0.03634416 9.46452653 -0.0423131 C13.22619099 -0.0604493 16.98784035 -0.07126666 20.7495327 -0.08200836 C22.75217774 -0.09033396 24.75482279 -0.09866554 26.75746568 -0.10749274 C36.28783386 -0.14942777 45.81822724 -0.17661086 55.34865379 -0.20114899 C56.10073488 -0.20312389 56.85281597 -0.20509879 57.62768739 -0.20713353 C72.55922638 -0.24629714 87.49077368 -0.28000562 102.42234802 -0.30221558 C105.70621439 -0.30718496 108.99008064 -0.31222927 112.27394676 -0.31735992 C113.4982452 -0.31926593 113.4982452 -0.31926593 114.74727695 -0.32121044 C127.96591652 -0.34256549 141.1843073 -0.39155436 154.40282173 -0.45160407 C167.97211003 -0.51273916 181.54127002 -0.54740557 195.11069429 -0.55668879 C202.73021506 -0.56259917 210.34931461 -0.58034621 217.9686985 -0.62807465 C224.45879832 -0.6686914 230.9484082 -0.6855476 237.43862946 -0.67142183 C240.74937884 -0.66495755 244.05886689 -0.67360003 247.36950111 -0.70529556 C250.96266587 -0.73788073 254.55322315 -0.72727915 258.1464138 -0.70590973 C259.18786667 -0.7256175 260.22931953 -0.74532527 261.30233157 -0.76563025 C267.84714574 -0.66734419 271.18277127 0.66557634 275.81550741 5.32329082 C276.37043009 5.92366319 276.92535277 6.52403555 277.49709129 7.14260101 C278.34669646 7.94975681 279.19630163 8.75691261 280.07165241 9.58852768 C280.81516232 10.33036175 281.55867224 11.07219582 282.32471275 11.8365097 C283.19250862 12.70004059 284.06030449 13.56357147 284.9543972 14.45326996 C286.33956032 15.83911285 286.33956032 15.83911285 287.75270653 17.25295258 C288.75698073 18.25422812 289.76145738 19.25530063 290.766119 20.25618744 C293.47051932 22.95182479 296.17173601 25.65062987 298.87207866 28.35033131 C300.56073911 30.03827794 302.25011084 31.72550932 303.93973541 33.41249084 C309.8372697 39.30080395 315.73224623 45.19166355 321.62477684 51.08498383 C327.11553414 56.57634411 332.61187013 62.06207694 338.11079448 67.54525781 C342.83976058 72.2611668 347.56488214 76.98090431 352.28700405 81.70366645 C355.10432064 84.52123815 357.92317303 87.33723044 360.7458992 90.14938354 C363.3941534 92.78798527 366.03760224 95.43130671 368.67738342 98.0783844 C369.64759174 99.04964145 370.61951847 100.01918537 371.59325981 100.98690033 C372.91956502 102.30552512 374.23915117 103.63089795 375.55835533 104.95662689 C376.29922606 105.69695286 377.0400968 106.43727882 377.80341816 107.20003891 C380.90064798 110.75241343 380.62524874 114.11318547 380.63410568 118.63540459 C380.63675751 119.300899 380.63940934 119.9663934 380.64214152 120.65205431 C380.64984432 122.89788987 380.65039406 125.14367084 380.65099144 127.38951874 C380.65500539 129.00959206 380.6594435 130.62966437 380.664271 132.24973547 C380.67624939 136.71412215 380.68188785 141.17849801 380.68645215 145.64289761 C380.69240326 150.45280862 380.70401414 155.26270667 380.71474266 160.07260895 C380.73927502 171.69327883 380.75389353 183.31395301 380.76680273 194.93464082 C380.77051357 198.21507939 380.77448687 201.49551753 380.77855539 204.77595568 C380.80378701 225.13478137 380.82584616 245.49360772 380.83828354 265.8524456 C380.84121336 270.56895576 380.84417501 275.2854659 380.84718895 280.00197601 C380.847935 281.17427956 380.84868105 282.34658311 380.84944971 283.55441101 C380.86211244 302.55924266 380.89534769 321.56398094 380.93699078 340.5687689 C380.97936662 360.06725263 381.00297339 379.56568849 381.0082041 399.06421816 C381.01162279 410.01742546 381.02343205 420.97048676 381.05630684 431.92364883 C381.08424853 441.24859888 381.09533252 450.573373 381.08411138 459.89836167 C381.07890995 464.65851889 381.08190745 469.41830736 381.10657692 474.17841148 C381.12895931 478.53342387 381.12841606 482.88780026 381.10937305 487.24282296 C381.10655751 488.82088238 381.11225722 490.39898393 381.12718599 491.97697525 C381.14620919 494.11813576 381.13456414 496.25700879 381.11512375 498.39811516 C381.11648028 499.58843106 381.11783681 500.77874696 381.11923444 502.00513303 C380.31058861 506.08313407 378.64931 507.52042235 375.49709129 510.14260101 C371.94615054 512.50989485 370.45555581 512.39547713 366.2441349 512.40266323 C364.92575512 512.40972882 363.60737534 512.41679441 362.24904466 512.42407411 C360.77705941 512.42182252 359.30507446 512.41937599 357.83308983 512.41675568 C356.27631235 512.42120559 354.71953713 512.42651881 353.16276526 512.4326244 C348.87324535 512.44684472 344.58379775 512.44846693 340.29425764 512.44802749 C335.67244108 512.44967217 331.05065462 512.46273216 326.42885399 512.47422028 C316.3173143 512.49709703 306.20579557 512.50499382 296.09423351 512.51004672 C289.78289603 512.51330076 283.47156466 512.51982147 277.16023064 512.52704811 C259.69286991 512.54661784 242.22551487 512.56301976 224.75814247 512.56592464 C223.63975172 512.56611221 222.52136096 512.56629978 221.36907957 512.56649304 C219.10172828 512.56685929 216.83437699 512.56722299 214.56702569 512.56758415 C212.87870211 512.56785837 212.87870211 512.56785837 211.15627098 512.56813812 C210.02935127 512.56831867 208.90243157 512.56849922 207.74136278 512.56868524 C189.4782923 512.57222741 171.2153397 512.5992508 152.95231012 512.63663601 C134.21091934 512.67469403 115.46958709 512.69408194 96.72815681 512.69438416 C86.20190055 512.69496931 75.67578488 512.70349829 65.14956474 512.73238182 C56.18661409 512.75686226 47.22385528 512.76420122 38.26088026 512.74913429 C33.68679995 512.74195159 29.11309871 512.74288116 24.53906059 512.76554489 C20.35169741 512.7860941 16.16500571 512.78357294 11.97765014 512.76267005 C10.46281545 512.75916731 8.94793271 512.76411836 7.43316105 512.77837449 C-5.29033707 512.8904029 -5.29033707 512.8904029 -9.88865471 509.72918034 C-13.02819286 506.62287756 -13.46606692 506.1243154 -13.63055921 501.74112827 C-13.63697115 500.23299689 -13.63774167 498.72483599 -13.63433647 497.21669483 C-13.63638911 496.38411609 -13.63844174 495.55153735 -13.64055657 494.69372895 C-13.64625994 491.87347457 -13.64476524 489.05326851 -13.6433506 486.23300934 C-13.64593233 484.20274492 -13.64894495 482.17248101 -13.652354 480.14221781 C-13.66044992 474.53927239 -13.66221501 468.93633975 -13.66295147 463.33338916 C-13.66479755 457.29982906 -13.67234265 451.26627567 -13.67908669 445.23271942 C-13.69339897 431.33927541 -13.69919912 417.44583451 -13.70377863 403.55238498 C-13.70611308 396.68909402 -13.70971558 389.8258039 -13.71347401 382.9625136 C-13.7263113 359.47613316 -13.73703006 335.9897532 -13.74047661 312.50336933 C-13.74069824 311.02841865 -13.74092003 309.55346798 -13.74114196 308.0785173 C-13.7413626 306.59996685 -13.74158308 305.1214164 -13.74180341 303.64286596 C-13.74224597 300.67655043 -13.74269308 297.7102349 -13.74314308 294.74391937 C-13.74325247 294.00844301 -13.74336186 293.27296665 -13.74347457 292.51520312 C-13.74710539 268.66609162 -13.76302546 244.81701051 -13.78633345 220.96791064 C-13.81092152 195.76298099 -13.82464899 170.5580687 -13.82584453 145.3531267 C-13.82601598 142.58694915 -13.82623141 139.82077159 -13.82647896 137.05459404 C-13.82653473 136.37346581 -13.8265905 135.69233759 -13.82664795 134.99056912 C-13.82779934 124.02187632 -13.83882886 113.05321467 -13.85336601 102.0845324 C-13.8677223 91.06180647 -13.87072013 80.03911212 -13.86292604 69.01637719 C-13.85901044 63.04294586 -13.85999341 57.06961947 -13.87398338 51.09620094 C-13.88666788 45.6303204 -13.88557287 40.16462423 -13.87339267 34.69874414 C-13.87142618 32.71887916 -13.87455773 30.73900135 -13.88323703 28.75915442 C-13.89427428 26.07178201 -13.88688043 23.38506669 -13.8748455 20.6977129 C-13.8824407 19.92573139 -13.89003589 19.15374987 -13.89786124 18.35837498 C-13.8385075 12.23570774 -12.55804854 7.50912567 -8.44040871 2.76760101 C-5.48327339 0.287423 -3.78202267 0.01561172 0 0 Z " fill="#659C35" transform="translate(72.50290870666504,-0.14260101318359375)"/>
<path d="M0 0 C0.95349889 -0.00630794 1.90699779 -0.01261588 2.88939059 -0.01911497 C4.47164638 -0.02190797 4.47164638 -0.02190797 6.08586693 -0.02475739 C7.2008246 -0.03055077 8.31578227 -0.03634416 9.46452653 -0.0423131 C13.22619099 -0.0604493 16.98784035 -0.07126666 20.7495327 -0.08200836 C22.75217774 -0.09033396 24.75482279 -0.09866554 26.75746568 -0.10749274 C36.28783386 -0.14942777 45.81822724 -0.17661086 55.34865379 -0.20114899 C56.10073488 -0.20312389 56.85281597 -0.20509879 57.62768739 -0.20713353 C72.55922638 -0.24629714 87.49077368 -0.28000562 102.42234802 -0.30221558 C105.70621439 -0.30718496 108.99008064 -0.31222927 112.27394676 -0.31735992 C113.4982452 -0.31926593 113.4982452 -0.31926593 114.74727695 -0.32121044 C127.96591652 -0.34256549 141.1843073 -0.39155436 154.40282173 -0.45160407 C167.97211003 -0.51273916 181.54127002 -0.54740557 195.11069429 -0.55668879 C202.73021506 -0.56259917 210.34931461 -0.58034621 217.9686985 -0.62807465 C224.45879832 -0.6686914 230.9484082 -0.6855476 237.43862946 -0.67142183 C240.74937884 -0.66495755 244.05886689 -0.67360003 247.36950111 -0.70529556 C250.96266587 -0.73788073 254.55322315 -0.72727915 258.1464138 -0.70590973 C259.18786667 -0.7256175 260.22931953 -0.74532527 261.30233157 -0.76563025 C267.84714574 -0.66734419 271.18277127 0.66557634 275.81550741 5.32329082 C276.37043009 5.92366319 276.92535277 6.52403555 277.49709129 7.14260101 C278.34669646 7.94975681 279.19630163 8.75691261 280.07165241 9.58852768 C280.81516232 10.33036175 281.55867224 11.07219582 282.32471275 11.8365097 C283.19250862 12.70004059 284.06030449 13.56357147 284.9543972 14.45326996 C286.33956032 15.83911285 286.33956032 15.83911285 287.75270653 17.25295258 C288.75698073 18.25422812 289.76145738 19.25530063 290.766119 20.25618744 C293.47051932 22.95182479 296.17173601 25.65062987 298.87207866 28.35033131 C300.56073911 30.03827794 302.25011084 31.72550932 303.93973541 33.41249084 C309.8372697 39.30080395 315.73224623 45.19166355 321.62477684 51.08498383 C327.11553414 56.57634411 332.61187013 62.06207694 338.11079448 67.54525781 C342.83976058 72.2611668 347.56488214 76.98090431 352.28700405 81.70366645 C355.10432064 84.52123815 357.92317303 87.33723044 360.7458992 90.14938354 C363.3941534 92.78798527 366.03760224 95.43130671 368.67738342 98.0783844 C369.64759174 99.04964145 370.61951847 100.01918537 371.59325981 100.98690033 C372.91956502 102.30552512 374.23915117 103.63089795 375.55835533 104.95662689 C376.29922606 105.69695286 377.0400968 106.43727882 377.80341816 107.20003891 C380.75651025 110.58709433 380.62109748 113.65948941 380.61734581 117.97016144 C380.61940781 119.7938047 380.61940781 119.7938047 380.62151146 121.65428925 C380.61797234 123.00350214 380.61433753 124.35271478 380.61061668 125.70192719 C380.61033465 127.12107084 380.61049287 128.54021464 380.61105919 129.95935822 C380.61134651 133.81444226 380.60546023 137.6694953 380.59848523 141.52457213 C380.59224093 145.55246432 380.59164704 149.5803572 380.59045982 153.60825348 C380.58734969 161.2367598 380.57914057 168.86525181 380.56911033 176.49375182 C380.55793934 185.17805565 380.55243626 193.86236015 380.5474149 202.54666936 C380.53695771 220.41198803 380.5193644 238.27729337 380.49709129 256.14260101 C379.37243083 255.18089503 378.2480928 254.21881198 377.12389183 253.25656891 C376.49774168 252.7208492 375.87159153 252.18512949 375.22646713 251.63317585 C373.40061601 250.05944753 371.61251101 248.45345094 369.84865379 246.81056976 C369.24029686 246.24410736 368.63193993 245.67764496 368.00514793 245.09401703 C367.38373924 244.51192474 366.76233055 243.92983246 366.12209129 243.33010101 C365.46652245 242.71771576 364.8109536 242.10533051 364.13551903 241.47438812 C359.81894044 237.4262972 355.61166094 233.28768471 351.45802879 229.07228851 C349.59356852 227.23754075 347.67412694 225.52729673 345.68459129 223.83010101 C342.10810289 220.76759897 338.80319636 217.48979485 335.49709129 214.14260101 C332.25257848 210.8579147 329.01786719 207.63526053 325.49709129 204.64260101 C321.40834365 201.16716551 317.68892445 197.36159864 313.92116356 193.54714203 C310.59861012 190.1993899 307.18320127 187.05010646 303.57131004 184.01369476 C301.86312816 182.47279246 300.28647711 180.90564153 298.70412254 179.24025726 C298.21500389 178.72986908 297.72588524 178.2194809 297.22194481 177.6936264 C296.25425246 176.67595557 295.29722767 175.64801088 294.3523159 174.60915375 C292.88856571 173.01789144 292.88856571 173.01789144 290.49709129 171.14260101 C286.9900112 171.43827267 285.39121206 172.9279334 283.07131004 175.45900726 C282.43902489 176.14156586 281.80673973 176.82412445 281.15529442 177.52736664 C280.17979637 178.60534515 280.17979637 178.60534515 279.18459129 179.70510101 C278.22649559 180.74247406 278.22649559 180.74247406 277.24904442 181.80080414 C273.47935924 185.89895225 269.79968249 190.07056416 266.14284325 194.26931 C263.72492708 197.02152343 261.24179392 199.71010213 258.74709129 202.39260101 C257.70395771 203.51875044 256.6609928 204.64505612 255.61818504 205.77150726 C255.09853172 206.33241058 254.5788784 206.8933139 254.04347801 207.47121429 C248.34000952 213.63571466 242.66660132 219.82767976 237.05959129 226.08010101 C233.06191756 230.53546905 229.00508244 234.9334362 224.93874168 239.32595062 C221.20556386 243.36305388 217.5209913 247.44105146 213.85256004 251.53713226 C211.03044208 254.6587785 208.17089066 257.74441184 205.30959129 260.83010101 C201.27100041 265.18749466 197.31189033 269.58603549 193.49709129 274.14260101 C189.87594101 272.61748651 187.61512952 270.47531112 184.88381004 267.67702484 C183.97606834 266.75299362 183.06832664 265.8289624 182.13307762 264.87693024 C181.65271049 264.38345911 181.17234337 263.88998798 180.67741966 263.38156319 C179.16958374 261.83423161 177.65427471 260.29460254 176.13649559 258.75702667 C171.82361416 254.38615271 167.52070082 250.00565749 163.23244286 245.61061859 C160.60600584 242.91986396 157.96761613 240.2413378 155.32121849 237.57021904 C154.3149966 236.54971247 153.31347551 235.52454906 152.31676292 234.49475288 C150.92614201 233.05859875 149.51863313 231.63885488 148.11037254 230.21999359 C146.91601585 228.9999337 146.91601585 228.9999337 145.69753075 227.75522614 C143.66319276 225.90572113 143.66319276 225.90572113 141.35939598 226.2647171 C138.56780754 227.58066212 136.66206529 229.51682318 134.43459129 231.64260101 C130.80218196 235.05056978 127.12881265 238.32767529 123.24709129 241.45510101 C118.74342174 245.09020573 114.35710728 248.83806388 109.99709129 252.64260101 C105.61501766 256.46582385 101.20649256 260.23414624 96.68459129 263.89260101 C93.19473241 266.7174794 89.81698616 269.6197768 86.49709129 272.64260101 C82.29980096 276.46430964 77.95998899 280.05734291 73.54787254 283.62697601 C69.97652988 286.57184755 66.48486579 289.59968228 62.99709129 292.64260101 C58.61498168 296.46578495 54.20649477 300.23414445 49.68459129 303.89260101 C46.19473241 306.7174794 42.81698616 309.6197768 39.49709129 312.64260101 C35.29980096 316.46430964 30.95998899 320.05734291 26.54787254 323.62697601 C22.97652863 326.57184859 19.48489427 329.5997134 15.99709129 332.64260101 C10.74638364 337.22283674 5.43091877 341.68788601 0.00881004 346.06447601 C-3.3394321 348.83471679 -6.54012385 351.75397781 -9.72556496 354.70900726 C-11.50290871 356.14260101 -11.50290871 356.14260101 -13.50290871 356.14260101 C-13.57155723 312.43819898 -13.62442855 268.73380265 -13.6561047 225.02935734 C-13.65985687 219.87106022 -13.66373983 214.71276321 -13.66770363 209.55446625 C-13.66849056 208.52753094 -13.66927749 207.50059563 -13.67008827 206.44254107 C-13.68314648 189.80888096 -13.70680261 173.17525191 -13.73436709 156.54161023 C-13.76240974 139.47726111 -13.77908255 122.41292827 -13.78517419 105.34855705 C-13.789293 94.81672797 -13.80230761 84.28498669 -13.82665811 73.75318462 C-13.8425012 66.53368079 -13.8473123 59.31422243 -13.84341284 52.09470247 C-13.84148907 47.92780174 -13.84446316 43.76105458 -13.86052513 39.59418106 C-13.87512497 35.77877787 -13.8758606 31.96363152 -13.86560539 28.14821649 C-13.86373786 26.11536927 -13.87667585 24.08252506 -13.89015263 22.04972166 C-13.85233932 14.37566543 -13.63830267 8.75305467 -8.44040871 2.76760101 C-5.48327339 0.287423 -3.78202267 0.01561172 0 0 Z " fill="#E8E8DF" transform="translate(72.50290870666504,-0.14260101318359375)"/>
<path d="M0 0 C3.53324825 0.57850377 5.14517694 1.79646645 7.609375 4.3515625 C8.28226562 5.03863281 8.95515625 5.72570312 9.6484375 6.43359375 C10.34195312 7.15675781 11.03546875 7.87992188 11.75 8.625 C16.3905668 13.4155471 21.07363111 18.01346749 26.13378906 22.36083984 C28.88848953 24.7803923 31.44200209 27.37596682 34 30 C37.24215227 33.28673187 40.47950983 36.50758336 44 39.5 C48.0895362 42.97610577 51.8096054 46.78249656 55.578125 50.59765625 C58.30308001 53.34325486 61.05023473 55.99269952 64 58.5 C68.08401613 61.97141371 71.79953721 65.77203572 75.56274414 69.58227539 C78.97385898 73.01943342 82.47136672 76.28805933 86.18359375 79.40234375 C86.78300781 79.92957031 87.38242187 80.45679688 88 81 C88.84964577 81.65113738 89.69929153 82.30227476 90.57468414 82.97314358 C94.02295694 87.27667651 93.69205555 90.6609836 93.62145996 96.02735901 C93.62784878 97.04561341 93.6342376 98.06386781 93.64082003 99.1129784 C93.65609692 102.52957458 93.63558981 105.94501621 93.61523438 109.36157227 C93.61873471 111.80899439 93.6243923 114.25641425 93.63204956 116.7038269 C93.64483647 122.66370492 93.63434475 128.62312969 93.61293632 134.58294911 C93.58892415 141.52230221 93.59064078 148.46157728 93.59324223 155.4009627 C93.59693223 167.78129526 93.57610764 180.16146727 93.54199219 192.54174805 C93.50889373 204.55741432 93.49473511 216.57291211 93.50097656 228.58862305 C93.50773902 241.67170632 93.50528501 254.75471901 93.48561716 267.83779186 C93.48405793 268.87528848 93.48405793 268.87528848 93.4824672 269.93374462 C93.4803763 271.32294167 93.47826533 272.71213868 93.47613403 274.10133566 C93.46923599 278.93960349 93.46856952 283.77784958 93.47001648 288.61612129 C93.47160562 295.12584536 93.45672424 301.63539502 93.43078995 308.14507675 C93.42361117 310.53803846 93.4215527 312.93102165 93.42490768 315.32399178 C93.42860589 318.58275736 93.41393231 321.84092762 93.39440918 325.09962463 C93.39973711 326.05340879 93.40506503 327.00719296 93.41055441 327.98987967 C93.34390069 334.40930859 93.34390069 334.40930859 91.47534943 337.61877346 C90.98848412 338.07457822 90.5016188 338.53038298 90 339 C89.34 338.67 88.68 338.34 88 338 C89.485 336.02 89.485 336.02 91 334 C91.33 285.49 91.66 236.98 92 187 C-37.36 187 -166.72 187 -300 187 C-310.86601354 266.6108427 -310.86601354 266.6108427 -296 339 C-299.875 337.25 -299.875 337.25 -301 335 C-301.1172683 333.05693698 -301.17030359 331.10988779 -301.1942749 329.16343689 C-301.21154633 327.91998505 -301.22881775 326.6765332 -301.24661255 325.395401 C-301.26061801 324.00961485 -301.27443614 322.6238268 -301.28808594 321.23803711 C-301.30580511 319.78437975 -301.32380708 318.33072581 -301.34207153 316.8770752 C-301.50123512 303.59214109 -301.58546066 290.30616892 -301.65206528 277.02048397 C-301.70227985 267.20206563 -301.78816274 257.38532044 -301.92068648 247.56766123 C-302.01075341 240.66226385 -302.05852374 233.75732477 -302.07564378 226.8513661 C-302.08709594 222.72819277 -302.11730301 218.60715849 -302.19359589 214.48463249 C-302.26470083 210.60061222 -302.283211 206.71977915 -302.26247787 202.83519745 C-302.26390016 201.41493719 -302.28397032 199.99454546 -302.32471848 198.57486916 C-302.61576653 187.87944334 -302.61576653 187.87944334 -298.60572052 183.21499825 C-295.8328432 180.93110294 -293.01008839 178.95507231 -290 177 C-288.65685551 175.88858541 -287.32856821 174.75832931 -286.03125 173.59375 C-285.44666016 173.08263672 -284.86207031 172.57152344 -284.25976562 172.04492188 C-283.38868164 171.28018555 -283.38868164 171.28018555 -282.5 170.5 C-278.21914228 166.76452962 -273.91661214 163.07535269 -269.5 159.5 C-263.16800484 154.36873873 -257.04710553 149.00143725 -250.90087891 143.65087891 C-242.95633072 136.75118267 -234.93994734 129.93468727 -226.8984375 123.1484375 C-222.87096844 119.74659471 -218.87082583 116.31391441 -214.875 112.875 C-210.7131582 109.29373398 -206.51730831 105.7684187 -202.25 102.3125 C-197.86848205 98.75732096 -193.68289319 95.03230463 -189.51171875 91.234375 C-186.11542494 88.21309963 -182.5840702 85.37424067 -179.05078125 82.515625 C-174.82263934 79.02916739 -170.70341412 75.42264435 -166.57446289 71.81982422 C-161.85296327 67.7108533 -157.05257941 63.72404104 -152.171875 59.8046875 C-150.0015942 58.10415447 -150.0015942 58.10415447 -148.453125 56.1953125 C-147 55 -147 55 -145.20721436 55.14854431 C-142.17331236 56.31890328 -140.51997725 58.12099067 -138.23144531 60.42797852 C-137.77244339 60.88654236 -137.31344147 61.3451062 -136.8405304 61.81756592 C-135.329173 63.33100888 -133.82871211 64.85479014 -132.328125 66.37890625 C-131.2807464 67.43188162 -130.23270231 68.48419543 -129.184021 69.53587341 C-126.42863705 72.30269969 -123.68238176 75.0784171 -120.93792725 77.8560791 C-118.13464618 80.69007411 -115.32283007 83.51557253 -112.51171875 86.34179688 C-106.99942104 91.88624795 -101.49673895 97.44011909 -96 103 C-92.4745816 101.3517167 -90.49936941 99.58431831 -87.9375 96.625 C-87.14988281 95.7278125 -86.36226562 94.830625 -85.55078125 93.90625 C-84.70902344 92.9471875 -83.86726562 91.988125 -83 91 C-81.21342904 89.03661922 -79.42297589 87.07783618 -77.625 85.125 C-76.692646 84.10943222 -75.76035488 83.09380671 -74.828125 82.078125 C-73.41352628 80.53830592 -71.99875521 78.99864532 -70.58398438 77.45898438 C-65.8876188 72.34689626 -61.1967486 67.23114844 -56.5625 62.0625 C-52.56482627 57.60713196 -48.50799115 53.20916481 -44.44165039 48.81665039 C-41.43603927 45.56634649 -38.45448076 42.29702925 -35.5 39 C-32.0351012 35.13337381 -28.52693248 31.30988287 -25 27.5 C-20.71120256 22.86626629 -16.4605585 18.20164141 -12.24609375 13.5 C-8.18559353 8.98048671 -4.09074432 4.4921326 0 0 Z " fill="#88C057" transform="translate(360,170)"/>
<path d="M0 0 C4.08751337 3.50358289 7.94209015 6.81701355 11.71409607 10.58711243 C12.58196243 11.45215897 13.4498288 12.31720551 14.34399414 13.20846558 C15.27260254 14.13909821 16.20121094 15.06973083 17.15795898 16.02856445 C18.16369866 17.03294676 19.16965043 18.03711673 20.17579651 19.04109192 C22.88837114 21.7491356 25.59780706 24.4602988 28.30652499 27.17219949 C31.1450734 30.01328981 33.98607225 32.85192811 36.82667542 35.69096375 C41.58864173 40.45111549 46.3485057 45.2133618 51.10717773 49.97680664 C56.61482172 55.48991065 62.12608424 60.99937768 67.63920349 66.50700599 C72.3757511 71.2390245 77.11035845 75.9729777 81.84333092 80.70857209 C84.66917623 83.53597889 87.49569886 86.36269967 90.3239727 89.18767738 C92.97660894 91.83743725 95.62681051 94.48960779 98.27510643 97.14370537 C99.24983486 98.11976185 100.22542598 99.09495764 101.20191574 100.06925201 C102.52850791 101.39313496 103.8517524 102.72036997 105.17478943 104.04780579 C106.28942645 105.16300834 106.28942645 105.16300834 107.42658138 106.30074024 C109 108 109 108 109 109 C73.03 109 37.06 109 0 109 C0 73.03 0 37.06 0 0 Z " fill="#D9D7CA" transform="translate(343,1)"/>
<path d="M0 0 C4.39029804 3.66784393 7.3547334 7.77534443 10.125 12.75 C10.5271875 13.43707031 10.929375 14.12414062 11.34375 14.83203125 C16.36682181 24.50144449 15.8885657 35.48253451 13.14453125 45.76953125 C9.78361338 55.59474325 3.96030855 63.2712056 -4.875 68.75 C-16.2802699 74.08935598 -28.02764777 75.73436237 -40.4453125 72.94921875 C-50.92820739 68.96681351 -59.8850024 60.82326618 -64.875 50.75 C-67.40072704 44.62362216 -68.42802641 39.04880605 -68.375 32.4375 C-68.37000488 31.61080811 -68.36500977 30.78411621 -68.35986328 29.93237305 C-68.1565835 22.74678319 -66.53706822 16.98620105 -62.875 10.75 C-62.22337891 9.63238281 -62.22337891 9.63238281 -61.55859375 8.4921875 C-55.81491585 -0.11514747 -45.80808412 -6.29636258 -35.8125 -8.5 C-22.62128373 -10.59129038 -10.84667865 -7.7994512 0 0 Z " fill="#F2D55B" transform="translate(199.875,99.25)"/>
<path d="M0 0 C5.28 0 10.56 0 16 0 C16.8971875 1.62421875 17.794375 3.2484375 18.71875 4.921875 C25.65225454 17.45060884 32.64041811 29.94519374 39.75 42.375 C40.09329346 42.97550171 40.43658691 43.57600342 40.7902832 44.19470215 C43.81891528 49.48989757 46.861362 54.76893666 50 60 C50.33 40.2 50.66 20.4 51 0 C55.95 0 60.9 0 66 0 C66 30.03 66 60.06 66 91 C60.72 91 55.44 91 50 91 C49.29617188 89.6903125 48.59234375 88.380625 47.8671875 87.03125 C41.27853651 74.8307144 34.45484051 62.79334674 27.421875 50.84375 C23.5653626 44.25774252 19.78655703 37.62647481 16 31 C15.67 50.8 15.34 70.6 15 91 C10.05 91 5.1 91 0 91 C0 60.97 0 30.94 0 0 Z " fill="#FDFEFD" transform="translate(220,393)"/>
<path d="M0 0 C40.01342282 0 40.01342282 0 50 9 C52.25637909 11.52383782 54.22190803 14.12007399 56 17 C56.37511719 17.58265625 56.75023437 18.1653125 57.13671875 18.765625 C59.75187978 25.53427709 58.87516902 35.72039494 56.5625 42.5 C53.16012973 49.680091 46.33836311 55.16472334 39 58 C34.1126511 59.33544258 29.20979609 59.11081186 24.1875 59.0625 C21.155625 59.041875 18.12375 59.02125 15 59 C15 70.22 15 81.44 15 93 C10.05 93 5.1 93 0 93 C0 62.31 0 31.62 0 0 Z " fill="#FCFDFB" transform="translate(144,392)"/>
<path d="M0 0 C10.25497386 -0.50608962 18.50932179 2.59218201 26.3203125 9.2265625 C24.93842797 12.43700132 23.39609347 14.27592615 20.6953125 16.4765625 C20.06367188 16.99734375 19.43203125 17.518125 18.78125 18.0546875 C18.29914063 18.44140625 17.81703125 18.828125 17.3203125 19.2265625 C15.05143085 18.12330081 12.98824514 17.00518426 10.8828125 15.6015625 C4.79276993 13.25101975 -1.79662348 13.09373993 -8.08984375 14.9296875 C-14.52478848 18.25254914 -17.18056917 24.72366635 -19.6796875 31.2265625 C-22.86840189 44.88927898 -22.00201856 60.91225196 -15.546875 73.421875 C-12.88278435 77.63854827 -9.46200998 80.77447549 -4.6796875 82.2265625 C2.26028849 82.98173895 8.69246037 82.35247733 15.3203125 80.2265625 C17.00331919 78.54355581 16.54840327 76.40647523 16.63671875 74.09765625 C16.69956055 72.54594727 16.69956055 72.54594727 16.76367188 70.96289062 C16.80298828 69.87427734 16.84230469 68.78566406 16.8828125 67.6640625 C16.94758789 66.0253418 16.94758789 66.0253418 17.01367188 64.35351562 C17.12013208 61.64469482 17.22076057 58.93564599 17.3203125 56.2265625 C12.0403125 56.2265625 6.7603125 56.2265625 1.3203125 56.2265625 C1.3203125 52.9265625 1.3203125 49.6265625 1.3203125 46.2265625 C11.2203125 46.2265625 21.1203125 46.2265625 31.3203125 46.2265625 C31.50452625 51.38966449 31.66349834 56.54130077 31.75976562 61.70507812 C31.79989345 63.45905243 31.85441299 65.21276081 31.92382812 66.96582031 C32.48734958 81.56765556 32.48734958 81.56765556 29.59179688 85.68359375 C27.54347321 87.22309816 25.67859522 88.24841114 23.3203125 89.2265625 C22.4953125 89.8040625 21.6703125 90.3815625 20.8203125 90.9765625 C14.63924974 94.06709388 8.17979916 94.61605501 1.3828125 94.6015625 C0.19703613 94.59914551 0.19703613 94.59914551 -1.01269531 94.59667969 C-6.99619585 94.47073725 -11.59026989 93.51300257 -16.6796875 90.2265625 C-18.2265625 89.3603125 -18.2265625 89.3603125 -19.8046875 88.4765625 C-29.2036641 81.12084168 -34.73078934 71.01014435 -36.6796875 59.2265625 C-36.97944854 55.0977918 -37.0045333 50.98987471 -36.9921875 46.8515625 C-37.00830078 45.7790625 -37.02441406 44.7065625 -37.04101562 43.6015625 C-37.04834945 31.54474963 -33.76793879 20.07154559 -25.60546875 10.89453125 C-17.88913543 3.63606064 -10.44156888 0.88281486 0 0 Z " fill="#FCFDFB" transform="translate(344.6796875,390.7734375)"/>
<path d="M0 0 C19.78625954 0 19.78625954 0 24.64453125 4.53515625 C29.46216837 10.83514325 29.54109532 15.14919888 29 23 C28.11290961 27.3446474 26.70649327 30.32796982 23.4375 33.4375 C20.15669378 35.54058091 18.5025778 36.12335052 14.6484375 36.09765625 C13.49867432 36.09390991 13.49867432 36.09390991 12.32568359 36.09008789 C10.86509521 36.07643188 10.86509521 36.07643188 9.375 36.0625 C6.28125 36.041875 3.1875 36.02125 0 36 C0 24.12 0 12.24 0 0 Z " fill="#669C36" transform="translate(159,404)"/>
</svg>
