<?xml version="1.0" encoding="UTF-8"?>
<svg version="1.1" xmlns="http://www.w3.org/2000/svg" width="512" height="512">
<path d="M0 0 C0.98244265 -0.05991717 1.9648853 -0.11983435 2.97709894 -0.18156719 C53.34974241 -3.17119915 95.05740615 1.15736037 134.16512489 35.35185432 C149.43720105 48.97931824 163.61046864 63.55209726 177.375 78.6875 C178.13589636 79.52185058 178.89679273 80.35620116 179.68074656 81.21583509 C237.55409734 144.77661164 237.55409734 144.77661164 237.56892776 155.84525681 C237.57276891 156.91697435 237.57661005 157.9886919 237.5805676 159.09288573 C237.57970112 160.2798134 237.57883463 161.46674106 237.57794189 162.68963623 C237.58239858 164.57010914 237.58239858 164.57010914 237.5869453 166.48857141 C237.59503385 169.9801145 237.59680591 173.47163706 237.59754276 176.96318841 C237.59939028 180.72487966 237.60693644 184.48656017 237.61367798 188.24824524 C237.62727848 196.48227382 237.63328966 204.71629755 237.63768864 212.9503355 C237.6404501 218.09400982 237.64468747 223.23768224 237.64919281 228.38135529 C237.66139139 242.62663022 237.67168715 256.87190364 237.6750679 271.11718369 C237.67528747 272.02958345 237.67550703 272.94198321 237.67573325 273.88203146 C237.67595153 274.79661775 237.67616981 275.71120405 237.6763947 276.65350509 C237.67683817 278.50679636 237.67728473 280.36008763 237.67773438 282.21337891 C237.6779558 283.13267552 237.67817723 284.05197214 237.67840537 284.99912623 C237.68234755 299.87227451 237.69978118 314.74537363 237.7230939 329.61850294 C237.74684366 344.89414345 237.75927153 360.16975934 237.76043582 375.4454186 C237.76135094 384.01959612 237.76706134 392.59370971 237.78525543 401.16786957 C237.8007059 408.47492738 237.80574812 415.78190154 237.79751733 423.0889726 C237.79362725 426.81322399 237.79445908 430.53730718 237.80857468 434.26153755 C237.82378391 438.31166469 237.81539789 442.36141771 237.80499268 446.41156006 C237.81707728 448.15179856 237.81707728 448.15179856 237.82940602 449.9271934 C237.71140125 469.67887429 230.89571468 487.26846418 217.1875 501.5625 C203.97583461 514.21541828 187.93617245 521.14356748 169.68560791 521.07319641 C168.62551569 521.07702196 167.56542346 521.08084751 166.47320724 521.08478898 C162.93293358 521.09507994 159.39282329 521.09113418 155.85253906 521.0871582 C153.30928396 521.09150688 150.76603017 521.09669055 148.22277832 521.10264587 C142.03819364 521.11464208 135.85366885 521.11718906 129.6690748 521.11484561 C124.63885248 521.11305964 119.6086433 521.11481806 114.57842255 521.11907005 C113.50285455 521.11996284 113.50285455 521.11996284 112.40555792 521.12087366 C110.94865896 521.12208547 109.49176001 521.1232996 108.03486106 521.12451603 C94.38196141 521.13538408 80.72908647 521.13323282 67.07618544 521.12713119 C54.60437354 521.12196519 42.13263983 521.13321039 29.6608434 521.15222941 C16.83714408 521.17163421 4.01348169 521.17985902 -8.8102324 521.17610615 C-16.0026216 521.17419779 -23.1949443 521.17664577 -30.38732147 521.19082069 C-37.15399846 521.20402221 -43.92049422 521.20143864 -50.68717957 521.18840981 C-53.16548465 521.18604805 -55.64380078 521.18876426 -58.1220932 521.19703293 C-61.51579945 521.20753601 -64.90898529 521.19937067 -68.30267334 521.1867218 C-69.27390884 521.19409609 -70.24514434 521.20147037 -71.24581122 521.20906812 C-81.19240182 521.13154563 -90.6944301 518.83707284 -99.5625 514.3125 C-100.23474609 513.97138184 -100.90699219 513.63026367 -101.59960938 513.27880859 C-108.64454444 509.51381599 -114.11333725 504.59561741 -119.5625 498.8125 C-120.31144531 498.02101563 -121.06039062 497.22953125 -121.83203125 496.4140625 C-135.12693807 481.1109384 -138.08226878 462.51252627 -137.85546875 442.91015625 C-137.84985268 441.45186303 -137.84559214 439.99356404 -137.84260559 438.53526306 C-137.83131459 434.75248755 -137.80198967 430.97007427 -137.76849365 427.18743896 C-137.73744676 423.30534766 -137.72402739 419.42319609 -137.70898438 415.54101562 C-137.6770994 407.9646811 -137.62610204 400.38864187 -137.5625 392.8125 C-138.59194984 392.71686264 -138.59194984 392.71686264 -139.64219666 392.61929321 C-140.54265213 392.5330368 -141.4431076 392.4467804 -142.37084961 392.35791016 C-143.70967445 392.2313353 -143.70967445 392.2313353 -145.07554626 392.10220337 C-157.27969366 390.68055142 -166.15209165 383.10850129 -173.84375 374.05859375 C-180.86571322 364.88216454 -183.02750447 353.72155865 -182.95068359 342.375 C-182.95594055 341.39619873 -182.96119751 340.41739746 -182.96661377 339.40893555 C-182.97969503 336.20995585 -182.97111794 333.01148375 -182.9609375 329.8125 C-182.96296164 327.56770737 -182.96587591 325.32291539 -182.96963501 323.078125 C-182.9740423 318.38795675 -182.96767874 313.69796064 -182.95361328 309.0078125 C-182.93652258 303.01955459 -182.94637231 297.03170017 -182.96433067 291.04345703 C-182.97521162 286.41240441 -182.97170241 281.78144621 -182.9639473 277.15039062 C-182.9619572 274.94335888 -182.96436234 272.73631834 -182.97138596 270.52929688 C-182.97907165 267.43596945 -182.96729702 264.34328033 -182.95068359 261.25 C-182.95675629 260.3530542 -182.96282898 259.4561084 -182.96908569 258.53198242 C-182.83530108 244.97131874 -178.25759944 234.01731907 -169.0546875 224.2109375 C-161.1961817 216.64804947 -153.15806405 212.23262587 -142.28125 211.2421875 C-141.39373047 211.15952637 -140.50621094 211.07686523 -139.59179688 210.99169922 C-138.58729492 210.90299561 -138.58729492 210.90299561 -137.5625 210.8125 C-137.56526538 210.10480437 -137.56803076 209.39710875 -137.57087994 208.6679678 C-137.63735074 191.3881618 -137.68688268 174.10838859 -137.71793652 156.82848263 C-137.73335597 148.47178979 -137.75435043 140.1151827 -137.78881836 131.75854492 C-137.81887243 124.46850969 -137.8381107 117.17853661 -137.84476548 109.88844115 C-137.84865085 106.03417577 -137.85767714 102.18008806 -137.87969017 98.32588005 C-137.90030943 94.68562743 -137.90628349 91.04562279 -137.90182304 87.40531731 C-137.90302021 85.45797405 -137.91902741 83.51065674 -137.9357605 81.56338501 C-137.89546323 69.85134513 -136.51458259 57.85970184 -130.8125 47.4375 C-130.46251953 46.77105469 -130.11253906 46.10460938 -129.75195312 45.41796875 C-126.88112718 40.09162622 -123.63060176 35.30549239 -119.5625 30.8125 C-118.98242188 30.14089844 -118.40234375 29.46929688 -117.8046875 28.77734375 C-91.34600643 0.04919422 -36.15415402 2.13680364 0 0 Z " fill="#F05642" transform="translate(228.5625,-8.8125)"/>
<path d="M0 0 C1.5482533 0.00056513 3.09650714 0.00024557 4.64476013 -0.00088501 C8.81970241 -0.00145554 12.99452824 0.01024998 17.16944361 0.02426291 C21.54295914 0.03682046 25.91647776 0.03794471 30.29000854 0.04031372 C38.55932944 0.04651378 46.82859705 0.06290454 55.09789455 0.0830127 C64.51752861 0.10541772 73.93716529 0.11637668 83.35681939 0.12640357 C102.72212197 0.14727216 122.08737505 0.1824193 141.45263672 0.22705078 C141.45207118 1.13813032 141.45207118 1.13813032 141.45149422 2.06761551 C141.44435606 16.8930618 141.47046441 31.71817494 141.53291512 46.5434761 C141.56232734 53.71314299 141.5807652 60.88251527 141.57275391 68.05224609 C141.56579422 74.30636496 141.58005105 80.56002723 141.61907279 86.81403422 C141.63898585 90.1212194 141.64559118 93.42753563 141.63306046 96.73477936 C141.62082548 100.44026492 141.64608645 104.14380523 141.6796875 107.84912109 C141.66135612 109.46753906 141.66135612 109.46753906 141.64265442 111.11865234 C141.77670491 119.37460714 144.38162685 125.13207657 148.45263672 132.22705078 C148.80726046 132.97744251 149.16188419 133.72783424 149.5272541 134.50096512 C150.76309966 136.80614706 152.08047439 137.21166027 154.45263672 138.22705078 C156.40619474 139.4608769 158.33246345 140.73025557 160.25732422 142.00830078 C166.69653346 145.5830931 172.78407335 145.53155781 179.96582031 145.54589844 C181.69351654 145.56096687 181.69351654 145.56096687 183.45611572 145.57633972 C187.25443026 145.60717343 191.05267428 145.62420769 194.85107422 145.64111328 C197.48809414 145.65982474 200.12510808 145.67939814 202.76211548 145.69979858 C208.98800858 145.74651209 215.21391884 145.78329202 221.43989718 145.81647146 C228.53064662 145.85474548 235.62130508 145.90414173 242.71197772 145.95445561 C257.29212729 146.05766489 271.87234205 146.14696094 286.45263672 146.22705078 C286.54426738 183.84178837 286.61471356 221.45650909 286.65689804 259.07133577 C286.66190064 263.51590046 286.66707795 267.96046493 286.67236328 272.4050293 C286.67341252 273.28983185 286.67446176 274.1746344 286.6755428 275.08624915 C286.69293019 289.39762388 286.72445868 303.7089341 286.7612479 318.02027061 C286.79870374 332.7138806 286.82088237 347.40745689 286.8289907 362.10111266 C286.83446886 371.16198218 286.85174754 380.2226693 286.88430259 389.28348265 C286.90550784 395.50366215 286.91182321 401.72374788 286.90664223 407.94396087 C286.90408975 411.52839298 286.90789795 415.11250721 286.92945862 418.69688225 C286.95272882 422.59419451 286.94453787 426.49109966 286.93365479 430.38847351 C286.94530615 431.50621822 286.95695752 432.62396292 286.96896195 433.77557868 C286.84713966 449.99651889 280.57552139 463.98072881 269.34716797 475.46142578 C257.55870995 487.00323058 243.21333506 492.54711484 226.89729309 492.49447632 C225.8583242 492.49900743 224.8193553 492.50353854 223.7489025 492.50820696 C220.28006575 492.5208305 216.81138642 492.51923189 213.3425293 492.51757812 C210.85015665 492.52356468 208.35778585 492.53037053 205.86541748 492.53793335 C199.80482647 492.55375584 193.74429695 492.56004124 187.683691 492.56115811 C182.753591 492.56211045 177.82350378 492.56623002 172.89340782 492.57255936 C158.8954504 492.5901626 144.89752357 492.5993998 130.89955501 492.59789841 C130.14580976 492.5978185 129.39206452 492.59773858 128.61547852 492.59765625 C127.48346944 492.59753361 127.48346944 492.59753361 126.32859149 492.59740849 C114.10639462 492.59659611 101.88432115 492.615724 89.66215996 492.64393298 C77.09270721 492.67271303 64.52331454 492.68647043 51.95382804 492.68474543 C44.90502088 492.68408324 37.85634304 492.68950016 30.80756569 492.71110153 C24.1746645 492.73129914 17.54198882 492.73058745 10.90905762 492.71606827 C8.48115833 492.71398276 6.05324185 492.71866553 3.62537193 492.73078918 C-17.96461825 492.83157587 -34.79670464 489.8739098 -50.81689453 474.14892578 C-60.82813269 463.4358984 -66.68813339 449.96136741 -66.66088867 435.30371094 C-66.6610347 434.63959198 -66.66118073 433.97547302 -66.66133118 433.29122925 C-66.66063962 431.11615629 -66.65288301 428.94117111 -66.64501953 426.76611328 C-66.64315266 425.25011237 -66.64173003 423.73411086 -66.64073181 422.21810913 C-66.63692784 418.24300447 -66.62711581 414.2679368 -66.61602783 410.29284668 C-66.60576798 406.23055522 -66.60122442 402.16825774 -66.59619141 398.10595703 C-66.58549151 390.14630471 -66.56844074 382.18668236 -66.54736328 374.22705078 C-65.63228623 374.22672473 -65.63228623 374.22672473 -64.69872278 374.22639209 C-28.49852131 374.2128603 7.70156551 374.17330125 43.90169743 374.10019516 C48.25355639 374.09142898 52.60541574 374.08287907 56.95727539 374.07446289 C58.25677675 374.0719443 58.25677675 374.0719443 59.58253067 374.06937482 C73.58859935 374.04274443 87.5946271 374.03361258 101.60071851 374.03100935 C115.98477581 374.02794403 130.36871526 374.00593059 144.75271934 373.96652621 C153.62010336 373.9428256 162.48725174 373.93369896 171.35466301 373.94353767 C177.44504041 373.94887571 183.53520771 373.93571874 189.6255253 373.90838788 C193.13327261 373.89318119 196.64054938 373.88577382 200.14830971 373.90045357 C225.9827348 374.00016722 225.9827348 374.00016722 248.45263672 362.22705078 C249.07525391 361.72689453 249.69787109 361.22673828 250.33935547 360.71142578 C257.16417076 354.6120247 262.85361566 344.17738792 263.64646721 334.97806931 C263.73380533 332.22730319 263.7571643 329.4826354 263.7590332 326.73046875 C263.76735672 325.68572891 263.77568024 324.64098907 263.78425598 323.56459045 C263.80831855 320.11610159 263.81712483 316.66780216 263.82373047 313.21923828 C263.83270154 310.81275375 263.84182347 308.40626979 263.85108948 305.99978638 C263.86757323 300.95443366 263.87527816 295.90914724 263.87817383 290.86376953 C263.88354853 284.42133066 263.92119455 277.97952149 263.96691799 271.53726006 C263.99677102 266.56474577 264.00389923 261.59238139 264.00489998 256.61978531 C264.00908796 254.24608612 264.0214646 251.87238589 264.04241753 249.49877548 C264.17224769 233.51541897 263.82378762 220.57581194 252.45263672 208.22705078 C241.95433506 197.61166769 230.39075017 192.95037575 215.41636592 192.81363374 C213.76602887 192.8209051 213.76602887 192.8209051 212.08235168 192.82832336 C210.88463927 192.82167654 209.68692686 192.81502971 208.45292014 192.80818146 C205.15982038 192.79285618 201.86702811 192.7906955 198.57390487 192.79431093 C195.01097468 192.79493836 191.44811837 192.77828139 187.88522339 192.76379395 C181.72267409 192.74106854 175.56018109 192.72913334 169.39759254 192.72466469 C160.48769585 192.71818809 151.57790067 192.69522424 142.66804501 192.66832139 C128.21010747 192.62511031 113.75217422 192.59511118 99.29418945 192.57348633 C85.25510553 192.55245959 71.21605665 192.52516972 57.17700195 192.48950195 C55.87751332 192.48620372 55.87751332 192.48620372 54.55177239 192.48283885 C50.20538437 192.47176877 45.85899667 192.46057604 41.51260912 192.44932234 C5.49264859 192.3562177 -30.52732923 192.28458249 -66.54736328 192.22705078 C-66.64104447 173.80672707 -66.71145853 155.38646569 -66.75461197 136.96595478 C-66.77518659 128.41187359 -66.80320891 119.85794091 -66.84912109 111.30395508 C-66.88914585 103.84327357 -66.91483311 96.3826997 -66.92371726 88.9219138 C-66.92890572 84.97599305 -66.94099227 81.03038004 -66.97028351 77.08455849 C-66.99770076 73.36054491 -67.00575606 69.63696198 -66.99979401 65.91285706 C-67.00139652 63.9150082 -67.02278022 61.91720481 -67.04504395 59.91947937 C-66.96939856 43.12080011 -61.12715425 28.94054746 -49.44189453 16.99267578 C-35.20165186 3.05038572 -19.20953349 -0.09886138 0 0 Z " fill="#ECECEC" transform="translate(168.54736328125,9.77294921875)"/>
<path d="M0 0 C0.98244265 -0.05991717 1.9648853 -0.11983435 2.97709894 -0.18156719 C53.34974241 -3.17119915 95.05740615 1.15736037 134.16512489 35.35185432 C149.43720105 48.97931824 163.61046864 63.55209726 177.375 78.6875 C178.13589636 79.52185058 178.89679273 80.35620116 179.68074656 81.21583509 C237.55409734 144.77661164 237.55409734 144.77661164 237.56892776 155.84525681 C237.57276891 156.91697435 237.57661005 157.9886919 237.5805676 159.09288573 C237.57970112 160.2798134 237.57883463 161.46674106 237.57794189 162.68963623 C237.58239858 164.57010914 237.58239858 164.57010914 237.5869453 166.48857141 C237.59503385 169.9801145 237.59680591 173.47163706 237.59754276 176.96318841 C237.59939028 180.72487966 237.60693644 184.48656017 237.61367798 188.24824524 C237.62727848 196.48227382 237.63328966 204.71629755 237.63768864 212.9503355 C237.6404501 218.09400982 237.64468747 223.23768224 237.64919281 228.38135529 C237.66139139 242.62663022 237.67168715 256.87190364 237.6750679 271.11718369 C237.67528747 272.02958345 237.67550703 272.94198321 237.67573325 273.88203146 C237.67595153 274.79661775 237.67616981 275.71120405 237.6763947 276.65350509 C237.67683817 278.50679636 237.67728473 280.36008763 237.67773438 282.21337891 C237.6779558 283.13267552 237.67817723 284.05197214 237.67840537 284.99912623 C237.68234755 299.87227451 237.69978118 314.74537363 237.7230939 329.61850294 C237.74684366 344.89414345 237.75927153 360.16975934 237.76043582 375.4454186 C237.76135094 384.01959612 237.76706134 392.59370971 237.78525543 401.16786957 C237.8007059 408.47492738 237.80574812 415.78190154 237.79751733 423.0889726 C237.79362725 426.81322399 237.79445908 430.53730718 237.80857468 434.26153755 C237.82378391 438.31166469 237.81539789 442.36141771 237.80499268 446.41156006 C237.81707728 448.15179856 237.81707728 448.15179856 237.82940602 449.9271934 C237.71140125 469.67887429 230.89571468 487.26846418 217.1875 501.5625 C203.97583461 514.21541828 187.93617245 521.14356748 169.68560791 521.07319641 C168.62551569 521.07702196 167.56542346 521.08084751 166.47320724 521.08478898 C162.93293358 521.09507994 159.39282329 521.09113418 155.85253906 521.0871582 C153.30928396 521.09150688 150.76603017 521.09669055 148.22277832 521.10264587 C142.03819364 521.11464208 135.85366885 521.11718906 129.6690748 521.11484561 C124.63885248 521.11305964 119.6086433 521.11481806 114.57842255 521.11907005 C113.50285455 521.11996284 113.50285455 521.11996284 112.40555792 521.12087366 C110.94865896 521.12208547 109.49176001 521.1232996 108.03486106 521.12451603 C94.38196141 521.13538408 80.72908647 521.13323282 67.07618544 521.12713119 C54.60437354 521.12196519 42.13263983 521.13321039 29.6608434 521.15222941 C16.83714408 521.17163421 4.01348169 521.17985902 -8.8102324 521.17610615 C-16.0026216 521.17419779 -23.1949443 521.17664577 -30.38732147 521.19082069 C-37.15399846 521.20402221 -43.92049422 521.20143864 -50.68717957 521.18840981 C-53.16548465 521.18604805 -55.64380078 521.18876426 -58.1220932 521.19703293 C-61.51579945 521.20753601 -64.90898529 521.19937067 -68.30267334 521.1867218 C-69.27390884 521.19409609 -70.24514434 521.20147037 -71.24581122 521.20906812 C-81.19240182 521.13154563 -90.6944301 518.83707284 -99.5625 514.3125 C-100.23474609 513.97138184 -100.90699219 513.63026367 -101.59960938 513.27880859 C-108.64454444 509.51381599 -114.11333725 504.59561741 -119.5625 498.8125 C-120.31144531 498.02101563 -121.06039062 497.22953125 -121.83203125 496.4140625 C-135.12693807 481.1109384 -138.08226878 462.51252627 -137.85546875 442.91015625 C-137.84985268 441.45186303 -137.84559214 439.99356404 -137.84260559 438.53526306 C-137.83131459 434.75248755 -137.80198967 430.97007427 -137.76849365 427.18743896 C-137.73744676 423.30534766 -137.72402739 419.42319609 -137.70898438 415.54101562 C-137.6770994 407.9646811 -137.62610204 400.38864187 -137.5625 392.8125 C-138.59194984 392.71686264 -138.59194984 392.71686264 -139.64219666 392.61929321 C-140.54265213 392.5330368 -141.4431076 392.4467804 -142.37084961 392.35791016 C-143.70967445 392.2313353 -143.70967445 392.2313353 -145.07554626 392.10220337 C-157.27969366 390.68055142 -166.15209165 383.10850129 -173.84375 374.05859375 C-180.86571322 364.88216454 -183.02750447 353.72155865 -182.95068359 342.375 C-182.95594055 341.39619873 -182.96119751 340.41739746 -182.96661377 339.40893555 C-182.97969503 336.20995585 -182.97111794 333.01148375 -182.9609375 329.8125 C-182.96296164 327.56770737 -182.96587591 325.32291539 -182.96963501 323.078125 C-182.9740423 318.38795675 -182.96767874 313.69796064 -182.95361328 309.0078125 C-182.93652258 303.01955459 -182.94637231 297.03170017 -182.96433067 291.04345703 C-182.97521162 286.41240441 -182.97170241 281.78144621 -182.9639473 277.15039062 C-182.9619572 274.94335888 -182.96436234 272.73631834 -182.97138596 270.52929688 C-182.97907165 267.43596945 -182.96729702 264.34328033 -182.95068359 261.25 C-182.95675629 260.3530542 -182.96282898 259.4561084 -182.96908569 258.53198242 C-182.83530108 244.97131874 -178.25759944 234.01731907 -169.0546875 224.2109375 C-161.1961817 216.64804947 -153.15806405 212.23262587 -142.28125 211.2421875 C-141.39373047 211.15952637 -140.50621094 211.07686523 -139.59179688 210.99169922 C-138.58729492 210.90299561 -138.58729492 210.90299561 -137.5625 210.8125 C-137.56526538 210.10480437 -137.56803076 209.39710875 -137.57087994 208.6679678 C-137.63735074 191.3881618 -137.68688268 174.10838859 -137.71793652 156.82848263 C-137.73335597 148.47178979 -137.75435043 140.1151827 -137.78881836 131.75854492 C-137.81887243 124.46850969 -137.8381107 117.17853661 -137.84476548 109.88844115 C-137.84865085 106.03417577 -137.85767714 102.18008806 -137.87969017 98.32588005 C-137.90030943 94.68562743 -137.90628349 91.04562279 -137.90182304 87.40531731 C-137.90302021 85.45797405 -137.91902741 83.51065674 -137.9357605 81.56338501 C-137.89546323 69.85134513 -136.51458259 57.85970184 -130.8125 47.4375 C-130.46251953 46.77105469 -130.11253906 46.10460938 -129.75195312 45.41796875 C-126.88112718 40.09162622 -123.63060176 35.30549239 -119.5625 30.8125 C-118.98242188 30.14089844 -118.40234375 29.46929688 -117.8046875 28.77734375 C-91.34600643 0.04919422 -36.15415402 2.13680364 0 0 Z M-113.5625 39.8125 C-121.72906156 49.31513505 -126.69379365 61.26903797 -126.68275452 73.84260559 C-126.68412918 75.05270294 -126.68550385 76.26280029 -126.68692017 77.50956726 C-126.68332489 78.82874649 -126.67972961 80.14792572 -126.67602539 81.50708008 C-126.67574318 82.91666665 -126.67590192 84.32625336 -126.6764679 85.73583984 C-126.67675454 89.55568279 -126.67087923 93.37549427 -126.66389394 97.1953299 C-126.65763834 101.18984457 -126.65705485 105.18435998 -126.65586853 109.17887878 C-126.65276173 116.74002824 -126.6445571 124.30116321 -126.63451904 131.8623063 C-126.62333771 140.47168813 -126.61784236 149.08107065 -126.61282361 157.69045794 C-126.60237395 175.3978135 -126.5847871 193.10515558 -126.5625 210.8125 C-125.95168919 210.81309709 -125.34087839 210.81369418 -124.71155816 210.81430936 C-88.47808675 210.85023419 -52.24470275 210.90692053 -16.01130863 210.99042095 C-11.6568721 211.00043793 -7.30243521 211.01028214 -2.94799805 211.02001953 C-2.08113918 211.0219609 -1.21428032 211.02390228 -0.32115301 211.02590248 C13.69918998 211.0568901 27.71951661 211.07389408 41.73988738 211.08569422 C56.13522466 211.09812258 70.53047637 211.12566195 84.92575961 211.16711307 C93.80232816 211.19220031 102.67875472 211.20562077 111.55535922 211.20392957 C117.64943674 211.20389973 123.74337006 211.21860024 129.83739134 211.24466428 C133.34887911 211.25925472 136.8600712 211.26756136 140.37158394 211.25830269 C144.19027095 211.25164154 148.00810475 211.26963631 151.82670593 211.29351807 C152.92110495 211.28575765 154.01550396 211.27799723 155.14306659 211.27000165 C168.93993925 211.42193342 181.33685825 216.08864878 191.625 225.3125 C197.83902165 231.81701453 203.52716277 242.18413889 203.59140015 251.22384644 C203.60000061 252.12632614 203.60860107 253.02880585 203.61746216 253.95863342 C203.62385208 255.44066505 203.62385208 255.44066505 203.63037109 256.95263672 C203.63854858 257.99533218 203.64672607 259.03802765 203.65515137 260.11231995 C203.68001351 263.57226998 203.69652894 267.03217878 203.7109375 270.4921875 C203.71626118 271.67575962 203.72158485 272.85933174 203.72706985 274.07876968 C203.75381263 280.35068362 203.77317876 286.62257763 203.78759766 292.89453125 C203.80090536 298.07212108 203.82869855 303.24931386 203.86962891 308.42675781 C203.91911989 314.68725322 203.94373995 320.94739 203.95082474 327.20807266 C203.95751237 329.58653805 203.97266893 331.96499623 203.99671555 334.34334946 C204.16578955 352.08679305 203.11359945 365.45585238 190.4765625 378.8984375 C184.83315533 384.37885818 178.84936841 387.31607435 171.4375 389.8125 C170.46600226 390.15754263 169.49450453 390.50258526 168.49356747 390.85808372 C163.26007639 392.32747289 157.9441991 392.10036222 152.54823303 392.0909729 C150.75679097 392.0996615 150.75679097 392.0996615 148.92915815 392.10852563 C145.62705317 392.12255888 142.32515073 392.12775361 139.02303064 392.12917423 C135.45731536 392.13287679 131.89164636 392.14803652 128.32595825 392.16178894 C122.15243581 392.18403876 115.97892988 392.19906573 109.80537605 392.20915604 C100.87951244 392.22375532 91.95370636 392.24929566 83.02787655 392.27748732 C68.54553646 392.3229326 54.06318809 392.35955677 39.58081055 392.390625 C25.51438948 392.42081981 11.4479887 392.45517437 -2.6184082 392.49511719 C-3.91947318 392.49880951 -3.91947318 392.49880951 -5.24682229 392.50257643 C-9.59829278 392.51495121 -13.94976303 392.52740771 -18.30123317 392.53990483 C-54.38829412 392.64343873 -90.47537925 392.73265317 -126.5625 392.8125 C-126.60900176 401.52314447 -126.64445937 410.23374569 -126.66612434 418.94448757 C-126.67652656 422.98997342 -126.69062006 427.03537385 -126.71337891 431.08081055 C-126.73523515 434.99062493 -126.74709537 438.90035755 -126.75225449 442.81022835 C-126.75592743 444.29603422 -126.76309931 445.78183602 -126.77396011 447.26760674 C-126.85157548 458.3334902 -126.0870619 467.76203363 -121 477.75 C-120.64848877 478.4409375 -120.29697754 479.131875 -119.93481445 479.84375 C-112.61568716 493.66500075 -100.22875878 503.53510144 -85.5625 508.8125 C-79.25101353 510.69099416 -73.57192694 511.10110468 -67.00715637 511.07992554 C-65.96818748 511.08445665 -64.92921858 511.08898776 -63.85876578 511.09365618 C-60.38992903 511.10627971 -56.9212497 511.10468111 -53.45239258 511.10302734 C-50.96001993 511.1090139 -48.46764913 511.11581974 -45.97528076 511.12338257 C-39.91468975 511.13920506 -33.85416023 511.14549046 -27.79355428 511.14660732 C-22.86345429 511.14755967 -17.93336706 511.15167924 -13.0032711 511.15800858 C0.99468632 511.17561181 14.99261314 511.18484902 28.99058171 511.18334763 C29.74432696 511.18326772 30.4980722 511.1831878 31.2746582 511.18310547 C32.02933092 511.18302371 32.78400364 511.18294195 33.56154523 511.18285771 C45.78374209 511.18204533 58.00581557 511.20117322 70.22797676 511.2293822 C82.79742951 511.25816225 95.36682218 511.27191965 107.93630868 511.27019465 C114.98511584 511.26953246 122.03379368 511.27494938 129.08257103 511.29655075 C135.71547221 511.31674836 142.3481479 511.31603667 148.9810791 511.30151749 C151.40897839 511.29943198 153.83689487 511.30411474 156.26476479 511.3162384 C176.96472407 511.41287023 193.48200628 509.0148736 209.15234375 494.1640625 C221.65327593 481.29985536 226.93687072 467.03608098 226.79826355 449.21443176 C226.80082682 447.99221804 226.8033901 446.77000431 226.80603105 445.51075381 C226.81009211 442.14913973 226.80081664 438.7880593 226.78569686 435.42651021 C226.77266453 431.7899968 226.77713102 428.153498 226.77940369 424.51696777 C226.7809719 418.22669948 226.77161017 411.93652499 226.75469017 405.64628029 C226.73024315 396.55181131 226.72248908 387.45738741 226.7187262 378.36288913 C226.71217063 363.60542581 226.69223383 348.84801241 226.66381836 334.09057617 C226.63625458 319.76050058 226.61503236 305.43043857 226.60229492 291.1003418 C226.60150675 290.21609407 226.60071858 289.33184634 226.59990653 288.42080323 C226.59599123 283.98451113 226.59220015 279.54821893 226.58847082 275.11192667 C226.5574028 238.34541588 226.50459146 201.57896184 226.4375 164.8125 C225.83857752 164.81103344 225.23965504 164.80956688 224.62258339 164.80805588 C210.01484163 164.77092118 195.40730127 164.71181855 180.79975319 164.62859726 C173.73547638 164.58887471 166.67130987 164.55644797 159.60693359 164.54150391 C152.78570319 164.52705333 145.96482724 164.4918647 139.14374924 164.44419098 C136.5451696 164.42938703 133.94654113 164.42145956 131.34791946 164.42061615 C127.69983983 164.41824193 124.05270179 164.39112283 120.40478516 164.35839844 C119.33735077 164.3634288 118.26991638 164.36845917 117.1701355 164.37364197 C107.14895514 164.23513565 99.8525492 161.48604428 92.4375 154.8125 C91.7775 154.8125 91.1175 154.8125 90.4375 154.8125 C90.17095675 154.26545033 89.90441349 153.71840065 89.62979317 153.15477371 C88.78275378 151.49075505 87.88613077 149.85157123 86.9568615 148.23203659 C82.83129907 140.74651549 81.56847125 134.91712232 81.66455078 126.43457031 C81.65392105 125.26238953 81.64329132 124.09020874 81.63233948 122.88250732 C81.60448732 119.0514318 81.61829685 115.22175369 81.6328125 111.390625 C81.62155206 108.71729555 81.60795802 106.04407913 81.59127808 103.37078857 C81.55710463 97.0812157 81.55297526 90.79200724 81.56000316 84.50236011 C81.56652286 77.33403158 81.53899659 70.16595532 81.50880075 62.99770212 C81.44751107 48.26930163 81.4283575 33.54102951 81.4375 18.8125 C61.17451453 18.74228746 40.9115539 18.68945197 20.64847183 18.65706348 C11.23907647 18.6416224 1.82975687 18.62058587 -7.57958984 18.58618164 C-15.78481514 18.55619456 -23.98998553 18.53690496 -32.1952641 18.53023452 C-36.53623839 18.52633797 -40.87705567 18.51723863 -45.21797943 18.49530983 C-49.31210459 18.47479727 -53.40600953 18.46869572 -57.5001812 18.47317696 C-58.99483122 18.47235831 -60.48948937 18.46648118 -61.98409462 18.45488358 C-82.82108917 18.30126204 -99.33625195 24.54892137 -113.5625 39.8125 Z M-153.5625 225.8125 C-155.109375 226.67875 -155.109375 226.67875 -156.6875 227.5625 C-163.94841543 233.24495555 -168.65923321 240.10269963 -171.5625 248.8125 C-171.6590866 250.24930714 -171.7016364 251.69011472 -171.70967102 253.13014221 C-171.71682632 254.01171494 -171.72398163 254.89328766 -171.73135376 255.80157471 C-171.73404266 256.76625671 -171.73673157 257.73093872 -171.73950195 258.72485352 C-171.74607315 259.74310715 -171.75264435 260.76136078 -171.75941467 261.81047058 C-171.77915771 265.18744988 -171.79081451 268.56438461 -171.80078125 271.94140625 C-171.80485678 273.09562513 -171.8089323 274.24984402 -171.81313133 275.43903923 C-171.8339995 281.55188697 -171.84829623 287.66471223 -171.85766602 293.77758789 C-171.86871288 300.08007565 -171.90309116 306.38220864 -171.94283772 312.68457127 C-171.96903782 317.5394708 -171.97736105 322.3942864 -171.98094749 327.24925041 C-171.98580712 329.57156702 -171.99740317 331.89388004 -172.01598549 334.2161274 C-172.04044117 337.47582832 -172.03939943 340.7346194 -172.0324707 343.99438477 C-172.04528076 344.94489716 -172.05809082 345.89540955 -172.07128906 346.87472534 C-171.9903104 357.38580232 -168.26404179 365.01368326 -161.0625 372.546875 C-151.30301495 381.39140832 -141.95116329 383.11472765 -129.20903015 383.07319641 C-127.96462137 383.07702196 -126.72021258 383.08084751 -125.43809444 383.08478898 C-121.99566257 383.09330766 -118.55344487 383.09289089 -115.11101925 383.08860838 C-111.39379516 383.0861385 -107.67659602 383.09515863 -103.9593811 383.10264587 C-96.68111876 383.11538806 -89.40289333 383.11718713 -82.12462171 383.11484561 C-76.20715444 383.11306159 -70.28969837 383.1148139 -64.37223244 383.11907005 C-63.52958292 383.11966524 -62.6869334 383.12026043 -61.81874904 383.12087366 C-60.10681209 383.12208543 -58.39487514 383.12329956 -56.6829382 383.12451603 C-40.63180981 383.13538993 -24.58070245 383.13322992 -8.52957288 383.12713119 C6.14550127 383.12196336 20.82050902 383.1332142 35.49557004 383.15222941 C50.57247167 383.17161515 65.6493419 383.17986244 80.72625607 383.17610615 C89.18732621 383.17419507 97.64833984 383.1766725 106.1093998 383.19082069 C113.31325151 383.20274492 120.51701194 383.20412779 127.72086493 383.19203053 C131.39402009 383.18614885 135.06700839 383.18502252 138.74015236 383.19703293 C142.72792636 383.20992018 146.71530462 383.19941028 150.70307922 383.1867218 C151.8559152 383.19409609 153.00875118 383.20147037 154.19652158 383.20906812 C166.36014179 383.12775525 175.60742181 380.03599931 184.63671875 371.80859375 C192.57126408 363.61005246 195.05315771 354.3074486 194.95507812 343.08374023 C194.9620874 342.07407196 194.96909668 341.06440369 194.97631836 340.0241394 C194.99376706 336.72283533 194.98232299 333.42240487 194.96875 330.12109375 C194.97144846 327.80664406 194.97533383 325.49219547 194.98034668 323.17774963 C194.9862238 318.34210346 194.97773544 313.50675408 194.95898438 308.67114258 C194.93618354 302.49211502 194.9493371 296.31378212 194.97327423 290.13477993 C194.98776944 285.36048708 194.9831093 280.58635732 194.97276306 275.8120594 C194.97010675 273.53442361 194.97332671 271.25677271 194.98268127 268.97915459 C194.99290953 265.78966238 194.97725801 262.6012757 194.95507812 259.41186523 C194.96722351 258.0189753 194.96722351 258.0189753 194.97961426 256.59794617 C194.84481723 246.06524346 191.01385998 238.53998575 183.8046875 231.01171875 C174.700755 222.55377486 165.89511287 221.51355279 153.84951782 221.54507446 C152.57990216 221.54054335 151.31028649 221.53601224 150.00219762 221.53134382 C146.48947281 221.51914093 142.97684343 221.51937106 139.46410227 221.52173257 C135.67122851 221.52214142 131.87838507 221.51109519 128.08552551 221.50161743 C120.65921165 221.48502196 113.23292954 221.47950857 105.80659868 221.47839268 C99.76946182 221.47744163 93.73233542 221.4733285 87.69520187 221.46699142 C70.57217324 221.44938391 53.44916965 221.44015193 36.3261319 221.44165237 C34.94218196 221.44177224 34.94218196 221.44177224 33.53027344 221.44189453 C32.60651155 221.44197629 31.68274966 221.44205805 30.73099498 221.44214229 C15.75776834 221.44295532 0.78464227 221.42381212 -14.18855529 221.3956178 C-29.56942631 221.3668847 -44.95024829 221.3530777 -60.33114684 221.35480535 C-68.96379255 221.35546905 -77.5963328 221.34998553 -86.22895432 221.32844925 C-93.57814472 221.31023197 -100.92718184 221.30589467 -108.27638505 221.3194681 C-112.02439918 221.32599469 -115.77211927 221.32612634 -119.52010536 221.3087616 C-123.58714255 221.29011274 -127.65349999 221.30259306 -131.72055054 221.31802368 C-132.89964505 221.30773656 -134.07873955 221.29744943 -135.2935642 221.28685057 C-142.28512507 221.34547329 -147.4571429 222.36689387 -153.5625 225.8125 Z " fill="#070505" transform="translate(228.5625,-8.8125)"/>
<path d="M0 0 C6.95061487 5.6917231 13.20587533 12.06500757 19.54467773 18.4152832 C20.80657137 19.67582024 22.0686773 20.93614479 23.33097839 22.1962738 C26.74188213 25.60263675 30.14963715 29.01213321 33.55668139 32.42235589 C37.12393954 35.99215164 40.69364342 39.55950038 44.26295471 43.12724304 C50.24896124 49.11143339 56.23286267 55.09772264 62.21557617 61.08520508 C69.14104222 68.01612761 76.07012354 74.94342017 83.00106472 81.86886722 C88.95203946 87.8153129 94.90107449 93.76369385 100.84847409 99.71371526 C104.40090644 103.26770961 107.95401817 106.82101767 111.50887871 110.37258339 C114.84439945 113.70522792 118.17748828 117.04028527 121.5086689 120.37726784 C122.73495618 121.60488343 123.96210642 122.83163765 125.19015503 124.0574913 C126.85832489 125.72295281 128.52342248 127.39142431 130.18772888 129.06074524 C130.68099543 129.55178106 131.17426197 130.04281688 131.68247598 130.54873258 C135 133.88584919 135 133.88584919 135 135 C120.04829398 135.11707464 105.09662364 135.20510582 90.14455605 135.25906086 C83.2011948 135.284785 76.25811923 135.31982341 69.31494141 135.37719727 C62.61054955 135.4325713 55.90651531 135.46144781 49.20188522 135.47438622 C46.64788527 135.48360308 44.09390097 135.5016015 41.54002762 135.52865028 C37.95422966 135.56510765 34.36964579 135.56993809 30.78369141 135.56762695 C29.7349585 135.58560333 28.68622559 135.60357971 27.60571289 135.62210083 C19.3506919 135.56477605 12.94400458 133.28034996 6.5625 127.97265625 C6.046875 127.34230469 5.53125 126.71195312 5 126.0625 C4.46375 125.43472656 3.9275 124.80695313 3.375 124.16015625 C-0.55554813 117.98517581 -0.27483455 111.7351796 -0.22705078 104.67041016 C-0.22734283 103.53811981 -0.22763489 102.40582947 -0.22793579 101.23922729 C-0.22654518 97.50576042 -0.21099634 93.77249441 -0.1953125 90.0390625 C-0.19158142 87.44689035 -0.1887349 84.85471679 -0.18673706 82.26254272 C-0.17988738 76.1428255 -0.16413287 70.02319088 -0.14403808 63.90350473 C-0.12165078 56.93373808 -0.11067855 49.96396792 -0.10064721 42.99417424 C-0.07976577 28.66274433 -0.0446075 14.33137472 0 0 Z " fill="#F05541" transform="translate(320,11)"/>
<path d="M0 0 C41.93946188 0 41.93946188 0 51 9 C52.95655137 11.53903613 54.57385171 14.13112031 56 17 C56.36609375 17.69609375 56.7321875 18.3921875 57.109375 19.109375 C59.93775336 28.2891995 59.71396151 42.40850704 55.3203125 50.99609375 C49.80827649 59.36199456 44.39565709 62.8681143 35 66 C33.44578271 66.08106686 31.88832973 66.10756898 30.33203125 66.09765625 C29.52741455 66.09515869 28.72279785 66.09266113 27.89379883 66.09008789 C26.36855591 66.07643188 26.36855591 66.07643188 24.8125 66.0625 C19.9553125 66.0315625 19.9553125 66.0315625 15 66 C15 77.88 15 89.76 15 102 C10.05 102 5.1 102 0 102 C0 68.34 0 34.68 0 0 Z " fill="#FEFAF9" transform="translate(180,242)"/>
<path d="M0 0 C40.99526066 0 40.99526066 0 50 8 C55.66993248 15.51800361 58.38628464 22.81505246 58.3125 32.25 C58.30404053 33.37716431 58.30404053 33.37716431 58.29541016 34.52709961 C58.08636912 44.13160376 55.91554524 52.02229256 49 59 C41.34514191 65.00470904 34.14957981 66.30026095 24.625 66.125 C21.44875 66.08375 18.2725 66.0425 15 66 C15 77.88 15 89.76 15 102 C10.05 102 5.1 102 0 102 C0 68.34 0 34.68 0 0 Z " fill="#FEFBFB" transform="translate(110,242)"/>
<path d="M0 0 C5.28 0 10.56 0 16 0 C19.52236957 6.9070977 22.77273591 13.86844032 25.8125 21 C26.42254883 22.40958984 26.42254883 22.40958984 27.04492188 23.84765625 C27.62016602 25.19150391 27.62016602 25.19150391 28.20703125 26.5625 C28.5522583 27.36816406 28.89748535 28.17382812 29.25317383 29.00390625 C30 31 30 31 30 33 C30.66 33 31.32 33 32 33 C32.38800781 31.77410156 32.77601563 30.54820312 33.17578125 29.28515625 C35.20197863 23.20656411 37.69486296 17.33662246 40.1875 11.4375 C40.65091797 10.33341797 41.11433594 9.22933594 41.59179688 8.09179688 C42.72493267 5.39329823 43.86205756 2.69647524 45 0 C50.28 0 55.56 0 61 0 C60.27495419 3.62522906 59.78241629 5.81761427 58.26586914 8.9765625 C57.91202652 9.72083496 57.5581839 10.46510742 57.19361877 11.23193359 C56.81132614 12.02164551 56.42903351 12.81135742 56.03515625 13.625 C55.64178574 14.4495166 55.24841522 15.2740332 54.84312439 16.12353516 C53.58818805 18.75158424 52.32569203 21.37591048 51.0625 24 C49.80429047 26.62474013 48.54768096 29.2502334 47.29258728 31.87646484 C46.51229315 33.50801702 45.72996274 35.13859735 44.94532776 36.76806641 C43.95152385 38.83997591 42.97258102 40.91806503 42 43 C41.56486084 43.92039062 41.12972168 44.84078125 40.68139648 45.7890625 C39.21166774 50.55791363 42.1507966 54.7745106 44.1328125 59.08203125 C44.44773651 59.77326584 44.76266052 60.46450043 45.08712769 61.17668152 C46.09658381 63.3900834 47.11078709 65.60127438 48.125 67.8125 C48.78415107 69.25702601 49.44300795 70.70168631 50.1015625 72.14648438 C52.72506724 77.89363856 55.34985656 83.63921305 58.05371094 89.34912109 C58.37975311 90.03946945 58.70579529 90.72981781 59.04171753 91.44108582 C59.66159539 92.7507507 60.28475537 94.05886866 60.91165161 95.3651886 C63 99.77875133 63 99.77875133 63 102 C57.72 102 52.44 102 47 102 C43.39634281 95.04150956 40.30548167 87.90116342 37.25 80.6875 C36.74339844 79.50865234 36.23679687 78.32980469 35.71484375 77.11523438 C35.23660156 75.98794922 34.75835937 74.86066406 34.265625 73.69921875 C33.83024414 72.67658936 33.39486328 71.65395996 32.94628906 70.6003418 C32 68 32 68 32 65 C31.34 65 30.68 65 30 65 C29.63261719 66.18464844 29.26523437 67.36929688 28.88671875 68.58984375 C26.61165971 75.41502088 23.6760512 81.96971179 20.8125 88.5625 C20.24770722 89.87029608 19.68325152 91.17823778 19.11914062 92.48632812 C17.75058442 95.65952966 16.37517731 98.82962998 15 102 C9.72 102 4.44 102 -1 102 C1.57573703 93.30446671 5.48429813 85.28648675 9.375 77.125 C10.04215502 75.71767932 10.70882487 74.31012854 11.375 72.90234375 C11.70091125 72.2142865 12.02682251 71.52622925 12.36260986 70.81732178 C13.00712999 69.45355163 13.64969584 68.08885604 14.29022217 66.72320557 C15.70592906 63.70783617 17.1436239 60.7192537 18.66113281 57.75292969 C19.13647461 56.80063477 19.61181641 55.84833984 20.1015625 54.8671875 C20.52002441 54.0613623 20.93848633 53.25553711 21.36962891 52.42529297 C22.81393118 46.868477 18.56863686 40.73011947 16.19140625 35.75 C15.8240184 34.97366211 15.45663055 34.19732422 15.07810974 33.39746094 C13.90943309 30.93011171 12.73596606 28.46507437 11.5625 26 C10.77769526 24.34389191 9.99318713 22.68764323 9.20898438 21.03125 C5.32120232 12.77613317 5.32120232 12.77613317 1.25366211 4.609375 C0 2 0 2 0 0 Z " fill="#FEFBFA" transform="translate(307,242)"/>
<path d="M0 0 C18.81 0 37.62 0 57 0 C57 4.62 57 9.24 57 14 C50.07 14 43.14 14 36 14 C36 43.04 36 72.08 36 102 C31.05 102 26.1 102 21 102 C21 72.96 21 43.92 21 14 C14.07 14 7.14 14 0 14 C0 9.38 0 4.76 0 0 Z " fill="#FEFBFA" transform="translate(244,242)"/>
<path d="M0 0 C17 0 17 0 23 3 C27.6324806 8.13328931 28.20456533 11.49159336 28.25 18.25 C28.270625 19.00152344 28.29125 19.75304687 28.3125 20.52734375 C28.3467763 25.43742317 27.69687213 28.74009509 25 33 C16.48788327 40.68166632 14.97648949 38 0 38 C0 25.46 0 12.92 0 0 Z " fill="#F15844" transform="translate(195,256)"/>
<path d="M0 0 C19.42168675 0 19.42168675 0 24 4 C28.87708622 9.48672199 28.59474241 15.24152254 28.3828125 22.390625 C27.9044122 26.90125642 27.08822092 30.58974535 24 34 C18 38 18 38 0 38 C0 25.46 0 12.92 0 0 Z " fill="#F15743" transform="translate(125,256)"/>
</svg>
