<?xml version="1.0" encoding="UTF-8"?>
<svg version="1.1" xmlns="http://www.w3.org/2000/svg" width="512" height="512">
<path d="M0 0 C1.51427582 0.00081573 1.51427582 0.00081573 3.05914307 0.00164795 C19.56873539 0.04241399 35.48532001 0.94970691 51.6875 4.375 C52.72938477 4.59462402 53.77126953 4.81424805 54.84472656 5.04052734 C101.13799311 15.13814785 143.55163721 37.49728758 177.6875 70.375 C178.6765332 71.32318604 178.6765332 71.32318604 179.68554688 72.29052734 C189.17380305 81.43497479 197.9137044 90.73234009 205.6875 101.375 C206.54556152 102.52605017 207.40363451 103.67709177 208.26171875 104.828125 C214.29927396 113.01775981 219.68207302 121.52038276 224.6875 130.375 C225.0896875 131.08221191 225.491875 131.78942383 225.90625 132.51806641 C244.56283296 165.65536435 256.69643709 205.08231306 256.890625 243.2890625 C256.89763931 244.21325989 256.90465363 245.13745728 256.91188049 246.08966064 C256.92930898 249.05982375 256.93573376 252.02978762 256.9375 255 C256.93851212 256.5203183 256.93851212 256.5203183 256.93954468 258.0713501 C256.92401835 272.72327036 256.5194623 286.95927133 253.6875 301.375 C253.52652832 302.27057617 253.36555664 303.16615234 253.19970703 304.08886719 C245.31047508 347.69563051 225.62100867 388.83356217 196.6875 422.375 C196.05328125 423.12007813 195.4190625 423.86515625 194.765625 424.6328125 C182.95448485 438.13779833 170.20389772 450.80918743 155.6875 461.375 C154.53755169 462.23149066 153.38781411 463.08826433 152.23828125 463.9453125 C144.04815742 469.98534209 135.54370382 475.36867614 126.6875 480.375 C125.98028809 480.7771875 125.27307617 481.179375 124.54443359 481.59375 C98.39750209 496.3146967 69.37555577 506.01565258 39.6875 510.375 C38.48504639 510.55160156 37.28259277 510.72820312 36.04370117 510.91015625 C24.32724155 512.5141435 12.68847836 512.77463344 0.875 512.75 C-0.11084076 512.74945618 -1.09668152 512.74891235 -2.11239624 512.74835205 C-67.15356613 512.58399544 -129.41192922 487.54694974 -176.3125 442.375 C-176.97185547 441.74287598 -177.63121094 441.11075195 -178.31054688 440.45947266 C-187.79880305 431.31502521 -196.5387044 422.01765991 -204.3125 411.375 C-205.17056152 410.22394983 -206.02863451 409.07290823 -206.88671875 407.921875 C-212.92486829 399.73069386 -218.28345521 391.21695895 -223.3125 382.375 C-223.67698242 381.74319824 -224.04146484 381.11139648 -224.41699219 380.46044922 C-246.02284998 342.71217428 -255.78948095 299.94560003 -255.625 256.75 C-255.62284485 255.73209381 -255.6206897 254.71418762 -255.61846924 253.66543579 C-255.56879854 239.05636477 -255.31790191 224.72424147 -252.3125 210.375 C-252.11382324 209.40014648 -251.91514648 208.42529297 -251.71044922 207.42089844 C-241.58982806 159.0390226 -219.6733123 115.05071731 -185.3125 79.375 C-184.68037598 78.71564453 -184.04825195 78.05628906 -183.39697266 77.37695312 C-174.25252521 67.88869695 -164.95515991 59.1487956 -154.3125 51.375 C-153.16144983 50.51693848 -152.01040823 49.65886549 -150.859375 48.80078125 C-142.66974019 42.76322604 -134.16711724 37.38042698 -125.3125 32.375 C-124.60528809 31.9728125 -123.89807617 31.570625 -123.16943359 31.15625 C-100.03404164 18.1308259 -74.86287591 9.38198539 -48.875 4.0625 C-48.15610596 3.91514404 -47.43721191 3.76778809 -46.6965332 3.6159668 C-31.16987908 0.66484793 -15.76936592 -0.03207988 0 0 Z " fill="#FE0000" transform="translate(255.3125,-0.375)"/>
<path d="M0 0 C114.51 0 229.02 0 347 0 C352.2510188 17.06581111 357.20198259 33.45101928 360 51 C360.18618896 52.16297607 360.37237793 53.32595215 360.56420898 54.52416992 C362.21035009 66.03398268 362.35653832 77.44965545 362.3125 89.0625 C362.30976578 90.55659393 362.30976578 90.55659393 362.30697632 92.08087158 C362.26223998 106.59089228 361.81425315 120.72652905 359 135 C358.83371094 135.91152832 358.66742188 136.82305664 358.49609375 137.76220703 C355.65861562 153.18705341 352.05329477 169.89341046 345 184 C231.15 184 117.3 184 0 184 C0 123.28 0 62.56 0 0 Z " fill="#F3F4F4" transform="translate(150,166)"/>
<path d="M0 0 C1.51427582 0.00081573 1.51427582 0.00081573 3.05914307 0.00164795 C19.56873539 0.04241399 35.48532001 0.94970691 51.6875 4.375 C52.72938477 4.59462402 53.77126953 4.81424805 54.84472656 5.04052734 C101.13799311 15.13814785 143.55163721 37.49728758 177.6875 70.375 C178.6765332 71.32318604 178.6765332 71.32318604 179.68554688 72.29052734 C189.17380305 81.43497479 197.9137044 90.73234009 205.6875 101.375 C206.54556152 102.52605017 207.40363451 103.67709177 208.26171875 104.828125 C240.6875 148.8120386 240.6875 148.8120386 240.6875 166.375 C126.5075 166.375 12.3275 166.375 -105.3125 166.375 C-105.6425 118.855 -105.9725 71.335 -106.3125 22.375 C-79.53270748 11.89595075 -79.53270748 11.89595075 -71.125 9.5625 C-70.14072021 9.28317627 -69.15644043 9.00385254 -68.14233398 8.71606445 C-61.76487224 6.9475419 -55.35858521 5.38963181 -48.875 4.0625 C-48.15610596 3.91514404 -47.43721191 3.76778809 -46.6965332 3.6159668 C-31.16987908 0.66484793 -15.76936592 -0.03207988 0 0 Z " fill="#00722E" transform="translate(255.3125,-0.375)"/>
<path d="M0 0 C113.85 0 227.7 0 345 0 C336.73095648 20.08196284 336.73095648 20.08196284 333.4375 26.25 C333.02749756 27.02174561 332.61749512 27.79349121 332.19506836 28.58862305 C321.37031468 48.46883347 307.68371013 66.71611229 292 83 C291.36787598 83.65935547 290.73575195 84.31871094 290.08447266 84.99804688 C280.94002521 94.48630305 271.64265991 103.2262044 261 111 C259.84894983 111.85806152 258.69790823 112.71613451 257.546875 113.57421875 C249.35724019 119.61177396 240.85461724 124.99457302 232 130 C230.93918213 130.60328125 230.93918213 130.60328125 229.85693359 131.21875 C203.71000209 145.9396967 174.68805577 155.64065258 145 160 C143.19631958 160.26490234 143.19631958 160.26490234 141.35620117 160.53515625 C129.63974155 162.1391435 118.00097836 162.39963344 106.1875 162.375 C105.20165924 162.37445618 104.21581848 162.37391235 103.20010376 162.37335205 C66.43437209 162.28044642 32.84591794 154.10246581 -1 140 C-0.67 93.8 -0.34 47.6 0 0 Z " fill="#272727" transform="translate(150,350)"/>
</svg>
