<?xml version="1.0" encoding="UTF-8"?>
<svg version="1.1" xmlns="http://www.w3.org/2000/svg" width="512" height="512">
<path d="M0 0 C0.54769043 0.39896484 1.09538086 0.79792969 1.65966797 1.20898438 C18.94336192 13.92224933 34.70623051 28.12617583 48 45 C48.98033203 46.17949219 48.98033203 46.17949219 49.98046875 47.3828125 C88.86188284 94.41302595 106.61466321 158.6226005 101 219 C95.39009118 271.03348015 75.12861694 321.28918773 38.546875 359.3359375 C36.51555274 361.4607255 34.61090591 363.6038944 32.75 365.875 C30.21269458 368.8716452 27.4220575 371.4078318 24.42578125 373.94140625 C22.60779763 375.48420394 20.81794681 377.06025643 19.04296875 378.65234375 C5.05944546 391.11927936 -10.46291444 401.25746432 -27 410 C-27.91966553 410.49959229 -27.91966553 410.49959229 -28.85791016 411.00927734 C-53.9631304 424.61926339 -81.7366797 432.49999783 -110 436 C-110.70012207 436.0942627 -111.40024414 436.18852539 -112.12158203 436.28564453 C-173.144335 443.57603113 -237.56702675 425.75014253 -286 388 C-290.80514881 384.15412312 -295.42639421 380.11664488 -300 376 C-300.56734863 375.49436523 -301.13469727 374.98873047 -301.71923828 374.46777344 C-308.93582859 368.02256236 -315.75728918 361.41255442 -322 354 C-322.66201416 353.22245361 -322.66201416 353.22245361 -323.33740234 352.42919922 C-358.01424393 311.4518002 -378.66323848 258.76106123 -380 205 C-380.03996094 203.79730469 -380.07992188 202.59460938 -380.12109375 201.35546875 C-381.30227427 133.88921648 -354.44905383 73.65832776 -308.46484375 25.3359375 C-302.66820022 19.40149738 -296.51906804 14.12212489 -290 9 C-289.00226563 8.19691406 -288.00453125 7.39382812 -286.9765625 6.56640625 C-207.66257896 -56.65183215 -88.80418793 -60.99332163 0 0 Z " fill="#1A856B" transform="translate(395,59)"/>
<path d="M0 0 C20.53069919 15.84605267 34.2125104 37.64179356 38.8828125 63.21875 C42.14272788 92.95405293 35.94669804 120.21640951 17.1171875 143.76171875 C14.92583952 146.28118301 12.65975118 148.66837449 10.30078125 151.03125 C9.4809375 151.86269531 8.66109375 152.69414062 7.81640625 153.55078125 C-3.18123307 164.14170314 -16.24794015 171.27888987 -30.69921875 176.03125 C-31.32957031 176.24152832 -31.95992187 176.45180664 -32.609375 176.66845703 C-56.39060006 184.25322654 -83.49041426 181.13312804 -105.65380859 170.05419922 C-124.0976559 160.25197256 -138.43102671 146.22061876 -148.69921875 128.03125 C-149.17230469 127.19851563 -149.64539063 126.36578125 -150.1328125 125.5078125 C-162.16237823 102.94769235 -164.29213539 75.46914297 -157.11328125 51.03710938 C-149.16619293 25.65057724 -131.25137876 3.54072638 -107.69921875 -8.96875 C-98.07782906 -13.69544498 -88.26934268 -17.07341743 -77.69921875 -18.96875 C-76.79300781 -19.15179688 -75.88679688 -19.33484375 -74.953125 -19.5234375 C-48.14667311 -23.19202755 -21.68802521 -15.81876223 0 0 Z " fill="#BF392B" transform="translate(316.69921875,175.96875)"/>
</svg>
