<?xml version="1.0" encoding="UTF-8"?>
<svg version="1.1" xmlns="http://www.w3.org/2000/svg" width="512" height="512">
<path d="M0 0 C1.01790619 0.00215515 2.03581238 0.0043103 3.08456421 0.00653076 C17.69363523 0.05620146 32.02575853 0.30709809 46.375 3.3125 C47.34985352 3.51117676 48.32470703 3.70985352 49.32910156 3.91455078 C97.7109774 14.03517194 141.69928269 35.9516877 177.375 70.3125 C178.3640332 71.26068604 178.3640332 71.26068604 179.37304688 72.22802734 C188.86130305 81.37247479 197.6012044 90.66984009 205.375 101.3125 C206.23306152 102.46355017 207.09113451 103.61459177 207.94921875 104.765625 C213.98736829 112.95680614 219.34595521 121.47054105 224.375 130.3125 C224.73948242 130.94430176 225.10396484 131.57610352 225.47949219 132.22705078 C247.08534998 169.97532572 256.85198095 212.74189997 256.6875 255.9375 C256.68534485 256.95540619 256.6831897 257.97331238 256.68096924 259.02206421 C256.63129854 273.63113523 256.38040191 287.96325853 253.375 302.3125 C253.07698486 303.77478027 253.07698486 303.77478027 252.77294922 305.26660156 C242.65232806 353.6484774 220.7358123 397.63678269 186.375 433.3125 C185.74287598 433.97185547 185.11075195 434.63121094 184.45947266 435.31054688 C175.31502521 444.79880305 166.01765991 453.5387044 155.375 461.3125 C154.22394983 462.17056152 153.07290823 463.02863451 151.921875 463.88671875 C143.73224019 469.92427396 135.22961724 475.30707302 126.375 480.3125 C125.66778809 480.7146875 124.96057617 481.116875 124.23193359 481.53125 C101.09654164 494.5566741 75.92537591 503.30551461 49.9375 508.625 C49.21860596 508.77235596 48.49971191 508.91971191 47.7590332 509.0715332 C33.08339502 511.86090125 18.55831162 512.66142619 3.64770508 512.62817383 C0.70811513 512.6250221 -2.2304558 512.64854926 -5.16992188 512.67382812 C-18.54306192 512.71848737 -31.43916711 511.51301542 -44.625 509.3125 C-46.33055054 509.03031616 -46.33055054 509.03031616 -48.07055664 508.74243164 C-91.33802759 500.97044532 -132.38793216 480.98345309 -165.625 452.3125 C-166.37007813 451.67828125 -167.11515625 451.0440625 -167.8828125 450.390625 C-181.38779833 438.57948485 -194.05918743 425.82889772 -204.625 411.3125 C-205.48149066 410.16255169 -206.33826433 409.01281411 -207.1953125 407.86328125 C-213.23534209 399.67315742 -218.61867614 391.16870382 -223.625 382.3125 C-224.0271875 381.60528809 -224.429375 380.89807617 -224.84375 380.16943359 C-237.8691741 357.03404164 -246.61801461 331.86287591 -251.9375 305.875 C-252.08485596 305.15610596 -252.23221191 304.43721191 -252.3840332 303.6965332 C-255.35789088 288.05024391 -255.99800362 272.57681954 -255.9375 256.6875 C-255.93534485 255.66959381 -255.9331897 254.65168762 -255.93096924 253.60293579 C-255.88129854 238.99386477 -255.63040191 224.66174147 -252.625 210.3125 C-252.42632324 209.33764648 -252.22764648 208.36279297 -252.02294922 207.35839844 C-241.90232806 158.9765226 -219.9858123 114.98821731 -185.625 79.3125 C-184.99287598 78.65314453 -184.36075195 77.99378906 -183.70947266 77.31445312 C-174.56502521 67.82619695 -165.26765991 59.0862956 -154.625 51.3125 C-153.47394983 50.45443848 -152.32290823 49.59636549 -151.171875 48.73828125 C-142.98224019 42.70072604 -134.47961724 37.31792698 -125.625 32.3125 C-124.91778809 31.9103125 -124.21057617 31.508125 -123.48193359 31.09375 C-100.34654164 18.0683259 -75.17537591 9.31948539 -49.1875 4 C-48.46860596 3.85264404 -47.74971191 3.70528809 -47.0090332 3.5534668 C-31.36274391 0.57960912 -15.88931954 -0.06050362 0 0 Z " fill="#EFEFEF" transform="translate(255.625,-0.3125)"/>
<path d="M0 0 C18.35022486 15.38394445 32.80547122 35.73377762 35 60.3125 C35 63.9425 35 67.5725 35 71.3125 C-23.74 71.3125 -82.48 71.3125 -143 71.3125 C-143 49.0137713 -136.01393876 29.05065434 -121 12.3125 C-120.18789062 11.40628906 -119.37578125 10.50007813 -118.5390625 9.56640625 C-87.80938636 -22.92053876 -35.54635791 -27.35620961 0 0 Z " fill="#D80027" transform="translate(310,184.6875)"/>
<path d="M0 0 C58.74 0 117.48 0 178 0 C178 23.23946169 170.21262268 44.53127757 153.77734375 61.25390625 C152.86082031 62.16011719 151.94429687 63.06632812 151 64 C150.19691406 64.81339844 149.39382813 65.62679687 148.56640625 66.46484375 C130.5239475 83.79626964 107.05041261 89.66185108 82.6640625 89.1796875 C58.80154751 88.4123736 37.996028 75.75908588 21.671875 59.04296875 C11.18949182 47.49797746 3.48275169 31.56536708 0.875 16.25 C0.70742187 15.30640625 0.53984375 14.3628125 0.3671875 13.390625 C-0.11356228 8.95136103 0 4.46521947 0 0 Z " fill="#0052B4" transform="translate(167,256)"/>
<path d="M0 0 C1.48046875 1.50390625 1.48046875 1.50390625 3.1875 3.5625 C6.60201725 7.58675247 10.21845349 11.32190005 14 15 C12.37641304 19.09620634 9.43319604 21.83447899 6.35693359 24.87011719 C5.78118088 25.44616196 5.20542816 26.02220673 4.61222839 26.6157074 C2.71233463 28.51421037 0.80546009 30.40553522 -1.1015625 32.296875 C-2.42193434 33.61351582 -3.74186464 34.93059957 -5.06137085 36.24810791 C-8.53234276 39.71145037 -12.0092793 43.16874418 -15.48748779 46.62481689 C-19.03694385 50.1537998 -22.58073201 53.6884642 -26.125 57.22265625 C-33.07779463 64.15401308 -40.03690309 71.07899377 -47 78 C-50.9717011 76.17738456 -53.63426823 73.56017582 -56.625 70.4375 C-59.96402902 66.77285984 -59.96402902 66.77285984 -64 64 C-62.36862306 59.87467721 -59.38511914 57.10362738 -56.296875 54.03808594 C-55.42343445 53.15938843 -55.42343445 53.15938843 -54.53234863 52.26293945 C-52.6098942 50.33169543 -50.68023189 48.40784337 -48.75 46.484375 C-47.41214187 45.14516979 -46.07458076 43.80566779 -44.73730469 42.46588135 C-41.93618463 39.66181409 -39.13148185 36.86139336 -36.32421875 34.06347656 C-32.71912923 30.46980329 -29.12312101 26.86719749 -25.52972412 23.26183701 C-22.77105754 20.49595976 -20.00766543 17.73484361 -17.24279785 14.97516632 C-15.91439817 13.64810419 -14.58749189 12.31954547 -13.26208496 10.98949432 C-11.41388198 9.1362368 -9.55943234 7.28947076 -7.703125 5.44433594 C-7.15241333 4.88957581 -6.60170166 4.33481567 -6.03430176 3.76324463 C-2.22853116 0 -2.22853116 0 0 0 Z " fill="#040404" transform="translate(139,75)"/>
<path d="M0 0 C7.10512006 5.80138692 13.4701862 12.34389677 19.93359375 18.8359375 C21.17890345 20.0831151 22.42443621 21.33007001 23.67018127 22.57681274 C26.92905366 25.83948105 30.18491018 29.10514251 33.44012451 32.37145996 C36.77009779 35.71171062 40.10294673 39.04908931 43.43554688 42.38671875 C49.95983139 48.92168893 56.48092996 55.45982831 63 62 C61.65272739 64.79570164 60.40293767 66.83967803 58.1796875 69.015625 C57.37724609 69.80839844 57.37724609 69.80839844 56.55859375 70.6171875 C56.00300781 71.15601563 55.44742188 71.69484375 54.875 72.25 C54.31167969 72.80429688 53.74835938 73.35859375 53.16796875 73.9296875 C51.78313972 75.29104485 50.39216796 76.64614859 49 78 C44.86374991 76.36934355 42.10043401 73.36776548 39.03808594 70.26513672 C38.15938843 69.38687729 38.15938843 69.38687729 37.26293945 68.49087524 C35.33197161 66.55851644 33.40818053 64.61917484 31.484375 62.6796875 C30.14531389 61.33689544 28.80580991 59.99454487 27.46588135 58.65261841 C23.94335571 55.12246283 20.42687797 51.58634194 16.91162109 48.0489502 C13.32231449 44.43917149 9.72732744 40.83505985 6.1328125 37.23046875 C-0.91703318 30.15918442 -7.96050337 23.08158587 -15 16 C-14.0542569 14.88771028 -13.107228 13.77651377 -12.15966797 12.66577148 C-11.63243134 12.04685532 -11.1051947 11.42793915 -10.5619812 10.79026794 C-8.51461082 8.4436702 -6.34333058 6.24721951 -4.125 4.0625 C-3.34382813 3.29035156 -2.56265625 2.51820312 -1.7578125 1.72265625 C-1.17773438 1.15417969 -0.59765625 0.58570312 0 0 Z " fill="#010101" transform="translate(350,99)"/>
<path d="M0 0 C1.12274285 0.9557394 2.24455228 1.9125754 3.3659668 2.86987305 C3.99077438 3.40259323 4.61558197 3.93531342 5.25932312 4.48417664 C7.20398857 6.17763816 9.02321477 7.95616896 10.8125 9.8125 C13.15387871 12.2469517 13.15387871 12.2469517 16 14 C14.36934355 18.13625009 11.36776548 20.89956599 8.26513672 23.96191406 C7.67963043 24.5477124 7.09412415 25.13351074 6.49087524 25.73706055 C4.55851644 27.66802839 2.61917484 29.59181947 0.6796875 31.515625 C-0.66310456 32.85468611 -2.00545513 34.19419009 -3.34738159 35.53411865 C-6.87753717 39.05664429 -10.41365806 42.57312203 -13.9510498 46.08837891 C-17.56082851 49.67768551 -21.16494015 53.27267256 -24.76953125 56.8671875 C-31.84081558 63.91703318 -38.91841413 70.96050337 -46 78 C-47.11228972 77.0542569 -48.22348623 76.107228 -49.33422852 75.15966797 C-49.95314468 74.63243134 -50.57206085 74.1051947 -51.20973206 73.5619812 C-53.5563298 71.51461082 -55.75278049 69.34333058 -57.9375 67.125 C-58.70964844 66.34382813 -59.48179688 65.56265625 -60.27734375 64.7578125 C-60.84582031 64.17773438 -61.41429688 63.59765625 -62 63 C-56.19861308 55.89487994 -49.65610323 49.5298138 -43.1640625 43.06640625 C-41.9168849 41.82109655 -40.66992999 40.57556379 -39.42318726 39.32981873 C-36.16051895 36.07094634 -32.89485749 32.81508982 -29.62854004 29.55987549 C-26.28828938 26.22990221 -22.95091069 22.89705327 -19.61328125 19.56445312 C-13.07831107 13.04016861 -6.54017169 6.51907004 0 0 Z " fill="#000000" transform="translate(161,99)"/>
<path d="M0 0 C4.09620634 1.62358696 6.83447899 4.56680396 9.87011719 7.64306641 C10.44616196 8.21881912 11.02220673 8.79457184 11.6157074 9.38777161 C13.51421037 11.28766537 15.40553522 13.19453991 17.296875 15.1015625 C18.61351582 16.42193434 19.93059957 17.74186464 21.24810791 19.06137085 C24.71145037 22.53234276 28.16874418 26.0092793 31.62481689 29.48748779 C35.1537998 33.03694385 38.6884642 36.58073201 42.22265625 40.125 C49.15401308 47.07779463 56.07899377 54.03690309 63 61 C61.65272739 63.79570164 60.40293767 65.83967803 58.1796875 68.015625 C57.37724609 68.80839844 57.37724609 68.80839844 56.55859375 69.6171875 C56.00300781 70.15601563 55.44742188 70.69484375 54.875 71.25 C54.31167969 71.80429687 53.74835938 72.35859375 53.16796875 72.9296875 C51.78313972 74.29104485 50.39216796 75.64614859 49 77 C44.90379366 75.37641304 42.16552101 72.43319604 39.12988281 69.35693359 C38.55383804 68.78118088 37.97779327 68.20542816 37.3842926 67.61222839 C35.48578963 65.71233463 33.59446478 63.80546009 31.703125 61.8984375 C30.38648418 60.57806566 29.06940043 59.25813536 27.75189209 57.93862915 C24.28854963 54.46765724 20.83125582 50.9907207 17.37518311 47.51251221 C13.8462002 43.96305615 10.3115358 40.41926799 6.77734375 36.875 C-0.15401308 29.92220537 -7.07899377 22.96309691 -14 16 C-12.65272739 13.20429836 -11.40293767 11.16032197 -9.1796875 8.984375 C-8.64472656 8.45585937 -8.10976562 7.92734375 -7.55859375 7.3828125 C-7.00300781 6.84398437 -6.44742188 6.30515625 -5.875 5.75 C-5.31167969 5.19570313 -4.74835938 4.64140625 -4.16796875 4.0703125 C-2.78313972 2.70895515 -1.39216796 1.35385141 0 0 Z " fill="#000000" transform="translate(90,359)"/>
<path d="M0 0 C4.09620634 1.62358696 6.83447899 4.56680396 9.87011719 7.64306641 C10.44616196 8.21881912 11.02220673 8.79457184 11.6157074 9.38777161 C13.51421037 11.28766537 15.40553522 13.19453991 17.296875 15.1015625 C18.61351582 16.42193434 19.93059957 17.74186464 21.24810791 19.06137085 C24.71145037 22.53234276 28.16874418 26.0092793 31.62481689 29.48748779 C35.1537998 33.03694385 38.6884642 36.58073201 42.22265625 40.125 C49.15401308 47.07779463 56.07899377 54.03690309 63 61 C61.65272739 63.79570164 60.40293767 65.83967803 58.1796875 68.015625 C57.37724609 68.80839844 57.37724609 68.80839844 56.55859375 69.6171875 C56.00300781 70.15601563 55.44742188 70.69484375 54.875 71.25 C54.31167969 71.80429687 53.74835938 72.35859375 53.16796875 72.9296875 C51.78313972 74.29104485 50.39216796 75.64614859 49 77 C44.90379366 75.37641304 42.16552101 72.43319604 39.12988281 69.35693359 C38.55383804 68.78118088 37.97779327 68.20542816 37.3842926 67.61222839 C35.48578963 65.71233463 33.59446478 63.80546009 31.703125 61.8984375 C30.38648418 60.57806566 29.06940043 59.25813536 27.75189209 57.93862915 C24.28854963 54.46765724 20.83125582 50.9907207 17.37518311 47.51251221 C13.8462002 43.96305615 10.3115358 40.41926799 6.77734375 36.875 C-0.15401308 29.92220537 -7.07899377 22.96309691 -14 16 C-12.65272739 13.20429836 -11.40293767 11.16032197 -9.1796875 8.984375 C-8.64472656 8.45585937 -8.10976562 7.92734375 -7.55859375 7.3828125 C-7.00300781 6.84398437 -6.44742188 6.30515625 -5.875 5.75 C-5.31167969 5.19570313 -4.74835938 4.64140625 -4.16796875 4.0703125 C-2.78313972 2.70895515 -1.39216796 1.35385141 0 0 Z " fill="#000000" transform="translate(137,312)"/>
<path d="M0 0 C2.79570164 1.34727261 4.83967803 2.59706233 7.015625 4.8203125 C7.80839844 5.62275391 7.80839844 5.62275391 8.6171875 6.44140625 C9.15601563 6.99699219 9.69484375 7.55257812 10.25 8.125 C10.80429688 8.68832031 11.35859375 9.25164062 11.9296875 9.83203125 C13.29104485 11.21686028 14.64614859 12.60783204 16 14 C14.37641304 18.09620634 11.43319604 20.83447899 8.35693359 23.87011719 C7.78118088 24.44616196 7.20542816 25.02220673 6.61222839 25.6157074 C4.71233463 27.51421037 2.80546009 29.40553522 0.8984375 31.296875 C-0.42193434 32.61351582 -1.74186464 33.93059957 -3.06137085 35.24810791 C-6.53234276 38.71145037 -10.0092793 42.16874418 -13.48748779 45.62481689 C-17.03694385 49.1537998 -20.58073201 52.6884642 -24.125 56.22265625 C-31.07779463 63.15401308 -38.03690309 70.07899377 -45 77 C-47.79570164 75.65272739 -49.83967803 74.40293767 -52.015625 72.1796875 C-52.80839844 71.37724609 -52.80839844 71.37724609 -53.6171875 70.55859375 C-54.15601563 70.00300781 -54.69484375 69.44742188 -55.25 68.875 C-55.80429688 68.31167969 -56.35859375 67.74835938 -56.9296875 67.16796875 C-58.29104485 65.78313972 -59.64614859 64.39216796 -61 63 C-59.37641304 58.90379366 -56.43319604 56.16552101 -53.35693359 53.12988281 C-52.49330452 52.26581566 -52.49330452 52.26581566 -51.61222839 51.3842926 C-49.71233463 49.48578963 -47.80546009 47.59446478 -45.8984375 45.703125 C-44.57806566 44.38648418 -43.25813536 43.06940043 -41.93862915 41.75189209 C-38.46765724 38.28854963 -34.9907207 34.83125582 -31.51251221 31.37518311 C-27.96305615 27.8462002 -24.41926799 24.3115358 -20.875 20.77734375 C-13.92220537 13.84598692 -6.96309691 6.92100623 0 0 Z " fill="#000000" transform="translate(184,123)"/>
<path d="M0 0 C3.00553731 1.33134886 4.8118428 3.29174277 7.11181641 5.63378906 C7.80250214 6.33084206 7.80250214 6.33084206 8.50714111 7.04197693 C9.97111952 8.522701 11.42430181 10.013528 12.87744141 11.50488281 C13.8702359 12.51272945 14.86371811 13.51989914 15.85791016 14.52636719 C18.28910613 16.99057742 20.71073009 19.46395611 23.12744141 21.94238281 C21.1815781 26.17135436 18.49468192 28.97765409 15.25244141 32.25488281 C14.72263672 32.81755859 14.19283203 33.38023437 13.64697266 33.95996094 C12.07275391 35.55566406 12.07275391 35.55566406 9.12744141 37.94238281 C5.01413969 37.81581968 2.89069158 35.04886317 0.14306641 32.25097656 C-0.31739075 31.78627457 -0.7778479 31.32157257 -1.2522583 30.8427887 C-2.71623671 29.36206463 -4.169419 27.87123762 -5.62255859 26.37988281 C-6.61535309 25.37203617 -7.6088353 24.36486648 -8.60302734 23.35839844 C-11.03422332 20.8941882 -13.45584728 18.42080952 -15.87255859 15.94238281 C-13.92669529 11.71341127 -11.23979911 8.90711154 -7.99755859 5.62988281 C-7.46775391 5.06720703 -6.93794922 4.50453125 -6.39208984 3.92480469 C-2.44588361 -0.07525796 -2.44588361 -0.07525796 0 0 Z " fill="#080808" transform="translate(413.87255859375,115.0576171875)"/>
<path d="M0 0 C4.97809315 2.16423849 8.65173655 6.94516416 12.4284668 10.73242188 C13.37270508 11.64830078 14.31694336 12.56417969 15.28979492 13.5078125 C16.62107422 14.83522461 16.62107422 14.83522461 17.97924805 16.18945312 C18.7969165 17.00003174 19.61458496 17.81061035 20.45703125 18.64575195 C22.1159668 20.91992188 22.1159668 20.91992188 22.05834961 23.01342773 C21.00210212 25.15027661 19.88407632 26.49457282 18.17456055 28.15429688 C17.59125977 28.72792969 17.00795898 29.3015625 16.40698242 29.89257812 C15.79532227 30.47910156 15.18366211 31.065625 14.5534668 31.66992188 C13.93793945 32.27191406 13.32241211 32.87390625 12.68823242 33.49414062 C11.17081867 34.97626568 9.64426083 36.44901857 8.1159668 37.91992188 C4.44844675 36.38074177 2.13016107 34.16506736 -0.6496582 31.34960938 C-1.53911133 30.45371094 -2.42856445 29.5578125 -3.3449707 28.63476562 C-4.26536133 27.69761719 -5.18575195 26.76046875 -6.1340332 25.79492188 C-7.07888177 24.84003551 -8.02418954 23.88560329 -8.9699707 22.93164062 C-11.27921659 20.59883101 -13.58366523 18.26148101 -15.8840332 15.91992188 C-13.9381699 11.69095033 -11.25127372 8.8846506 -8.0090332 5.60742188 C-7.47922852 5.04474609 -6.94942383 4.48207031 -6.40356445 3.90234375 C-2.45098831 -0.10417574 -2.45098831 -0.10417574 0 0 Z " fill="#050505" transform="translate(374.884033203125,76.080078125)"/>
<path d="M0 0 C2.81878012 1.28174718 4.85241496 2.61007615 7.015625 4.8203125 C7.54414063 5.35527344 8.07265625 5.89023437 8.6171875 6.44140625 C9.15601563 6.99699219 9.69484375 7.55257813 10.25 8.125 C11.08144531 8.96998047 11.08144531 8.96998047 11.9296875 9.83203125 C13.29104485 11.21686028 14.64614859 12.60783204 16 14 C14.49287699 17.55038072 12.42833908 19.79113387 9.68359375 22.4765625 C8.83732422 23.311875 7.99105469 24.1471875 7.11914062 25.0078125 C6.23419922 25.87148438 5.34925781 26.73515625 4.4375 27.625 C2.68402618 29.34414185 0.93261425 31.06539013 -0.81640625 32.7890625 C-1.59443604 33.54912598 -2.37246582 34.30918945 -3.17407227 35.09228516 C-5.06086128 36.87557625 -5.06086128 36.87557625 -6 39 C-10.25314786 37.32357676 -13.12101814 34.2824091 -16.3125 31.125 C-16.87517578 30.59519531 -17.43785156 30.06539063 -18.01757812 29.51953125 C-19.61328125 27.9453125 -19.61328125 27.9453125 -22 25 C-21.87343687 20.88669828 -19.10648036 18.76325018 -16.30859375 16.015625 C-15.61154076 15.32493927 -15.61154076 15.32493927 -14.90040588 14.62030029 C-13.41968181 13.15632189 -11.92885481 11.70313959 -10.4375 10.25 C-9.42965336 9.25720551 -8.42248367 8.2637233 -7.41601562 7.26953125 C-4.95180539 4.83833527 -2.47842671 2.41671132 0 0 Z " fill="#050505" transform="translate(381,398)"/>
<path d="M0 0 C8.02282454 6.82168331 8.02282454 6.82168331 11.5 10.125 C12.1909375 10.76695312 12.881875 11.40890625 13.59375 12.0703125 C15 14 15 14 14.88110352 15.80908203 C13.63667883 18.9034204 11.68330906 20.65231925 9.30859375 22.984375 C8.84389175 23.44483215 8.37918976 23.90528931 7.90040588 24.37969971 C6.41968181 25.84367811 4.92885481 27.29686041 3.4375 28.75 C2.42965336 29.74279449 1.42248367 30.7362767 0.41601562 31.73046875 C-2.04819461 34.16166473 -4.52157329 36.58328868 -7 39 C-9.81878012 37.71825282 -11.85241496 36.38992385 -14.015625 34.1796875 C-14.54414063 33.64472656 -15.07265625 33.10976563 -15.6171875 32.55859375 C-16.15601563 32.00300781 -16.69484375 31.44742187 -17.25 30.875 C-17.80429687 30.31167969 -18.35859375 29.74835938 -18.9296875 29.16796875 C-20.29104485 27.78313972 -21.64614859 26.39216796 -23 25 C-21.43717018 21.23396131 -19.0936525 18.86360849 -16.2109375 16.015625 C-15.74765045 15.55516785 -15.2843634 15.09471069 -14.80703735 14.62030029 C-13.33434102 13.15874922 -11.85482597 11.70432832 -10.375 10.25 C-9.37193678 9.25697389 -8.36932743 8.26348911 -7.3671875 7.26953125 C-4.91669165 4.84102059 -2.4600333 2.41885325 0 0 Z " fill="#040404" transform="translate(358,374)"/>
<path d="M0 0 C2.81878012 1.28174718 4.85241496 2.61007615 7.015625 4.8203125 C7.54414063 5.35527344 8.07265625 5.89023437 8.6171875 6.44140625 C9.15601563 6.99699219 9.69484375 7.55257813 10.25 8.125 C11.08144531 8.96998047 11.08144531 8.96998047 11.9296875 9.83203125 C13.29104485 11.21686028 14.64614859 12.60783204 16 14 C13.52063117 19.82844198 8.51686013 23.89292125 4.125 28.3125 C3.21363281 29.25673828 2.30226563 30.20097656 1.36328125 31.17382812 C0.48285156 32.06134766 -0.39757812 32.94886719 -1.3046875 33.86328125 C-2.10890137 34.68094971 -2.91311523 35.49861816 -3.74169922 36.34106445 C-6 38 -6 38 -8.1027832 37.91992188 C-11.37761492 36.33202252 -13.77571919 33.73631773 -16.3125 31.1875 C-16.87517578 30.65318359 -17.43785156 30.11886719 -18.01757812 29.56835938 C-19.61328125 27.98046875 -19.61328125 27.98046875 -22 25 C-21.87358148 20.88657713 -19.10674968 18.76351466 -16.30859375 16.015625 C-15.61154076 15.32493927 -15.61154076 15.32493927 -14.90040588 14.62030029 C-13.41968181 13.15632189 -11.92885481 11.70313959 -10.4375 10.25 C-9.42965336 9.25720551 -8.42248367 8.2637233 -7.41601562 7.26953125 C-4.95180539 4.83833527 -2.47842671 2.41671132 0 0 Z " fill="#040404" transform="translate(334,351)"/>
<path d="M0 0 C5.82844198 2.47936883 9.89292125 7.48313987 14.3125 11.875 C15.25673828 12.78636719 16.20097656 13.69773438 17.17382812 14.63671875 C18.06134766 15.51714844 18.94886719 16.39757812 19.86328125 17.3046875 C20.68094971 18.10890137 21.49861816 18.91311523 22.34106445 19.74169922 C24 22 24 22 23.91992188 24.1027832 C22.33202252 27.37761492 19.73631773 29.77571919 17.1875 32.3125 C16.65318359 32.87517578 16.11886719 33.43785156 15.56835938 34.01757812 C13.98046875 35.61328125 13.98046875 35.61328125 11 38 C6.88657713 37.87358148 4.76351466 35.10674968 2.015625 32.30859375 C1.55516785 31.84389175 1.09471069 31.37918976 0.62030029 30.90040588 C-0.84367811 29.41968181 -2.29686041 27.92885481 -3.75 26.4375 C-4.74279449 25.42965336 -5.7362767 24.42248367 -6.73046875 23.41601562 C-9.16166473 20.95180539 -11.58328868 18.47842671 -14 16 C-12.71825282 13.18121988 -11.38992385 11.14758504 -9.1796875 8.984375 C-8.64472656 8.45585937 -8.10976563 7.92734375 -7.55859375 7.3828125 C-7.00300781 6.84398437 -6.44742187 6.30515625 -5.875 5.75 C-5.31167969 5.19570312 -4.74835938 4.64140625 -4.16796875 4.0703125 C-2.78313972 2.70895515 -1.39216796 1.35385141 0 0 Z " fill="#040404" transform="translate(365,162)"/>
<path d="M0 0 C5.62303757 4.67466337 10.79741554 9.67765667 15.9375 14.875 C17.10635742 16.050625 17.10635742 16.050625 18.29882812 17.25 C20.20154085 19.16438581 22.10186171 21.08108034 24 23 C20.5191826 27.1413833 16.98304674 31.13790851 13.125 34.9375 C12.34382813 35.70964844 11.56265625 36.48179687 10.7578125 37.27734375 C10.17773438 37.84582031 9.59765625 38.41429687 9 39 C3.37696243 34.32533663 -1.79741554 29.32234333 -6.9375 24.125 C-7.71673828 23.34125 -8.49597656 22.5575 -9.29882812 21.75 C-11.20154085 19.83561419 -13.10186171 17.91891966 -15 16 C-11.5191826 11.8586167 -7.98304674 7.86209149 -4.125 4.0625 C-3.34382812 3.29035156 -2.56265625 2.51820313 -1.7578125 1.72265625 C-1.17773438 1.15417969 -0.59765625 0.58570313 0 0 Z " fill="#010101" transform="translate(153,374)"/>
<path d="M0 0 C4.1413833 3.4808174 8.13790851 7.01695326 11.9375 10.875 C12.70964844 11.65617187 13.48179687 12.43734375 14.27734375 13.2421875 C14.84582031 13.82226562 15.41429687 14.40234375 16 15 C11.32533663 20.62303757 6.32234333 25.79741554 1.125 30.9375 C0.34125 31.71673828 -0.4425 32.49597656 -1.25 33.29882812 C-3.16438581 35.20154085 -5.08108034 37.10186171 -7 39 C-11.1413833 35.5191826 -15.13790851 31.98304674 -18.9375 28.125 C-19.70964844 27.34382813 -20.48179687 26.56265625 -21.27734375 25.7578125 C-21.84582031 25.17773438 -22.41429687 24.59765625 -23 24 C-18.32533663 18.37696243 -13.32234333 13.20258446 -8.125 8.0625 C-7.34125 7.28326172 -6.5575 6.50402344 -5.75 5.70117188 C-3.83561419 3.79845915 -1.91891966 1.89813829 0 0 Z " fill="#010101" transform="translate(397,335)"/>
<path d="M0 0 C5.62303757 4.67466337 10.79741554 9.67765667 15.9375 14.875 C17.10635742 16.050625 17.10635742 16.050625 18.29882812 17.25 C20.20154085 19.16438581 22.10186171 21.08108034 24 23 C20.5191826 27.1413833 16.98304674 31.13790851 13.125 34.9375 C12.34382813 35.70964844 11.56265625 36.48179687 10.7578125 37.27734375 C10.17773438 37.84582031 9.59765625 38.41429687 9 39 C3.37696243 34.32533663 -1.79741554 29.32234333 -6.9375 24.125 C-7.71673828 23.34125 -8.49597656 22.5575 -9.29882812 21.75 C-11.20154085 19.83561419 -13.10186171 17.91891966 -15 16 C-11.5191826 11.8586167 -7.98304674 7.86209149 -4.125 4.0625 C-3.34382813 3.29035156 -2.56265625 2.51820313 -1.7578125 1.72265625 C-1.17773438 1.15417969 -0.59765625 0.58570313 0 0 Z " fill="#020202" transform="translate(114,335)"/>
<path d="M0 0 C2.81878012 1.28174718 4.85241496 2.61007615 7.015625 4.8203125 C7.54414063 5.35527344 8.07265625 5.89023437 8.6171875 6.44140625 C9.15601563 6.99699219 9.69484375 7.55257813 10.25 8.125 C11.08144531 8.96998047 11.08144531 8.96998047 11.9296875 9.83203125 C13.29104485 11.21686028 14.64614859 12.60783204 16 14 C14.4608199 17.66752005 12.24514548 19.98580573 9.4296875 22.765625 C8.53378906 23.65507812 7.63789063 24.54453125 6.71484375 25.4609375 C5.77769531 26.38132812 4.84054687 27.30171875 3.875 28.25 C2.92011363 29.19484856 1.96568141 30.14015633 1.01171875 31.0859375 C-1.32109087 33.39518338 -3.65844086 35.69963203 -6 38 C-8.81878012 36.71825282 -10.85241496 35.38992385 -13.015625 33.1796875 C-13.54414063 32.64472656 -14.07265625 32.10976563 -14.6171875 31.55859375 C-15.15601563 31.00300781 -15.69484375 30.44742187 -16.25 29.875 C-16.80429687 29.31167969 -17.35859375 28.74835938 -17.9296875 28.16796875 C-19.29104485 26.78313972 -20.64614859 25.39216796 -22 24 C-20.4608199 20.33247995 -18.24514548 18.01419427 -15.4296875 15.234375 C-14.08583984 13.90019531 -14.08583984 13.90019531 -12.71484375 12.5390625 C-11.77769531 11.61867188 -10.84054687 10.69828125 -9.875 9.75 C-8.92011363 8.80515144 -7.96568141 7.85984367 -7.01171875 6.9140625 C-4.67890913 4.60481662 -2.34155914 2.30036797 0 0 Z " fill="#020202" transform="translate(420,359)"/>
<path d="M0 0 C2.81878012 1.28174718 4.85241496 2.61007615 7.015625 4.8203125 C7.54414063 5.35527344 8.07265625 5.89023437 8.6171875 6.44140625 C9.15601563 6.99699219 9.69484375 7.55257813 10.25 8.125 C11.08144531 8.96998047 11.08144531 8.96998047 11.9296875 9.83203125 C13.29104485 11.21686028 14.64614859 12.60783204 16 14 C14.4608199 17.66752005 12.24514548 19.98580573 9.4296875 22.765625 C8.53378906 23.65507812 7.63789063 24.54453125 6.71484375 25.4609375 C5.77769531 26.38132812 4.84054687 27.30171875 3.875 28.25 C2.92011363 29.19484856 1.96568141 30.14015633 1.01171875 31.0859375 C-1.32109087 33.39518338 -3.65844086 35.69963203 -6 38 C-8.81878012 36.71825282 -10.85241496 35.38992385 -13.015625 33.1796875 C-13.54414063 32.64472656 -14.07265625 32.10976563 -14.6171875 31.55859375 C-15.15601563 31.00300781 -15.69484375 30.44742187 -16.25 29.875 C-16.80429687 29.31167969 -17.35859375 28.74835938 -17.9296875 28.16796875 C-19.29104485 26.78313972 -20.64614859 25.39216796 -22 24 C-20.4608199 20.33247995 -18.24514548 18.01419427 -15.4296875 15.234375 C-14.08583984 13.90019531 -14.08583984 13.90019531 -12.71484375 12.5390625 C-11.77769531 11.61867188 -10.84054687 10.69828125 -9.875 9.75 C-8.92011363 8.80515144 -7.96568141 7.85984367 -7.01171875 6.9140625 C-4.67890913 4.60481662 -2.34155914 2.30036797 0 0 Z " fill="#010101" transform="translate(373,312)"/>
<path d="M0 0 C3.66752005 1.5391801 5.98580573 3.75485452 8.765625 6.5703125 C10.09980469 7.91416016 10.09980469 7.91416016 11.4609375 9.28515625 C12.38132812 10.22230469 13.30171875 11.15945312 14.25 12.125 C15.19484856 13.07988637 16.14015633 14.03431859 17.0859375 14.98828125 C19.39518338 17.32109087 21.69963203 19.65844086 24 22 C22.71825282 24.81878012 21.38992385 26.85241496 19.1796875 29.015625 C18.64472656 29.54414063 18.10976563 30.07265625 17.55859375 30.6171875 C17.00300781 31.15601563 16.44742187 31.69484375 15.875 32.25 C15.03001953 33.08144531 15.03001953 33.08144531 14.16796875 33.9296875 C12.78313972 35.29104485 11.39216796 36.64614859 10 38 C6.33247995 36.4608199 4.01419427 34.24514548 1.234375 31.4296875 C0.34492188 30.53378906 -0.54453125 29.63789063 -1.4609375 28.71484375 C-2.38132812 27.77769531 -3.30171875 26.84054688 -4.25 25.875 C-5.19484856 24.92011363 -6.14015633 23.96568141 -7.0859375 23.01171875 C-9.39518338 20.67890913 -11.69963203 18.34155914 -14 16 C-12.71825282 13.18121988 -11.38992385 11.14758504 -9.1796875 8.984375 C-8.64472656 8.45585937 -8.10976563 7.92734375 -7.55859375 7.3828125 C-7.00300781 6.84398437 -6.44742187 6.30515625 -5.875 5.75 C-5.31167969 5.19570312 -4.74835938 4.64140625 -4.16796875 4.0703125 C-2.78313972 2.70895515 -1.39216796 1.35385141 0 0 Z " fill="#010101" transform="translate(326,123)"/>
</svg>
