<?xml version="1.0" encoding="UTF-8"?>
<svg version="1.1" xmlns="http://www.w3.org/2000/svg" width="512" height="512">
<path d="M0 0 C1.01790619 0.00215515 2.03581238 0.0043103 3.08456421 0.00653076 C17.69363523 0.05620146 32.02575853 0.30709809 46.375 3.3125 C47.34985352 3.51117676 48.32470703 3.70985352 49.32910156 3.91455078 C97.7109774 14.03517194 141.69928269 35.9516877 177.375 70.3125 C178.3640332 71.26068604 178.3640332 71.26068604 179.37304688 72.22802734 C188.86130305 81.37247479 197.6012044 90.66984009 205.375 101.3125 C206.23306152 102.46355017 207.09113451 103.61459177 207.94921875 104.765625 C213.98736829 112.95680614 219.34595521 121.47054105 224.375 130.3125 C224.73948242 130.94430176 225.10396484 131.57610352 225.47949219 132.22705078 C247.08534998 169.97532572 256.85198095 212.74189997 256.6875 255.9375 C256.68534485 256.95540619 256.6831897 257.97331238 256.68096924 259.02206421 C256.63129854 273.63113523 256.38040191 287.96325853 253.375 302.3125 C253.07698486 303.77478027 253.07698486 303.77478027 252.77294922 305.26660156 C242.65232806 353.6484774 220.7358123 397.63678269 186.375 433.3125 C185.74287598 433.97185547 185.11075195 434.63121094 184.45947266 435.31054688 C175.31502521 444.79880305 166.01765991 453.5387044 155.375 461.3125 C154.22394983 462.17056152 153.07290823 463.02863451 151.921875 463.88671875 C143.73224019 469.92427396 135.22961724 475.30707302 126.375 480.3125 C125.66778809 480.7146875 124.96057617 481.116875 124.23193359 481.53125 C101.09654164 494.5566741 75.92537591 503.30551461 49.9375 508.625 C49.21860596 508.77235596 48.49971191 508.91971191 47.7590332 509.0715332 C33.08339502 511.86090125 18.55831162 512.66142619 3.64770508 512.62817383 C0.70811513 512.6250221 -2.2304558 512.64854926 -5.16992188 512.67382812 C-18.54306192 512.71848737 -31.43916711 511.51301542 -44.625 509.3125 C-46.33055054 509.03031616 -46.33055054 509.03031616 -48.07055664 508.74243164 C-50.6662622 508.27617402 -53.23774939 507.7574418 -55.8125 507.1875 C-57.20142456 506.88054199 -57.20142456 506.88054199 -58.6184082 506.56738281 C-103.06909585 496.23155661 -143.80440564 473.92342102 -176.625 442.3125 C-177.28435547 441.68037598 -177.94371094 441.04825195 -178.62304688 440.39697266 C-188.11130305 431.25252521 -196.8512044 421.95515991 -204.625 411.3125 C-205.48306152 410.16144983 -206.34113451 409.01040823 -207.19921875 407.859375 C-213.23677396 399.66974019 -218.61957302 391.16711724 -223.625 382.3125 C-224.0271875 381.60528809 -224.429375 380.89807617 -224.84375 380.16943359 C-237.8691741 357.03404164 -246.61801461 331.86287591 -251.9375 305.875 C-252.08485596 305.15610596 -252.23221191 304.43721191 -252.3840332 303.6965332 C-255.35789088 288.05024391 -255.99800362 272.57681954 -255.9375 256.6875 C-255.93534485 255.66959381 -255.9331897 254.65168762 -255.93096924 253.60293579 C-255.88129854 238.99386477 -255.63040191 224.66174147 -252.625 210.3125 C-252.42632324 209.33764648 -252.22764648 208.36279297 -252.02294922 207.35839844 C-241.90232806 158.9765226 -219.9858123 114.98821731 -185.625 79.3125 C-184.99287598 78.65314453 -184.36075195 77.99378906 -183.70947266 77.31445312 C-174.56502521 67.82619695 -165.26765991 59.0862956 -154.625 51.3125 C-153.47394983 50.45443848 -152.32290823 49.59636549 -151.171875 48.73828125 C-142.98224019 42.70072604 -134.47961724 37.31792698 -125.625 32.3125 C-124.91778809 31.9103125 -124.21057617 31.508125 -123.48193359 31.09375 C-100.34654164 18.0683259 -75.17537591 9.31948539 -49.1875 4 C-48.46860596 3.85264404 -47.74971191 3.70528809 -47.0090332 3.5534668 C-31.36274391 0.57960912 -15.88931954 -0.06050362 0 0 Z " fill="#F0F0F0" transform="translate(255.625,-0.3125)"/>
<path d="M0 0 C1.01790619 0.00215515 2.03581238 0.0043103 3.08456421 0.00653076 C17.69363523 0.05620146 32.02575853 0.30709809 46.375 3.3125 C47.34985352 3.51117676 48.32470703 3.70985352 49.32910156 3.91455078 C97.7109774 14.03517194 141.69928269 35.9516877 177.375 70.3125 C178.3640332 71.26068604 178.3640332 71.26068604 179.37304688 72.22802734 C188.86130305 81.37247479 197.6012044 90.66984009 205.375 101.3125 C206.23306152 102.46355017 207.09113451 103.61459177 207.94921875 104.765625 C213.98736829 112.95680614 219.34595521 121.47054105 224.375 130.3125 C224.73948242 130.94430176 225.10396484 131.57610352 225.47949219 132.22705078 C240.25728768 158.04580292 249.56459364 187.02358516 254.375 216.3125 C254.49214355 217.01858398 254.60928711 217.72466797 254.72998047 218.45214844 C256.75061519 231.18845226 256.375 243.2513711 256.375 256.3125 C87.415 256.3125 -81.545 256.3125 -255.625 256.3125 C-255.625 189.88445128 -231.90670215 127.36529072 -185.625 79.3125 C-184.99287598 78.65314453 -184.36075195 77.99378906 -183.70947266 77.31445312 C-174.56502521 67.82619695 -165.26765991 59.0862956 -154.625 51.3125 C-153.47394983 50.45443848 -152.32290823 49.59636549 -151.171875 48.73828125 C-142.98224019 42.70072604 -134.47961724 37.31792698 -125.625 32.3125 C-124.91778809 31.9103125 -124.21057617 31.508125 -123.48193359 31.09375 C-100.34654164 18.0683259 -75.17537591 9.31948539 -49.1875 4 C-48.46860596 3.85264404 -47.74971191 3.70528809 -47.0090332 3.5534668 C-31.36274391 0.57960912 -15.88931954 -0.06050362 0 0 Z " fill="#0152B3" transform="translate(255.625,-0.3125)"/>
<path d="M0 0 C168.96 0 337.92 0 512 0 C512 26.63101604 512 26.63101604 510.8125 34.5625 C510.71130859 35.37138672 510.61011719 36.18027344 510.50585938 37.01367188 C509.05610069 47.50679011 506.35494068 57.638261 504 68 C340.32 68 176.64 68 8 68 C2.15101028 42.26444523 2.15101028 42.26444523 1.1875 34.5625 C1.06697266 33.75748047 0.94644531 32.95246094 0.82226562 32.12304688 C-0.58065034 21.37270223 0 10.99254133 0 0 Z " fill="#EFEFEF" transform="translate(0,256)"/>
<path d="M0 0 C163.02 0 326.04 0 494 0 C492.87270736 9.01834109 492.87270736 9.01834109 491.6875 12.453125 C491.42155029 13.22672363 491.15560059 14.00032227 490.8815918 14.79736328 C490.5906665 15.6067334 490.29974121 16.41610352 490 17.25 C489.69167236 18.1147998 489.38334473 18.97959961 489.06567383 19.87060547 C475.27242718 57.72757282 475.27242718 57.72757282 466 67 C463.67695271 67.11057736 461.38302692 67.15573373 459.05889034 67.15936089 C458.3206256 67.16440948 457.58236085 67.16945808 456.82172444 67.17465967 C454.31628729 67.1904984 451.81087631 67.19909834 449.30540466 67.20773315 C447.50357842 67.21746679 445.70175432 67.22760552 443.89993244 67.23811734 C438.9237627 67.26573032 433.94758327 67.28678591 428.97137725 67.30663323 C424.70922974 67.32439698 420.44710358 67.34582401 416.18497276 67.36717294 C375.79296874 67.56843652 335.4004382 67.67200934 295.00804043 67.75568962 C289.74876805 67.7667784 284.48949615 67.77807061 279.23022461 67.78955078 C277.92299932 67.79239532 276.61577404 67.79523985 275.26893587 67.79817058 C254.08980653 67.84565647 232.91117583 67.9419677 211.73231816 68.05712186 C190.00438559 68.17428405 168.27671249 68.242345 146.54847199 68.26382077 C134.34226282 68.27723723 122.13698218 68.31310839 109.9310894 68.405056 C99.53585397 68.4833503 89.1416554 68.51800721 78.74612927 68.4950311 C73.44008341 68.48470192 68.13629079 68.49560898 62.830616 68.56312943 C57.97288448 68.624475 53.11896361 68.62585699 48.2611003 68.57947291 C46.50386639 68.57328099 44.74638853 68.58911768 42.9896 68.62916015 C37.71199402 68.74232555 33.04100151 68.67065041 28 67 C24.13861433 63.05469149 22.16260283 59.09271207 20 54 C19.127725 52.33229537 18.24632878 50.66925437 17.34765625 49.015625 C16.5747148 47.43251364 15.81312795 45.84381234 15.0625 44.25 C14.65136963 43.38093018 14.24023926 42.51186035 13.81665039 41.61645508 C10.50361289 34.43641336 7.64291505 27.11576079 4.9375 19.6875 C4.3643103 18.12273926 4.3643103 18.12273926 3.77954102 16.52636719 C3.42819092 15.5315332 3.07684082 14.53669922 2.71484375 13.51171875 C2.40667725 12.63990967 2.09851074 11.76810059 1.78100586 10.86987305 C0.81688106 7.32711373 0.4554065 3.643252 0 0 Z " fill="#D80228" transform="translate(9,323)"/>
<path d="M0 0 C81.84 0 163.68 0 248 0 C253.84189123 24.53594315 253.84189123 24.53594315 254.8125 32.375 C254.93302734 33.18453125 255.05355469 33.9940625 255.17773438 34.828125 C256.57559959 45.59568103 256 55.99152322 256 67 C171.52 67 87.04 67 0 67 C0 44.89 0 22.78 0 0 Z " fill="#D80127" transform="translate(256,189)"/>
<path d="M0 0 C16.67226386 15.63136581 24.69668564 47.01822799 31 68 C31 68.33 31 68.66 31 69 C-50.84 69 -132.68 69 -217 69 C-217 46.89 -217 24.78 -217 2 C-145.39 2 -73.78 2 0 2 C0 1.34 0 0.68 0 0 Z " fill="#EFEEEE" transform="translate(473,120)"/>
<path d="M0 0 C20.80183742 -0.2034248 41.60286541 -0.36910136 62.40544605 -0.46630955 C72.06517544 -0.51265142 81.72424144 -0.57579307 91.38354492 -0.67895508 C99.80594154 -0.7688637 108.22785758 -0.82677173 116.65072078 -0.84679645 C121.1078946 -0.85849633 125.56369401 -0.88584802 130.0204258 -0.95157051 C134.22251912 -1.01303112 138.42268298 -1.03143196 142.62518311 -1.01796913 C144.16066189 -1.02042891 145.69621058 -1.03811628 147.23129845 -1.07284927 C156.77254073 -1.27799389 162.70924708 0.04588466 169.85511303 6.79186821 C170.91683208 7.88489345 170.91683208 7.88489345 172 9 C173.02840948 9.94280509 174.05907328 10.88316893 175.09375 11.8190918 C177.73740395 14.43404536 180.37850867 17.05028897 183 19.6875 C183.47900757 20.16799805 183.95801514 20.64849609 184.45153809 21.14355469 C191.93530115 28.66908469 198.83993397 36.35770794 205 45 C205.93316601 46.28546687 206.86677559 47.57061183 207.80078125 48.85546875 C217 61.58201494 217 61.58201494 217 66 C145.39 66 73.78 66 0 66 C0 44.22 0 22.44 0 0 Z " fill="#D80027" transform="translate(256,56)"/>
<path d="M0 0 C104.94 0 209.88 0 318 0 C316.90466726 3.28599821 316.41807102 3.69907894 313.7109375 5.6015625 C313.02467285 6.08705566 312.3384082 6.57254883 311.63134766 7.07275391 C310.88675293 7.58499512 310.1421582 8.09723633 309.375 8.625 C308.60591309 9.15915527 307.83682617 9.69331055 307.04443359 10.24365234 C299.88219471 15.16833646 292.5731949 19.73753187 285 24 C284.29713867 24.39928711 283.59427734 24.79857422 282.87011719 25.20996094 C259.73010066 38.23957024 234.55657463 46.99174579 208.5625 52.3125 C207.84360596 52.45985596 207.12471191 52.60721191 206.3840332 52.7590332 C191.70839502 55.54840125 177.18331162 56.34892619 162.27270508 56.31567383 C159.33311513 56.3125221 156.3945442 56.33604926 153.45507812 56.36132812 C140.08193808 56.40598737 127.18583289 55.20051542 114 53 C112.86296631 52.81187744 111.72593262 52.62375488 110.55444336 52.42993164 C107.9587378 51.96367402 105.38725061 51.4449418 102.8125 50.875 C101.88655029 50.67036133 100.96060059 50.46572266 100.0065918 50.25488281 C66.72084435 42.51516676 35.62777871 27.99946046 8 8 C7.08734375 7.35546875 6.1746875 6.7109375 5.234375 6.046875 C3.44481824 4.75789356 1.71167655 3.39073719 0 2 C0 1.34 0 0.68 0 0 Z " fill="#D8042A" transform="translate(97,456)"/>
<path d="M0 0 C2.07297495 1.59509288 4.0946537 3.21637905 6.0703125 4.9296875 C5.4103125 5.2596875 4.7503125 5.5896875 4.0703125 5.9296875 C2.48048459 5.38770071 0.89324146 4.83631605 -0.67626953 4.23803711 C-15.62234323 -1.32621528 -33.1819944 -1.33761713 -47.9296875 4.9296875 C-60.99702983 11.0799847 -71.08704714 20.20916547 -77.9296875 32.9296875 C-78.41308594 33.826875 -78.89648438 34.7240625 -79.39453125 35.6484375 C-86.47451911 49.93154344 -87.34472901 67.22790119 -82.3671875 82.3046875 C-76.36441954 99.3294973 -65.52124628 111.7366513 -49.24023438 119.62084961 C-31.37473915 127.83329206 -13.1607962 125.86171853 5.0703125 119.9296875 C-8.03308686 134.3434268 -26.12148066 139.97142723 -45.00390625 141.24609375 C-64.72743323 141.84494716 -83.05683675 134.84230897 -97.9296875 121.9296875 C-98.50460938 121.50816406 -99.07953125 121.08664063 -99.671875 120.65234375 C-112.40623155 110.99887991 -121.40476112 92.88607102 -124.50390625 77.5234375 C-127.30281098 53.89965445 -122.6571823 32.79661617 -108.1171875 13.7421875 C-80.52878425 -19.28990451 -34.7475884 -24.55496247 0 0 Z " fill="#FBD845" transform="translate(192.9296875,93.0703125)"/>
<path d="M0 0 C56.41115299 0 116.74908411 16.7950243 160 55 C160 55.33 160 55.66 160 56 C107.2 56 54.4 56 0 56 C0 37.52 0 19.04 0 0 Z " fill="#EFEDEE" transform="translate(256,0)"/>
<path d="M0 0 C0.66 0 1.32 0 2 0 C5.3 6.93 8.6 13.86 12 21 C17.55949621 21 21.58426291 20.53212242 26.75 19 C33.65540541 17 33.65540541 17 37 17 C36.36889792 19.8919467 35.45016306 22.32962445 34.1171875 24.96875 C33.75496094 25.70480469 33.39273438 26.44085938 33.01953125 27.19921875 C32.2549543 28.73620109 31.48408272 30.27006781 30.70703125 31.80078125 C30.34738281 32.53683594 29.98773438 33.27289063 29.6171875 34.03125 C29.28315918 34.69705078 28.94913086 35.36285156 28.60498047 36.04882812 C27.84519051 38.49928873 28.01630116 39.63989572 29 42 C30.44859025 43.60627086 30.44859025 43.60627086 32.30859375 44.98046875 C32.97310547 45.50447266 33.63761719 46.02847656 34.32226562 46.56835938 C35.36930664 47.36983398 35.36930664 47.36983398 36.4375 48.1875 C37.13166016 48.73341797 37.82582031 49.27933594 38.54101562 49.84179688 C42.10399147 52.67905574 42.10399147 52.67905574 46 55 C46 55.66 46 56.32 46 57 C42.77330584 57.84311119 39.54329082 58.67273868 36.3125 59.5 C35.40048828 59.73847656 34.48847656 59.97695312 33.54882812 60.22265625 C32.21948242 60.56103516 32.21948242 60.56103516 30.86328125 60.90625 C30.05157471 61.11572266 29.23986816 61.32519531 28.40356445 61.54101562 C26 62 26 62 21 62 C21 70.25 21 78.5 21 87 C18.0358819 85.51794095 16.13414114 84.43852163 13.6875 82.3984375 C13.08679688 81.90859375 12.48609375 81.41875 11.8671875 80.9140625 C10.61855275 79.8848531 9.3737676 78.85095615 8.1328125 77.8125 C7.53210938 77.32523437 6.93140625 76.83796875 6.3125 76.3359375 C5.77238281 75.88782715 5.23226562 75.4397168 4.67578125 74.97802734 C2.74760446 73.66396082 2.74760446 73.66396082 -1 74 C-3.27177894 75.70891161 -5.3400536 77.41161429 -7.4375 79.3125 C-8.55819601 80.31196997 -9.68184592 81.30813877 -10.80859375 82.30078125 C-11.30157959 82.74591064 -11.79456543 83.19104004 -12.30249023 83.6496582 C-14.38584098 85.30693032 -16.71724798 86.63034879 -19 88 C-19 79.42 -19 70.84 -19 62 C-22.96 61.34 -26.92 60.68 -31 60 C-33.42274989 59.48622619 -35.841285 58.95099706 -38.25 58.375 C-39.34828125 58.11460937 -40.4465625 57.85421875 -41.578125 57.5859375 C-42.37734375 57.39257812 -43.1765625 57.19921875 -44 57 C-40.25333462 53.14044075 -36.31478678 49.63380746 -32.1875 46.1875 C-31.59001953 45.68541016 -30.99253906 45.18332031 -30.37695312 44.66601562 C-28.91971152 43.44193268 -27.46010135 42.22067038 -26 41 C-26.63300395 35.96611141 -28.85454964 31.80848182 -31.0625 27.3125 C-31.80684867 25.78944811 -32.54790367 24.26478072 -33.28515625 22.73828125 C-33.61394775 22.06837158 -33.94273926 21.39846191 -34.28149414 20.70825195 C-35 19 -35 19 -35 17 C-31.74968273 17.64424333 -28.49980394 18.29067263 -25.25 18.9375 C-24.32960937 19.11990234 -23.40921875 19.30230469 -22.4609375 19.49023438 C-21.57148438 19.66748047 -20.68203125 19.84472656 -19.765625 20.02734375 C-18.94868164 20.18968506 -18.13173828 20.35202637 -17.29003906 20.51928711 C-15.17772917 20.96269203 -13.089663 21.46079981 -11 22 C-9.53743341 19.2730819 -8.08071459 16.5430812 -6.625 13.8125 C-6.2125 13.04357422 -5.8 12.27464844 -5.375 11.48242188 C-3.37122281 7.7172599 -1.46489548 4.01638925 0 0 Z " fill="#FCD845" transform="translate(187,112)"/>
</svg>
