<?xml version="1.0" encoding="UTF-8"?>
<svg version="1.1" xmlns="http://www.w3.org/2000/svg" width="512" height="512">
<path d="M0 0 C1.01790619 0.00215515 2.03581238 0.0043103 3.08456421 0.00653076 C17.69363523 0.05620146 32.02575853 0.30709809 46.375 3.3125 C47.34985352 3.51117676 48.32470703 3.70985352 49.32910156 3.91455078 C97.7109774 14.03517194 141.69928269 35.9516877 177.375 70.3125 C178.3640332 71.26068604 178.3640332 71.26068604 179.37304688 72.22802734 C188.86130305 81.37247479 197.6012044 90.66984009 205.375 101.3125 C206.23306152 102.46355017 207.09113451 103.61459177 207.94921875 104.765625 C213.98736829 112.95680614 219.34595521 121.47054105 224.375 130.3125 C224.73948242 130.94430176 225.10396484 131.57610352 225.47949219 132.22705078 C247.08534998 169.97532572 256.85198095 212.74189997 256.6875 255.9375 C256.68534485 256.95540619 256.6831897 257.97331238 256.68096924 259.02206421 C256.63129854 273.63113523 256.38040191 287.96325853 253.375 302.3125 C253.07698486 303.77478027 253.07698486 303.77478027 252.77294922 305.26660156 C242.65232806 353.6484774 220.7358123 397.63678269 186.375 433.3125 C185.74287598 433.97185547 185.11075195 434.63121094 184.45947266 435.31054688 C175.31502521 444.79880305 166.01765991 453.5387044 155.375 461.3125 C154.22394983 462.17056152 153.07290823 463.02863451 151.921875 463.88671875 C143.73224019 469.92427396 135.22961724 475.30707302 126.375 480.3125 C125.66778809 480.7146875 124.96057617 481.116875 124.23193359 481.53125 C101.09654164 494.5566741 75.92537591 503.30551461 49.9375 508.625 C49.21860596 508.77235596 48.49971191 508.91971191 47.7590332 509.0715332 C33.08339502 511.86090125 18.55831162 512.66142619 3.64770508 512.62817383 C0.70811513 512.6250221 -2.2304558 512.64854926 -5.16992188 512.67382812 C-18.54306192 512.71848737 -31.43916711 511.51301542 -44.625 509.3125 C-46.33055054 509.03031616 -46.33055054 509.03031616 -48.07055664 508.74243164 C-50.6662622 508.27617402 -53.23774939 507.7574418 -55.8125 507.1875 C-57.20142456 506.88054199 -57.20142456 506.88054199 -58.6184082 506.56738281 C-103.06909585 496.23155661 -143.80440564 473.92342102 -176.625 442.3125 C-177.28435547 441.68037598 -177.94371094 441.04825195 -178.62304688 440.39697266 C-188.11130305 431.25252521 -196.8512044 421.95515991 -204.625 411.3125 C-205.48306152 410.16144983 -206.34113451 409.01040823 -207.19921875 407.859375 C-213.23677396 399.66974019 -218.61957302 391.16711724 -223.625 382.3125 C-224.0271875 381.60528809 -224.429375 380.89807617 -224.84375 380.16943359 C-237.8691741 357.03404164 -246.61801461 331.86287591 -251.9375 305.875 C-252.08485596 305.15610596 -252.23221191 304.43721191 -252.3840332 303.6965332 C-255.35789088 288.05024391 -255.99800362 272.57681954 -255.9375 256.6875 C-255.93534485 255.66959381 -255.9331897 254.65168762 -255.93096924 253.60293579 C-255.88129854 238.99386477 -255.63040191 224.66174147 -252.625 210.3125 C-252.42632324 209.33764648 -252.22764648 208.36279297 -252.02294922 207.35839844 C-241.90232806 158.9765226 -219.9858123 114.98821731 -185.625 79.3125 C-184.99287598 78.65314453 -184.36075195 77.99378906 -183.70947266 77.31445312 C-174.56502521 67.82619695 -165.26765991 59.0862956 -154.625 51.3125 C-153.47394983 50.45443848 -152.32290823 49.59636549 -151.171875 48.73828125 C-142.98224019 42.70072604 -134.47961724 37.31792698 -125.625 32.3125 C-124.91778809 31.9103125 -124.21057617 31.508125 -123.48193359 31.09375 C-100.34654164 18.0683259 -75.17537591 9.31948539 -49.1875 4 C-48.46860596 3.85264404 -47.74971191 3.70528809 -47.0090332 3.5534668 C-31.36274391 0.57960912 -15.88931954 -0.06050362 0 0 Z " fill="#496E2D" transform="translate(255.625,-0.3125)"/>
<path d="M0 0 C0.99 0.495 0.99 0.495 2 1 C2 149.83 2 298.66 2 452 C-2.26550831 450.29379668 -6.031517 448.35863627 -9.9375 446 C-10.59137695 445.60554688 -11.24525391 445.21109375 -11.91894531 444.8046875 C-22.92553086 438.07049952 -33.19271097 430.38050119 -43 422 C-43.74894531 421.36320312 -44.49789062 420.72640625 -45.26953125 420.0703125 C-58.76520621 408.25297532 -71.43558025 395.51448412 -82 381 C-82.85649066 379.85005169 -83.71326433 378.70031411 -84.5703125 377.55078125 C-90.61034209 369.36065742 -95.99367614 360.85620382 -101 352 C-101.4021875 351.29278809 -101.804375 350.58557617 -102.21875 349.85693359 C-115.2441741 326.72154164 -123.99301461 301.55037591 -129.3125 275.5625 C-129.45985596 274.84360596 -129.60721191 274.12471191 -129.7590332 273.3840332 C-132.73289088 257.73774391 -133.37300362 242.26431954 -133.3125 226.375 C-133.31034485 225.35709381 -133.3081897 224.33918762 -133.30596924 223.29043579 C-133.25629854 208.68136477 -133.00540191 194.34924147 -130 180 C-129.80132324 179.02514648 -129.60264648 178.05029297 -129.39794922 177.04589844 C-119.27732806 128.6640226 -97.3608123 84.67571731 -63 49 C-62.36787598 48.34064453 -61.73575195 47.68128906 -61.08447266 47.00195312 C-51.94002521 37.51369695 -42.64265991 28.7737956 -32 21 C-30.84894983 20.14193848 -29.69790823 19.28386549 -28.546875 18.42578125 C-21.31684953 13.09951389 -13.83236057 8.34410759 -6.08203125 3.8125 C-4.01952404 2.599568 -1.99086878 1.32724585 0 0 Z " fill="#EFEFEF" transform="translate(133,30)"/>
<path d="M0 0 C0 0.66 0 1.32 0 2 C-0.59683594 2.0515625 -1.19367188 2.103125 -1.80859375 2.15625 C-15.90802345 3.99986042 -28.85471548 11.22547339 -39 21 C-39.71414063 21.68578125 -40.42828125 22.3715625 -41.1640625 23.078125 C-55.84121187 38.3786282 -60.40789237 57.07884565 -60.1484375 77.66015625 C-59.66737238 96.11807278 -50.66683223 112.07064275 -38 125 C-37.11248047 125.94166016 -37.11248047 125.94166016 -36.20703125 126.90234375 C-24.47382198 138.32473952 -6.40564509 144.32310562 9.625 144.375 C27.6522264 144.05036091 42.73521529 139.24141993 57 128 C58.5159375 126.9171875 58.5159375 126.9171875 60.0625 125.8125 C66.46384573 120.32563223 71.45001801 112.56202513 75 105 C76.81176436 109.18767091 75.03148335 112.85077531 73.5625 116.875 C73.29099121 117.626604 73.01948242 118.37820801 72.73974609 119.15258789 C68.41727244 130.65853166 62.15410979 140.78086362 54 150 C53.47148437 150.61101562 52.94296875 151.22203125 52.3984375 151.8515625 C38.50748349 166.83737003 16.37010715 177.04356713 -4.03979492 178.10620117 C-29.90919959 178.84616266 -52.16491485 171.76667419 -72 155 C-72.66515625 154.43796875 -73.3303125 153.8759375 -74.015625 153.296875 C-88.42992384 139.96028074 -99.02464111 118.60531686 -100.17700195 98.98657227 C-100.72703621 70.53161275 -95.24788587 47.77209879 -75.46875 26.4765625 C-64.6428131 15.61636631 -51.74543467 7.37292977 -37 3 C-36.10023438 2.70222656 -35.20046875 2.40445313 -34.2734375 2.09765625 C-23.11305097 -1.09733567 -11.49762043 -0.27412104 0 0 Z " fill="#EEEEEE" transform="translate(312,167)"/>
<path d="M0 0 C1.10091165 1.10091165 2.20144571 2.202202 3.30078125 3.3046875 C4.60568195 4.60658843 5.91675493 5.9023052 7.23046875 7.1953125 C8.02066406 7.97648438 8.81085938 8.75765625 9.625 9.5625 C10.38039063 10.30628906 11.13578125 11.05007812 11.9140625 11.81640625 C13.79605905 13.78651125 15.42174416 15.78340502 17 18 C22.54150424 17.44408477 26.83705761 15.37711719 31.75 12.9375 C33.26396958 12.19323764 34.77952315 11.45218608 36.296875 10.71484375 C37.29219238 10.22165649 37.29219238 10.22165649 38.30761719 9.71850586 C40 9 40 9 42 9 C40.0653427 14.46193305 37.00456201 19.27123379 34.01367188 24.20507812 C33.61341797 24.89150391 33.21316406 25.57792969 32.80078125 26.28515625 C32.43122314 26.90269775 32.06166504 27.52023926 31.6809082 28.15649414 C30.81121909 30.51110958 31.12213784 31.67918387 32 34 C33.60392422 35.92984057 33.60392422 35.92984057 35.625 37.75 C39.65480548 41.62705112 43.50852326 45.62474321 47 50 C47 50.33 47 50.66 47 51 C41.29471252 50.54738847 35.83860925 49.87551353 30.30078125 48.40234375 C27.24005558 47.7990316 27.24005558 47.7990316 21 48 C17.04 54.93 13.08 61.86 9 69 C8.67 69 8.34 69 8 69 C7.49559207 65.41727273 6.99724229 61.83372823 6.5 58.25 C6.28537109 56.72632813 6.28537109 56.72632813 6.06640625 55.171875 C5.93105469 54.1921875 5.79570312 53.2125 5.65625 52.203125 C5.53056641 51.30239258 5.40488281 50.40166016 5.27539062 49.47363281 C5 47 5 47 5 43 C3.54207031 42.79697266 3.54207031 42.79697266 2.0546875 42.58984375 C-2.26506749 41.97071514 -6.57155687 41.28592363 -10.875 40.5625 C-11.64585937 40.44068359 -12.41671875 40.31886719 -13.2109375 40.19335938 C-15.15336459 39.86335195 -17.07931356 39.43919416 -19 39 C-19.33 38.34 -19.66 37.68 -20 37 C-16.54466686 35.32705993 -13.08526007 33.66272237 -9.625 32 C-8.64015625 31.52304688 -7.6553125 31.04609375 -6.640625 30.5546875 C-5.22910156 29.87792969 -5.22910156 29.87792969 -3.7890625 29.1875 C-2.91975098 28.76855469 -2.05043945 28.34960938 -1.15478516 27.91796875 C1 27 1 27 3 27 C2.90912109 26.32420898 2.81824219 25.64841797 2.72460938 24.95214844 C2.31370559 21.88512042 1.90681082 18.81757347 1.5 15.75 C1.35691406 14.68652344 1.21382813 13.62304688 1.06640625 12.52734375 C0.93105469 11.50253906 0.79570312 10.47773438 0.65625 9.421875 C0.53056641 8.47924805 0.40488281 7.53662109 0.27539062 6.56542969 C0 4 0 4 0 0 Z " fill="#EBECEB" transform="translate(364,167)"/>
</svg>
