<?xml version="1.0" encoding="UTF-8"?>
<svg version="1.1" xmlns="http://www.w3.org/2000/svg" width="512" height="512">
<path d="M0 0 C1.01790619 0.00215515 2.03581238 0.0043103 3.08456421 0.00653076 C17.69363523 0.05620146 32.02575853 0.30709809 46.375 3.3125 C47.34985352 3.51117676 48.32470703 3.70985352 49.32910156 3.91455078 C97.7109774 14.03517194 141.69928269 35.9516877 177.375 70.3125 C178.3640332 71.26068604 178.3640332 71.26068604 179.37304688 72.22802734 C188.86130305 81.37247479 197.6012044 90.66984009 205.375 101.3125 C206.23306152 102.46355017 207.09113451 103.61459177 207.94921875 104.765625 C213.98736829 112.95680614 219.34595521 121.47054105 224.375 130.3125 C224.73948242 130.94430176 225.10396484 131.57610352 225.47949219 132.22705078 C247.08534998 169.97532572 256.85198095 212.74189997 256.6875 255.9375 C256.68534485 256.95540619 256.6831897 257.97331238 256.68096924 259.02206421 C256.63129854 273.63113523 256.38040191 287.96325853 253.375 302.3125 C253.07698486 303.77478027 253.07698486 303.77478027 252.77294922 305.26660156 C242.65232806 353.6484774 220.7358123 397.63678269 186.375 433.3125 C185.74287598 433.97185547 185.11075195 434.63121094 184.45947266 435.31054688 C175.31502521 444.79880305 166.01765991 453.5387044 155.375 461.3125 C154.22394983 462.17056152 153.07290823 463.02863451 151.921875 463.88671875 C143.73224019 469.92427396 135.22961724 475.30707302 126.375 480.3125 C125.66778809 480.7146875 124.96057617 481.116875 124.23193359 481.53125 C101.09654164 494.5566741 75.92537591 503.30551461 49.9375 508.625 C49.21860596 508.77235596 48.49971191 508.91971191 47.7590332 509.0715332 C33.08339502 511.86090125 18.55831162 512.66142619 3.64770508 512.62817383 C0.70811513 512.6250221 -2.2304558 512.64854926 -5.16992188 512.67382812 C-18.54306192 512.71848737 -31.43916711 511.51301542 -44.625 509.3125 C-46.33055054 509.03031616 -46.33055054 509.03031616 -48.07055664 508.74243164 C-91.33802759 500.97044532 -132.38793216 480.98345309 -165.625 452.3125 C-166.37007813 451.67828125 -167.11515625 451.0440625 -167.8828125 450.390625 C-181.38779833 438.57948485 -194.05918743 425.82889772 -204.625 411.3125 C-205.48149066 410.16255169 -206.33826433 409.01281411 -207.1953125 407.86328125 C-213.23534209 399.67315742 -218.61867614 391.16870382 -223.625 382.3125 C-224.0271875 381.60528809 -224.429375 380.89807617 -224.84375 380.16943359 C-237.8691741 357.03404164 -246.61801461 331.86287591 -251.9375 305.875 C-252.08485596 305.15610596 -252.23221191 304.43721191 -252.3840332 303.6965332 C-255.35789088 288.05024391 -255.99800362 272.57681954 -255.9375 256.6875 C-255.93534485 255.66959381 -255.9331897 254.65168762 -255.93096924 253.60293579 C-255.88129854 238.99386477 -255.63040191 224.66174147 -252.625 210.3125 C-252.42632324 209.33764648 -252.22764648 208.36279297 -252.02294922 207.35839844 C-241.90232806 158.9765226 -219.9858123 114.98821731 -185.625 79.3125 C-184.99287598 78.65314453 -184.36075195 77.99378906 -183.70947266 77.31445312 C-174.56502521 67.82619695 -165.26765991 59.0862956 -154.625 51.3125 C-153.47394983 50.45443848 -152.32290823 49.59636549 -151.171875 48.73828125 C-142.98224019 42.70072604 -134.47961724 37.31792698 -125.625 32.3125 C-124.91778809 31.9103125 -124.21057617 31.508125 -123.48193359 31.09375 C-100.34654164 18.0683259 -75.17537591 9.31948539 -49.1875 4 C-48.46860596 3.85264404 -47.74971191 3.70528809 -47.0090332 3.5534668 C-31.36274391 0.57960912 -15.88931954 -0.06050362 0 0 Z " fill="#D80027" transform="translate(255.625,-0.3125)"/>
<path d="M0 0 C0.66 0 1.32 0 2 0 C7.87284097 16.95900601 13.72697096 33.92324395 19.25 51 C19.63212646 52.17272461 20.01425293 53.34544922 20.40795898 54.55371094 C20.75286377 55.62911133 21.09776855 56.70451172 21.453125 57.8125 C21.90413574 59.21435547 21.90413574 59.21435547 22.36425781 60.64453125 C23 63 23 63 23 66 C46.43 66 69.86 66 94 66 C90.75387099 69.24612901 87.60100228 71.84263402 83.875 74.4375 C82.61552157 75.32630756 81.35642559 76.21565724 80.09765625 77.10546875 C79.43137207 77.5751709 78.76508789 78.04487305 78.07861328 78.52880859 C74.47380876 81.08020066 70.89295227 83.66459586 67.3125 86.25 C66.56983887 86.78512207 65.82717773 87.32024414 65.06201172 87.87158203 C60.91804564 90.86459353 56.79772793 93.88639859 52.69921875 96.94140625 C51.83063232 97.58754883 50.9620459 98.23369141 50.06713867 98.89941406 C48.3805692 100.15628124 46.69703341 101.4172315 45.0168457 102.68261719 C44.25847412 103.24754883 43.50010254 103.81248047 42.71875 104.39453125 C41.71231445 105.15020386 41.71231445 105.15020386 40.68554688 105.92114258 C39 107 39 107 37 107 C37.31638428 107.94391602 37.63276855 108.88783203 37.95874023 109.86035156 C41.11708539 119.2883149 44.26014528 128.72127528 47.39160156 138.15820312 C48.41320627 141.23630468 49.43835434 144.31317525 50.46777344 147.38867188 C51.76142499 151.25519246 53.03803325 155.12711345 54.3125 159 C54.70300537 160.16047852 55.09351074 161.32095703 55.49584961 162.51660156 C55.84397705 163.58362305 56.19210449 164.65064453 56.55078125 165.75 C56.85669189 166.67296875 57.16260254 167.5959375 57.4777832 168.546875 C58.02651921 171.12457459 57.86837948 172.54168555 57 175 C56.51869629 174.64397705 56.03739258 174.2879541 55.54150391 173.92114258 C44.51360129 165.76821339 33.44350288 157.67822521 22.31298828 149.66601562 C18.16389044 146.67747396 14.01980196 143.68199514 9.875 140.6875 C8.35158301 139.58721118 6.8281475 138.48694801 5.3046875 137.38671875 C4.203125 136.59114583 3.1015625 135.79557292 2 135 C-0.64398662 136.26575751 -3.04867577 137.63675287 -5.44140625 139.328125 C-6.09778076 139.79105957 -6.75415527 140.25399414 -7.43041992 140.73095703 C-8.13400635 141.23224121 -8.83759277 141.73352539 -9.5625 142.25 C-10.30411377 142.77577637 -11.04572754 143.30155273 -11.80981445 143.84326172 C-18.29020032 148.45577564 -24.69296588 153.17114073 -31.08837891 157.90039062 C-36.01834998 161.54468062 -40.95911356 165.17205502 -45.9375 168.75 C-46.49848389 169.15621582 -47.05946777 169.56243164 -47.63745117 169.98095703 C-50.33174495 171.90837165 -52.97879859 173.63135936 -56 175 C-55.40066316 169.54961285 -54.06629016 164.75810333 -52.234375 159.6015625 C-51.95909973 158.80833588 -51.68382446 158.01510925 -51.40020752 157.19784546 C-50.52279172 154.67142903 -49.63714489 152.1480149 -48.75 149.625 C-44.91609367 138.68904472 -41.22900518 127.7615108 -38.05175781 116.61474609 C-37.11029354 113.37906364 -36.09009766 110.18819616 -35 107 C-35.53367188 106.75894531 -36.06734375 106.51789063 -36.6171875 106.26953125 C-39.64076958 104.65860637 -42.3589622 102.69586511 -45.125 100.6875 C-45.73190674 100.25018555 -46.33881348 99.81287109 -46.96411133 99.36230469 C-48.28410516 98.41059229 -49.60316081 97.45757762 -50.92138672 96.50341797 C-53.0293774 94.97875193 -55.14120418 93.45953566 -57.25390625 91.94140625 C-61.84469037 88.63962991 -66.42408929 85.3223496 -71 82 C-71.87108398 81.36852051 -72.74216797 80.73704102 -73.63964844 80.08642578 C-76.28410185 78.1665392 -78.92392231 76.24045138 -81.5625 74.3125 C-82.39031982 73.71211914 -83.21813965 73.11173828 -84.07104492 72.49316406 C-84.83263916 71.93467773 -85.5942334 71.37619141 -86.37890625 70.80078125 C-87.0551001 70.30747314 -87.73129395 69.81416504 -88.42797852 69.3059082 C-90 68 -90 68 -91 66 C-67.9 66 -44.8 66 -21 66 C-20.01 62.37 -19.02 58.74 -18 55 C-17.11806399 52.14541756 -16.22334932 49.3030845 -15.29296875 46.46484375 C-14.92115227 45.32034508 -14.92115227 45.32034508 -14.54182434 44.15272522 C-13.75947294 41.74685315 -12.97349251 39.34218462 -12.1875 36.9375 C-11.6736045 35.35749459 -11.15993153 33.77741679 -10.64648438 32.19726562 C-7.14885957 21.44770766 -3.58766787 10.7198076 0 0 Z " fill="#FED843" transform="translate(139,158)"/>
<path d="M0 0 C0.66 0 1.32 0 2 0 C3.17652472 3.4133521 4.33948174 6.83117595 5.5 10.25 C5.83386719 11.21808594 6.16773438 12.18617188 6.51171875 13.18359375 C6.82753906 14.11816406 7.14335937 15.05273438 7.46875 16.015625 C7.76201172 16.87446289 8.05527344 17.73330078 8.35742188 18.61816406 C9 21 9 21 9 25 C17.58 25 26.16 25 35 25 C29.375 30.625 29.375 30.625 26.44921875 32.67578125 C25.83369141 33.11083984 25.21816406 33.54589844 24.58398438 33.99414062 C23.64522461 34.64672852 23.64522461 34.64672852 22.6875 35.3125 C22.04232422 35.76689453 21.39714844 36.22128906 20.73242188 36.68945312 C19.15802858 37.79735952 17.57944354 38.89930525 16 40 C17.72250088 46.74646176 19.73433398 53.22181803 22.328125 59.6875 C23 62 23 62 22 65 C21.53102295 64.67725098 21.0620459 64.35450195 20.57885742 64.02197266 C18.44855895 62.55609116 16.31803193 61.09054217 14.1875 59.625 C13.44951172 59.11710937 12.71152344 58.60921875 11.95117188 58.0859375 C11.23896484 57.59609375 10.52675781 57.10625 9.79296875 56.6015625 C9.1383667 56.15119629 8.48376465 55.70083008 7.80932617 55.23681641 C4.74078715 52.7771496 4.74078715 52.7771496 1.06933594 52.19116211 C-1.34492633 53.13482078 -3.06563219 54.34666754 -5.109375 55.94140625 C-5.86347656 56.52470703 -6.61757813 57.10800781 -7.39453125 57.70898438 C-8.17183594 58.32064453 -8.94914062 58.93230469 -9.75 59.5625 C-10.54277344 60.17802734 -11.33554687 60.79355469 -12.15234375 61.42773438 C-14.10616775 62.94606748 -16.0550928 64.47027276 -18 66 C-18.66 65.67 -19.32 65.34 -20 65 C-17.36 56.75 -14.72 48.5 -12 40 C-13.65 39.34 -15.3 38.68 -17 38 C-18.82104492 36.87084961 -18.82104492 36.87084961 -20.48046875 35.65234375 C-21.39022461 34.99202148 -21.39022461 34.99202148 -22.31835938 34.31835938 C-22.93517578 33.86267578 -23.55199219 33.40699219 -24.1875 32.9375 C-28.43524864 29.71628637 -28.43524864 29.71628637 -33 27 C-33 26.34 -33 25.68 -33 25 C-24.42 25 -15.84 25 -7 25 C-6.01 21.04 -5.02 17.08 -4 13 C-3.29501413 10.576169 -2.57138574 8.15749958 -1.8125 5.75 C-1.46832031 4.65171875 -1.12414062 3.5534375 -0.76953125 2.421875 C-0.38861328 1.22304688 -0.38861328 1.22304688 0 0 Z " fill="#FDD443" transform="translate(357,269)"/>
<path d="M0 0 C0.33 0 0.66 0 1 0 C0.34 8.58 -0.32 17.16 -1 26 C2.3 26.99 5.6 27.98 9 29 C11.55999014 30.01755894 14.1045757 31.0755481 16.625 32.1875 C17.24761719 32.46013672 17.87023437 32.73277344 18.51171875 33.01367188 C20.01007562 33.67064373 21.50539581 34.33453502 23 35 C20.21066088 36.85955942 18.57420075 37.50927881 15.40234375 38.2890625 C14.51869141 38.50820312 13.63503906 38.72734375 12.72460938 38.953125 C11.80486328 39.17484375 10.88511719 39.3965625 9.9375 39.625 C8.55208008 39.96917969 8.55208008 39.96917969 7.13867188 40.3203125 C0.29494513 42 0.29494513 42 -2 42 C-1.98839844 42.63164062 -1.97679687 43.26328125 -1.96484375 43.9140625 C-1.88746535 51.58557767 -1.86560114 59.40166803 -3 67 C-3.99 67.495 -3.99 67.495 -5 68 C-9.29 61.07 -13.58 54.14 -18 47 C-24.7335464 48.68029401 -24.7335464 48.68029401 -31.46191406 50.38110352 C-32.30463867 50.58662842 -33.14736328 50.79215332 -34.015625 51.00390625 C-34.87446289 51.21861572 -35.73330078 51.4333252 -36.61816406 51.65454102 C-39.09236484 52.0133965 -40.64810343 51.78317203 -43 51 C-38.06806664 44.9392019 -33.1177512 38.90509753 -28 33 C-29.93213209 27.34795844 -33.32360604 22.59895374 -36.54296875 17.61914062 C-36.98511719 16.92626953 -37.42726563 16.23339844 -37.8828125 15.51953125 C-38.28902832 14.89151611 -38.69524414 14.26350098 -39.11376953 13.61645508 C-40 12 -40 12 -40 10 C-31.55823333 12.713425 -23.28889147 15.85734053 -15 19 C-14.59793335 18.12359863 -14.59793335 18.12359863 -14.18774414 17.22949219 C-12.98520113 14.97222133 -11.6704942 13.25530854 -9.99609375 11.328125 C-9.42052734 10.66425781 -8.84496094 10.00039062 -8.25195312 9.31640625 C-7.65318359 8.63449219 -7.05441406 7.95257813 -6.4375 7.25 C-5.83486328 6.55261719 -5.23222656 5.85523437 -4.61132812 5.13671875 C-1.30459316 1.34380839 -1.30459316 1.34380839 0 0 Z " fill="#FED543" transform="translate(303,116)"/>
<path d="M0 0 C0.33 0 0.66 0 1 0 C1.66 8.58 2.32 17.16 3 26 C9.44413993 27.52223146 9.44413993 27.52223146 15.89379883 29.02075195 C16.69841553 29.21628662 17.50303223 29.41182129 18.33203125 29.61328125 C19.15421143 29.80704346 19.9763916 30.00080566 20.82348633 30.20043945 C23.20906355 31.07680125 24.36376364 32.08604319 26 34 C22.73256344 35.3417678 19.46053092 36.67194359 16.1875 38 C15.25873047 38.3815625 14.32996094 38.763125 13.37304688 39.15625 C12.0340332 39.69765625 12.0340332 39.69765625 10.66796875 40.25 C9.84578857 40.58515625 9.0236084 40.9203125 8.17651367 41.265625 C6 42 6 42 3 42 C3.10828125 43.30710937 3.10828125 43.30710937 3.21875 44.640625 C3.82711659 52.44799618 4.1290649 60.170063 4 68 C0.14044075 64.25333462 -3.36619254 60.31478678 -6.8125 56.1875 C-7.56563477 55.2912793 -7.56563477 55.2912793 -8.33398438 54.37695312 C-9.55806732 52.91971152 -10.77932962 51.46010135 -12 50 C-17.87867984 50.83470099 -23.22059309 53.40182201 -28.66992188 55.6484375 C-29.45302734 55.96296875 -30.23613281 56.2775 -31.04296875 56.6015625 C-31.75477295 56.89369629 -32.46657715 57.18583008 -33.19995117 57.48681641 C-35 58 -35 58 -37 57 C-36.59571777 56.41508789 -36.19143555 55.83017578 -35.77490234 55.22753906 C-33.95818427 52.57940592 -32.16651268 49.91524223 -30.375 47.25 C-29.73820312 46.32960938 -29.10140625 45.40921875 -28.4453125 44.4609375 C-27.85234375 43.57148438 -27.259375 42.68203125 -26.6484375 41.765625 C-26.09333496 40.94868164 -25.53823242 40.13173828 -24.96630859 39.29003906 C-23.73012718 37.05672125 -23.73012718 37.05672125 -24.67626953 34.90917969 C-25.91721108 33.11940416 -27.16013409 31.37968723 -28.53125 29.6875 C-29.01207031 29.08679688 -29.49289062 28.48609375 -29.98828125 27.8671875 C-30.48714844 27.25101562 -30.98601562 26.63484375 -31.5 26 C-37.48453608 18.60824742 -37.48453608 18.60824742 -39 15 C-21.14350797 19.03872437 -21.14350797 19.03872437 -13 22 C-12.77441406 21.34515625 -12.54882812 20.6903125 -12.31640625 20.015625 C-10.56575959 16.00524155 -8.28150664 12.43675443 -5.9375 8.75 C-5.24817383 7.65171875 -5.24817383 7.65171875 -4.54492188 6.53125 C-1.15472274 1.15472274 -1.15472274 1.15472274 0 0 Z " fill="#FED643" transform="translate(299,327)"/>
<path d="M0 0 C6.73304432 4.62661705 12.33998772 10.13121677 18 16 C23.3537465 14.44347945 28.00150947 12.0182491 32.875 9.375 C33.65875 8.95476562 34.4425 8.53453125 35.25 8.1015625 C37.16892057 7.0718978 39.08477603 6.03652433 41 5 C41.495 5.99 41.495 5.99 42 7 C41.1796875 8.99951172 41.1796875 8.99951172 39.875 11.4296875 C39.41609375 12.30753906 38.9571875 13.18539062 38.484375 14.08984375 C37.49803283 15.94053314 36.50846779 17.78950861 35.515625 19.63671875 C35.05671875 20.51714844 34.5978125 21.39757812 34.125 22.3046875 C33.69445312 23.10890137 33.26390625 23.91311523 32.8203125 24.74169922 C31.8600944 27.38515679 31.9177472 28.43072788 33 31 C34.91024275 33.14973587 36.81013136 35.13750348 38.875 37.125 C39.41769531 37.66253906 39.96039063 38.20007813 40.51953125 38.75390625 C42.91249234 41.10006126 45.20476779 43.13651186 48 45 C48 45.66 48 46.32 48 47 C45.89573314 46.85561965 43.79159231 46.70940226 41.6875 46.5625 C40.51574219 46.48128906 39.34398437 46.40007812 38.13671875 46.31640625 C33.08513985 45.94702965 28.04305318 45.46977807 23 45 C22.70754395 45.63091553 22.41508789 46.26183105 22.11376953 46.91186523 C20.79063113 49.75679649 19.45795949 52.59715795 18.125 55.4375 C17.66480469 56.43072266 17.20460938 57.42394531 16.73046875 58.44726562 C16.06337891 59.86362305 16.06337891 59.86362305 15.3828125 61.30859375 C14.77010498 62.62041626 14.77010498 62.62041626 14.14501953 63.95874023 C13 66 13 66 11 67 C10.32754163 63.41772843 9.66304461 59.8340249 9 56.25 C8.71382813 54.72632813 8.71382813 54.72632813 8.421875 53.171875 C8.15117187 51.70234375 8.15117187 51.70234375 7.875 50.203125 C7.70742188 49.30239258 7.53984375 48.40166016 7.3671875 47.47363281 C7 45 7 45 7 41 C6.29617188 40.95101562 5.59234375 40.90203125 4.8671875 40.8515625 C-3.14730189 40.24472127 -11.05567419 39.21045201 -19 38 C-14.91679922 34.43822958 -10.63966512 32.10897662 -5.8125 29.75 C-5.08869141 29.38648438 -4.36488281 29.02296875 -3.61914062 28.6484375 C1.7324953 26 1.7324953 26 4 26 C3.87882812 25.31897217 3.75765625 24.63794434 3.6328125 23.9362793 C3.08589412 20.85381578 2.5429026 17.77067322 2 14.6875 C1.80921875 13.61564453 1.6184375 12.54378906 1.421875 11.43945312 C1.15117187 9.89741211 1.15117187 9.89741211 0.875 8.32421875 C0.70742188 7.37635498 0.53984375 6.42849121 0.3671875 5.4519043 C0 3 0 3 0 0 Z " fill="#FED543" transform="translate(340,183)"/>
</svg>
