<?xml version="1.0" encoding="UTF-8" standalone="no"?>
<!-- Created with Inkscape (http://www.inkscape.org/) -->

<svg
   width="141.5854mm"
   height="119.40462mm"
   viewBox="0 0 141.5854 119.40462"
   version="1.1"
   id="svg1"
   xmlns="http://www.w3.org/2000/svg"
   xmlns:svg="http://www.w3.org/2000/svg">
  <defs
     id="defs1" />
  <g
     id="layer1"
     transform="translate(-37.07098,-67.256903)">
    <path
       style="fill:#000000"
       d="m 105.59655,186.36877 c -2.13807,-0.60075 -3.19648,-1.34536 -4.72257,-3.32239 -0.2075,-0.26882 -7.502421,-2.92913 -22.722321,-8.28636 -12.32919,-4.33973 -22.41689,-7.94287 -22.41712,-8.00696 -4.7e-4,-0.13309 2.95083,-5.8118 5.49704,-10.57707 0.94584,-1.77015 2.03503,-3.88458 2.42042,-4.69872 l 0.7007,-1.48026 0.94197,0.31932 c 0.51809,0.17562 0.96914,0.34098 1.00233,0.36746 0.0332,0.0265 -1.44648,3.23474 -3.28817,7.12948 -1.84169,3.89474 -3.34853,7.16271 -3.34853,7.26215 0,0.0995 0.55212,0.37265 1.22693,0.60712 0.67481,0.23447 8.38239,2.91616 17.12794,5.95932 19.89378,6.92236 22.847591,7.94257 23.458901,8.10241 1.0011,0.26175 -2.961271,-2.2446 -6.380041,-4.03563 -7.84971,-4.1123 -17.68444,-7.40685 -28.75923,-9.63408 -1.99744,-0.4017 -4.00715,-0.79248 -4.46602,-0.8684 -0.45888,-0.0759 -0.83432,-0.18826 -0.83432,-0.24964 0,-0.1164 5.61242,-11.9356 7.59528,-15.9949 0.68271,-1.39764 1.25865,-2.33514 1.43493,-2.33571 0.16195,-5.2e-4 1.21696,0.23545 2.34446,0.52438 1.62307,0.41592 2.08185,0.46992 2.20288,0.25928 0.53832,-0.9368 0.43672,-0.91858 2.26559,-0.40623 0.94774,0.2655 1.74686,0.5078 1.77583,0.53844 0.029,0.0306 -0.13989,0.54579 -0.37523,1.14478 l -0.4279,1.08907 -0.82137,-0.13028 -0.82136,-0.13028 -2.23714,4.73205 c -1.23043,2.60263 -2.23714,4.82421 -2.23714,4.93685 0,0.11264 0.17668,0.23467 0.39262,0.27117 1.14614,0.19377 6.96959,1.77524 8.88717,2.41348 5.44518,1.81237 10.92398,4.33037 14.84904,6.8245 2.45086,1.55736 3.44505,2.30005 5.955491,4.44891 1.10669,0.94729 2.01216,1.66584 2.01216,1.59678 0,-0.29422 -2.65782,-3.45507 -4.451421,-5.29392 -3.14204,-3.22132 -6.06637,-5.34604 -10.76251,-7.8197 -3.05045,-1.6068 -6.46564,-2.96916 -9.71817,-3.87669 -1.43073,-0.39921 -2.64794,-0.77513 -2.7049,-0.83538 -0.057,-0.0602 0.30289,-1.11506 0.79967,-2.34403 2.40103,-5.93985 4.06326,-9.89413 4.23585,-10.07668 0.26431,-0.27958 1.66093,0.0958 5.42349,1.4577 3.31657,1.20046 5.81366,2.42226 8.00055,3.91457 l 1.32509,0.90422 v 1.45769 c 0,0.80173 -0.0389,1.45769 -0.0864,1.45769 -0.0475,0 -0.86464,-0.55333 -1.81586,-1.22962 -2.84561,-2.02316 -6.34608,-3.72202 -9.95812,-4.83291 -0.9352,-0.28762 -1.58164,-0.39534 -1.62317,-0.27046 -0.038,0.11414 -0.7712,1.93143 -1.62942,4.03843 -0.85822,2.107 -1.53803,3.85458 -1.51068,3.8835 0.0273,0.0289 1.0903,0.38621 2.36212,0.79398 6.24411,2.00195 12.00085,5.09961 16.42091,8.83596 1.908951,1.61368 5.167501,5.08852 6.575021,7.01145 0.65084,0.88917 1.00173,1.22132 1.09678,1.03822 0.0769,-0.14808 0.20314,-1.35749 0.28058,-2.68757 0.13641,-2.34267 0.12785,-2.42269 -0.27362,-2.55747 -0.57871,-0.19428 -0.74929,-1.05991 -0.31003,-1.57331 0.19149,-0.22381 0.45497,-0.40692 0.58551,-0.40692 0.50888,0 0.67939,-3.97906 0.19257,-4.49398 -0.16196,-0.17131 -0.29446,-0.63183 -0.29446,-1.02339 v -0.71192 h -1.23238 c -0.99507,0 -1.29801,0.0811 -1.57321,0.42105 -0.27452,0.33913 -0.41743,0.37767 -0.73459,0.19814 -0.3778,-0.21387 -0.39161,-0.40134 -0.3408,-4.62581 l 0.053,-4.40291 0.47303,-0.0707 c 0.28376,-0.0424 0.54294,0.0614 0.64775,0.25955 0.15165,0.28663 0.75764,0.33025 4.58809,0.33025 3.63528,0 4.43224,-0.0521 4.52052,-0.29541 0.15325,-0.42243 0.66957,-0.58265 0.98509,-0.30568 0.39401,0.34589 0.39401,8.74672 0,9.0926 -0.31552,0.27697 -0.83184,0.11676 -0.98509,-0.30568 -0.076,-0.20941 -0.44547,-0.29541 -1.26934,-0.29541 h -1.16216 l -0.12772,0.72008 c -0.0702,0.39604 -0.26378,0.864 -0.43008,1.0399 -0.25174,0.26627 -0.27921,0.6654 -0.16407,2.3833 0.13637,2.03449 0.14624,2.0664 0.7027,2.27158 0.4171,0.1538 0.5644,0.34254 0.5644,0.72319 0,0.52199 -0.4515,1.16767 -0.81651,1.16767 -0.11857,0 -0.15651,0.316 -0.0935,0.77866 0.0583,0.42826 0.16236,1.59625 0.23119,2.59553 0.0688,0.99928 0.18951,1.81688 0.26819,1.81688 0.0787,0 0.69645,-0.74313 1.37282,-1.6514 3.85699,-5.17942 9.62281,-9.7095 16.40299,-12.88748 2.0235,-0.94845 5.80696,-2.36928 7.70797,-2.89465 l 0.82903,-0.22911 -0.39395,-1.05717 c -0.53316,-1.43072 -2.76158,-6.90329 -2.85349,-7.00762 -0.14205,-0.16123 -2.74994,0.67785 -4.79065,1.54137 -2.80481,1.18686 -4.68866,2.21036 -6.70395,3.64228 -1.91396,1.35992 -1.92541,1.35582 -1.93095,-0.69189 l -0.003,-0.99049 1.38918,-0.95054 c 0.76405,-0.5228 2.29158,-1.4065 3.39452,-1.96378 2.07846,-1.05018 7.87262,-3.19134 9.25872,-3.42144 l 0.79158,-0.13141 2.52402,6.25419 c 1.3882,3.43981 2.47124,6.31002 2.40674,6.37824 -0.0645,0.0682 -0.89398,0.33279 -1.84328,0.58793 -4.45186,1.19651 -7.00826,2.20483 -11.14883,4.39744 -5.68427,3.01006 -11.11402,7.67024 -14.02356,12.03596 -0.74183,1.11311 -0.65321,1.05986 1.30822,-0.78617 3.1846,-2.99724 9.46495,-6.76902 15.26735,-9.16912 4.30073,-1.77894 9.97701,-3.58081 14.47563,-4.59511 l 0.53771,-0.12123 -2.30449,-4.89003 -2.30448,-4.89003 -0.80497,0.1257 -0.80497,0.1257 -0.42388,-1.07886 c -0.23314,-0.59337 -0.40093,-1.10111 -0.37289,-1.1283 0.1404,-0.13612 2.89354,-0.92362 3.22901,-0.92362 0.21369,0 0.50676,0.23599 0.65369,0.52637 0.14648,0.2895 0.36017,0.489 0.47486,0.44333 0.80567,-0.32078 4.30008,-0.98036 4.43102,-0.83636 0.36834,0.4051 8.83205,17.81394 8.83205,18.16647 0,0.0791 -0.37544,0.2068 -0.83431,0.28368 -0.45887,0.0769 -1.67353,0.31307 -2.69924,0.52485 -1.02572,0.21179 -2.65999,0.54099 -3.63172,0.73157 -11.50743,2.25684 -24.27831,7.10374 -31.89463,12.1049 -0.96707,0.63502 -1.35027,0.98688 -1.1248,1.0328 0.18809,0.0383 2.17322,-0.58473 4.41141,-1.38455 2.23819,-0.79981 8.61889,-3.03845 14.17933,-4.97475 25.31696,-8.81606 22.98671,-7.95588 22.84595,-8.43333 -0.07,-0.23733 -1.57795,-3.50185 -3.35106,-7.25448 -1.77312,-3.75263 -3.19668,-6.84183 -3.16348,-6.86489 0.17509,-0.1216 1.80508,-0.73148 1.84193,-0.68918 0.0749,0.0859 3.98244,7.55745 6.16168,11.7815 1.14892,2.22696 2.21351,4.25502 2.36576,4.50678 0.15225,0.25177 0.23599,0.49559 0.18609,0.54183 -0.0499,0.0463 -10.20133,3.6466 -22.55873,8.00079 -15.93164,5.61358 -22.52202,8.02326 -22.65365,8.28299 -0.32049,0.63233 -1.85895,2.10373 -2.64069,2.52557 -1.88087,1.01495 -4.46817,1.30416 -6.51702,0.72846 z m -3.53356,-9.86108 c -5.005871,-4.70426 -10.513201,-7.97152 -19.140101,-11.35501 -2.96352,-1.16229 -6.09279,-2.07724 -11.1896,-3.27166 -1.72752,-0.40484 -3.25128,-0.77656 -3.38613,-0.82606 -0.16304,-0.0598 0.60978,-1.8928 2.30663,-5.47084 1.4035,-2.95947 2.55181,-5.47292 2.55181,-5.58544 0,-0.11252 -0.46377,-0.30438 -1.03062,-0.42636 -0.89271,-0.19209 -1.0654,-0.17494 -1.29055,0.12822 -0.31245,0.42071 -6.31641,13.04084 -6.31641,13.2769 0,0.0908 1.12632,0.38544 2.50294,0.65473 2.82051,0.55173 11.14255,2.7454 14.60508,3.84985 7.07545,2.25688 14.42634,5.63233 19.979561,9.17437 0.60196,0.38395 1.13864,0.69435 1.19263,0.68978 0.054,-0.005 -0.29937,-0.38189 -0.78524,-0.83848 z m 13.80765,-0.97139 c 1.35534,-0.88664 6.65943,-3.61605 8.86601,-4.56232 7.61316,-3.26484 17.76167,-6.28215 25.66737,-7.63132 0.40489,-0.0691 0.73616,-0.22489 0.73616,-0.34621 0,-0.12132 -1.43551,-3.19987 -3.19002,-6.84121 -3.5136,-7.29219 -3.2158,-6.90228 -4.89487,-6.40901 l -0.72331,0.21249 2.65743,5.54789 2.65744,5.5479 -0.65812,0.15081 c -7.80725,1.78911 -10.81547,2.6397 -14.8905,4.21038 -6.26238,2.41376 -11.13074,5.10743 -15.41024,8.52649 -4.30402,3.43865 -4.64069,4.09528 -0.81735,1.59411 z m -16.823961,-15.01488 -0.51725,-0.43036 v -4.54498 c 0,-4.40812 0.0129,-4.55773 0.42964,-4.96836 0.54527,-0.53733 1.226391,-0.54051 1.729761,-0.008 0.36929,0.39062 0.39262,0.69215 0.39262,5.07548 0,4.58032 -0.007,4.66573 -0.4363,4.98343 -0.5853,0.43362 -0.980371,0.40715 -1.598471,-0.10712 z m 16.365311,0.28625 c -0.72652,-0.27464 -0.78524,-0.66996 -0.78524,-5.28621 0,-4.38279 0.0131,-4.53325 0.42963,-4.94374 0.56456,-0.55633 1.16873,-0.53595 1.69555,0.0572 0.41106,0.46282 0.42683,0.64643 0.42683,4.96835 v 4.48778 l -0.51724,0.43036 c -0.52662,0.43815 -0.72655,0.48395 -1.24953,0.28625 z M 103.977,148.8748 l -0.53985,-0.20856 v -12.20819 c 0,-13.18703 -0.0316,-12.79601 1.01982,-12.63837 l 0.4525,0.0679 0.0506,12.6143 c 0.0402,10.0297 0,12.61095 -0.19631,12.59791 -0.1358,-0.009 -0.48984,-0.11024 -0.78676,-0.22494 z m 6.69371,-5.00165 c -0.0423,-7.42014 0.0578,-19.74864 0.16183,-19.9337 0.13746,-0.2446 0.94247,-0.18207 1.20294,0.0934 0.17787,0.18815 0.23557,3.23472 0.23557,12.43826 v 12.18908 l -0.61822,0.22796 c -0.34002,0.12537 -0.69338,0.22795 -0.78524,0.22795 -0.0919,0 -0.18045,-2.35934 -0.19688,-5.24298 z m -10.52173,3.53606 -0.441691,-0.22532 v -16.99498 c 0,-13.44845 -0.0512,-16.99854 -0.24539,-17.01205 -2.18629,-0.15213 -3.4856,-1.41586 -3.48319,-3.38783 8.5e-4,-0.69809 0.13115,-1.26778 0.38202,-1.67032 0.50393,-0.80861 1.71874,-1.56696 2.51224,-1.56828 l 0.63801,-0.001 v -1.22495 -1.22495 l -0.8754,-0.0728 c -0.48146,-0.0401 -8.98728,-0.0728 -18.9018,-0.0728 h -18.02641 l -0.92538,0.51875 -0.92538,0.51875 v 1.25075 1.25075 l 2.89555,4.66506 c 3.71106,5.97892 10.39737,16.65733 12.31766,19.67198 l 1.48798,2.33598 h 1.75931 c 0.96761,0 1.75916,0.0701 1.75899,0.15574 -5.9e-4,0.30036 -2.66245,3.39107 -3.90179,4.53039 -3.46409,3.18456 -7.41017,5.26866 -11.99891,6.33717 -2.90398,0.6762 -8.01498,0.68412 -10.89513,0.0169 -5.63211,-1.30478 -9.49692,-3.52994 -13.56725,-7.81133 -1.19973,-1.26195 -2.28499,-2.50469 -2.41169,-2.76165 l -0.23035,-0.4672 1.82277,-0.005 1.82276,-0.005 2.09557,-3.36963 c 1.15256,-1.8533 4.18525,-6.73345 6.73932,-10.84478 2.55406,-4.11133 5.34338,-8.58698 6.19847,-9.94589 1.49777,-2.38024 1.55473,-2.51515 1.55473,-3.68287 0,-1.17093 -0.0217,-1.22176 -0.63801,-1.49569 -0.81953,-0.36425 -1.86336,-1.49298 -2.23925,-2.42136 -0.19545,-0.48274 -0.27065,-1.19436 -0.22395,-2.11939 0.0577,-1.142421 0.17651,-1.552501 0.66145,-2.282311 1.46794,-2.20922 4.14365,-2.59742 6.23951,-0.90525 l 0.87095,0.70319 10.96456,-1.23097 c 6.03052,-0.67703 12.24549,-1.37411 13.81105,-1.54906 1.56556,-0.17494 5.0453,-0.57075 7.73274,-0.87956 l 4.88628,-0.56147 0.760301,-1.34968 c 2.59978,-4.61508 7.90249,-6.12516 12.18562,-3.47016 1.11603,0.6918 2.77877,2.57257 3.32424,3.76012 0.34802,0.7577 0.55993,0.97396 1.03711,1.05844 0.32985,0.0584 3.77992,0.48378 7.66683,0.94532 3.88692,0.46154 12.05827,1.43378 18.15856,2.16055 l 11.09145,1.32138 0.58892,-0.58051 c 0.93524,-0.92187 1.73335,-1.24993 3.04086,-1.24993 2.30612,0 3.92583,1.52419 4.24609,3.995701 0.2432,1.87678 -0.79607,3.81954 -2.47048,4.61818 -0.79191,0.37772 -0.79214,0.37818 -0.79214,1.57049 0,1.19062 0.005,1.20075 2.97578,5.93819 4.32682,6.90008 10.65692,17.04958 12.31639,19.74773 l 1.43672,2.33599 h 1.8601 1.86011 l -0.6545,0.87469 c -1.20197,1.60636 -3.83567,4.21579 -5.59166,5.54015 -2.97067,2.24046 -6.27421,3.75912 -10.08046,4.63406 -2.42719,0.55794 -7.48061,0.59764 -10.06473,0.0791 -3.69732,-0.74196 -7.81841,-2.59091 -10.77246,-4.83313 -2.05712,-1.56141 -5.84886,-5.63455 -5.85995,-6.29484 -9.6e-4,-0.0571 0.78401,-0.0741 1.74439,-0.0377 l 1.74613,0.0661 1.12698,-1.83104 c 1.07693,-1.74972 2.53074,-4.0882 11.59461,-18.6501 l 4.00658,-6.43693 1.3e-4,-1.17421 c 1.4e-4,-1.16933 -0.003,-1.17646 -0.86913,-1.71305 l -0.86927,-0.53884 h -19.05607 -19.05607 v 1.24585 1.24586 h 0.6949 c 0.94684,0 2.18428,0.70706 2.64932,1.51379 0.24843,0.43096 0.38444,1.04081 0.38491,1.72588 10e-4,1.80352 -1.17186,3.11493 -2.89891,3.24067 l -0.82964,0.0604 -2.9e-4,17.08376 -2.9e-4,17.08376 -0.50355,0.2025 c -1.14542,0.46064 -1.06692,1.72153 -1.06692,-17.13567 v -17.33817 l -5.64387,0.002 c -3.10414,0.001 -6.10766,0.0607 -6.6745,0.13275 l -1.03062,0.13094 v 17.20543 c 0,13.63341 -0.051,17.20251 -0.24539,17.19137 -0.13496,-0.008 -0.44415,-0.11545 -0.68708,-0.23937 z m 61.12446,-3.79844 c 4.44567,-0.80146 8.81185,-3.0789 12.23558,-6.38219 l 1.02226,-0.9863 h -17.42701 -17.42702 l 0.67651,0.74516 c 2.70421,2.97861 7.88405,5.76476 12.27779,6.60402 2.09831,0.4008 6.47154,0.41057 8.64189,0.0193 z m -96.463971,-0.58622 c 2.40105,-0.66052 5.17682,-1.94037 7.04866,-3.24999 1.67723,-1.17346 4.0958,-3.26856 4.0958,-3.548 0,-0.11602 -6.8774,-0.19192 -17.38969,-0.19192 -9.56432,0 -17.36023,0.0758 -17.32424,0.16841 0.036,0.0926 0.41879,0.49739 0.85067,0.89948 3.56812,3.32198 7.60813,5.41233 12.17114,6.2975 1.12871,0.21895 2.56444,0.2829 5.10403,0.22732 2.99026,-0.0654 3.82724,-0.15813 5.44363,-0.6028 z m 90.987101,-19.65612 0.0431,-10.90125 -0.39922,0.51911 c -0.21957,0.28551 -2.11196,3.27556 -4.20531,6.64457 -2.09335,3.369 -4.90885,7.90081 -6.25667,10.07067 -1.34782,2.16987 -2.51035,4.10997 -2.58341,4.31134 -0.12552,0.34601 0.23789,0.36313 6.61276,0.31147 l 6.74557,-0.0547 z m 15.95602,10.86829 c 0,-0.22806 -12.90865,-21.03813 -13.36858,-21.55151 -0.10488,-0.11707 -0.17672,4.25134 -0.17672,10.74551 v 10.94278 h 6.77265 c 3.72496,0 6.77265,-0.0615 6.77265,-0.13678 z M 57.304599,123.36843 c 0,-5.93859 -0.0466,-10.79743 -0.10352,-10.79743 -0.0569,0 -0.77642,1.09791 -1.59885,2.43981 -0.82242,1.34189 -3.01395,4.86922 -4.87006,7.83851 -3.01704,4.82647 -6.43992,10.3548 -6.84596,11.05698 -0.11895,0.2057 1.25759,0.25955 6.63415,0.25955 h 6.78424 z m 15.90089,10.3819 c -0.11564,-0.22853 -2.38425,-3.89603 -5.04137,-8.14998 -2.65712,-4.25395 -5.57059,-8.92581 -6.47438,-10.3819 -0.90379,-1.4561 -1.72689,-2.64745 -1.82912,-2.64745 -0.19458,0 -0.27849,21.08544 -0.0852,21.41621 0.0574,0.0983 3.14997,0.17864 6.87235,0.17864 6.70843,0 6.76613,-0.004 6.55774,-0.41552 z M 117.36103,111.229 c 0.91608,-0.50107 1.09551,-1.7238 0.37244,-2.53792 l -0.42684,-0.48058 h -9.44973 c -9.238571,0 -9.459341,0.009 -9.879381,0.42338 -0.73565,0.72494 -0.49075,2.30274 0.41752,2.68982 0.23587,0.10052 4.474751,0.18869 9.419731,0.19593 7.52453,0.011 9.08145,-0.0364 9.54626,-0.29063 z m -2.85801,-5.14683 c 0.0651,-0.25696 0.11958,-1.19136 0.12105,-2.07643 l 0.003,-1.60923 h 20.02519 20.02519 l 0.81299,0.62292 c 2.36266,1.81032 5.43196,-0.83493 4.18747,-3.608921 -0.90235,-2.01134 -3.24125,-2.29552 -4.64744,-0.56468 l -0.65088,0.80114 -1.57047,-0.17483 c -0.86376,-0.0962 -3.95562,-0.46467 -6.87081,-0.8189 -2.91518,-0.35424 -7.59714,-0.91084 -10.40436,-1.23689 -11.0207,-1.28006 -19.64955,-2.31114 -20.02834,-2.39325 -0.26244,-0.0569 -0.58758,-0.52427 -0.95708,-1.37573 -0.69578,-1.60335 -2.02019,-3.02837 -3.55568,-3.82579 -1.06312,-0.55211 -1.36317,-0.61039 -3.14256,-0.61039 -1.82647,0 -2.06081,0.0487 -3.27537,0.68119 -1.55877,0.81168 -2.83728,2.22072 -3.51299,3.87164 -0.55661,1.35993 0.023,1.18457 -6.262041,1.89449 -9.72522,1.09849 -23.1861,2.61226 -25.91276,2.91406 -1.56556,0.17329 -3.95067,0.45056 -5.30025,0.61614 l -2.45377,0.30107 -0.58901,-0.72186 c -0.94708,-1.16068 -2.11238,-1.43666 -3.37992,-0.80044 -0.95208,0.47787 -1.4281,1.37969 -1.429,2.707231 -6.5e-4,0.96731 0.0774,1.16825 0.7399,1.9049 0.40735,0.45293 0.98213,0.88763 1.2773,0.96599 0.78793,0.20917 1.81729,-0.0567 2.47065,-0.63825 l 0.57397,-0.51084 h 20.14238 20.142391 v 2.07642 2.07643 h 6.6516 6.6516 z m -8.73379,-4.26586 c -1.51713,-0.83832 -2.2369,-2.123141 -2.22552,-3.972601 0.009,-1.48768 0.29182,-2.24504 1.2003,-3.21593 1.69354,-1.8099 4.37153,-1.80522 6.0908,0.0106 3.53766,3.73641 -0.62334,9.632531 -5.06558,7.177901 z m 3.68132,-1.52047 c 0.59824,-0.384021 0.9106,-0.945801 1.16378,-2.093071 0.29349,-1.32993 -0.92974,-3.08621 -2.34512,-3.36706 -0.96913,-0.19231 -2.3338,0.45773 -2.87466,1.3693 -0.63979,1.0783 -0.46016,2.65911 0.41006,3.60879 1.07642,1.174701 2.31234,1.338111 3.64594,0.482041 z M 76.154629,90.634059 c -0.54226,-1.21598 -0.98594,-2.3173 -0.98594,-2.44737 0,-0.13008 6.02913,-2.62393 13.39807,-5.5419 l 13.398081,-5.3054 0.0562,-2.16217 0.0562,-2.16217 0.92532,-1.00317 c 0.50892,-0.551747 1.78715,-1.847327 2.84051,-2.879077 l 1.91519,-1.8759 0.83313,0.74584 c 0.45822,0.41022 1.76069,1.67231 2.89437,2.80466 l 2.06124,2.058817 0.0982,2.24227 0.0981,2.24227 1.96309,0.79086 c 1.0797,0.43498 4.56908,1.82787 7.75419,3.09533 3.18511,1.26746 6.54199,2.60934 7.45974,2.98197 0.91774,0.37263 3.39123,1.36033 5.49664,2.19489 2.10541,0.83456 3.89825,1.58065 3.98408,1.65799 0.0858,0.0773 -0.28141,1.08683 -0.81609,2.24332 -0.53468,1.15649 -1.00788,2.2161 -1.05155,2.35468 -0.0533,0.16903 -2.56318,-0.7449 -7.62519,-2.77656 -4.15018,-1.6657 -11.02741,-4.40571 -15.28274,-6.08892 l -7.73696,-3.06039 -0.90063,0.3185 c -0.49534,0.17517 -7.381831,2.89789 -15.303321,6.0505 -7.92148,3.15261 -14.4345,5.73201 -14.47337,5.73201 -0.0389,0 -0.51434,-0.99489 -1.05661,-2.21088 z m 7.55349,-1.99965 c 2.69925,-1.08331 6.85118,-2.73606 9.22651,-3.6728 8.497161,-3.35095 13.162871,-5.21634 13.797351,-5.51631 0.88599,-0.41888 1.35847,-0.38496 2.70782,0.1944 0.63944,0.27456 5.44706,2.19976 10.6836,4.27823 5.23653,2.07847 11.21676,4.47013 13.28939,5.31481 2.07263,0.84467 3.9034,1.53577 4.06837,1.53577 0.30053,0 0.79985,-0.81734 0.92852,-1.5199 0.0721,-0.39368 -0.0583,-0.4491 -14.26196,-6.05984 -2.69924,-1.06627 -6.49781,-2.58202 -8.44127,-3.36835 l -3.53356,-1.42969 -0.0559,-2.37398 c -0.0641,-2.72178 0.11408,-2.39406 -2.8407,-5.223577 l -1.52247,-1.45793 -1.42216,1.45446 c -0.78218,0.79996 -1.70925,1.706307 -2.06016,2.014097 l -0.638,0.55963 v 2.45751 2.45751 l -2.06919,0.85573 c -2.136161,0.88341 -10.836401,4.33293 -19.426621,7.70237 -2.69924,1.05876 -4.94415,1.9557 -4.98868,1.99322 -0.097,0.0817 0.29098,1.02679 0.69082,1.6827 0.21665,0.35541 0.36944,0.42428 0.62377,0.28114 0.18527,-0.10426 2.54532,-1.0759 5.24456,-2.1592 z"
       id="path1" />
  </g>
</svg>
